<?xml version="1.0" encoding="UTF-8" standalone="no"?>
<!DOCTYPE svg PUBLIC "-//W3C//DTD SVG 1.0//EN"
 "http://www.w3.org/TR/2001/REC-SVG-20010904/DTD/svg10.dtd">
<!-- Generated by dot version 1.8.9 (Wed Oct  2 09:41:21 MDT 2002)
     For user: (connolly) Dan Connolly,,+1-913-491-0501,   Title: world    Pages: 1 -->
<svg width="508px" height="266px"
 xmlns="http://www.w3.org/2000/svg">
<g id="graph0" class="graph" style="font-family:Times-Roman;font-size:14.00;">
<title>world</title>
<g id="node2" class="node"><title>toIcal.py</title>
<polygon style="fill:none;stroke:black;" points="314,220 258,240 314,260 370,240 314,220"/>
<text text-anchor="middle" x="314" y="245">toIcal.py</text>
</g>
<g id="node4" class="node"><title>itin-cal.ics</title>
<ellipse cx="450" cy="240" rx="43" ry="18" style="fill:none;stroke:black;"/>
<text text-anchor="middle" x="450" y="245">itin-cal.ics</text>
</g>
<g id="edge3" class="edge"><title>toIcal.py-&gt;itin-cal.ics</title>
<path style="fill:none;stroke:black;" d="M370,240C379,240 388,240 396,240"/>
<polygon style="fill:black;stroke:black;" points="396,237 406,240 396,242 396,237"/>
</g>
<g id="node5" class="node"><title>itinKB2</title>
<ellipse cx="118" cy="240" rx="34" ry="18" style="fill:none;stroke:black;"/>
<text text-anchor="middle" x="118" y="245">itin.rdf</text>
</g>
<g id="edge5" class="edge"><title>itinKB2-&gt;toIcal.py</title>
<path style="fill:none;stroke:black;" d="M152,240C178,240 216,240 248,240"/>
<polygon style="fill:black;stroke:black;" points="248,237 258,240 248,242 248,237"/>
</g>
<g id="node8" class="node"><title>cwm2</title>
<polygon style="fill:none;stroke:black;" points="314,85 274,105 314,125 354,105 314,85"/>
<text text-anchor="middle" x="314" y="110">cwm</text>
</g>
<g id="node18" class="node"><title>itinKB1</title>
<ellipse cx="450" cy="105" rx="34" ry="18" style="fill:none;stroke:black;"/>
<text text-anchor="middle" x="450" y="110">itin.rdf</text>
</g>
<g id="edge16" class="edge"><title>cwm2-&gt;itinKB1</title>
<path style="fill:none;stroke:black;" d="M354,105C371,105 390,105 407,105"/>
<polygon style="fill:black;stroke:black;" points="406,102 416,105 406,107 406,102"/>
</g>
<g id="node9" class="node"><title>itin.nt</title>
<ellipse cx="118" cy="24" rx="30" ry="18" style="fill:none;stroke:black;"/>
<text text-anchor="middle" x="118" y="29">itin.nt</text>
</g>
<g id="edge8" class="edge"><title>itin.nt-&gt;cwm2</title>
<path style="fill:none;stroke:black;" d="M147,29C168,34 198,41 222,51 247,62 272,77 290,89"/>
<polygon style="fill:black;stroke:black;" points="290,86 297,93 287,90 290,86"/>
</g>
<g id="node11" class="node"><title>airportLookup.n3</title>
<polygon style="fill:none;stroke:black;" points="221,60 58,60 15,96 178,96 221,60"/>
<text text-anchor="middle" x="118" y="83">airportLookup.n3</text>
</g>
<g id="edge10" class="edge"><title>airportLookup.n3-&gt;cwm2</title>
<path style="fill:none;stroke:black;" d="M189,88C218,92 249,96 274,100"/>
<polygon style="fill:black;stroke:black;" points="272,97 282,101 272,102 272,97"/>
</g>
<g id="node13" class="node"><title>itin2ical.n3</title>
<polygon style="fill:none;stroke:black;" points="187,114 78,114 49,150 158,150 187,114"/>
<text text-anchor="middle" x="118" y="137">itin2ical.n3</text>
</g>
<g id="edge12" class="edge"><title>itin2ical.n3-&gt;cwm2</title>
<path style="fill:none;stroke:black;" d="M180,123C211,119 247,114 274,110"/>
<polygon style="fill:black;stroke:black;" points="273,108 283,109 273,113 273,108"/>
</g>
<g id="node15" class="node"><title>DAML airport data</title>
<ellipse cx="118" cy="186" rx="79" ry="18" style="fill:none;stroke:black;"/>
<text text-anchor="middle" x="118" y="191">DAML airport data</text>
</g>
<g id="edge14" class="edge"><title>DAML airport data-&gt;cwm2</title>
<path style="fill:none;stroke:black;" d="M177,174C192,170 208,165 222,159 247,149 272,133 290,121"/>
<polygon style="fill:black;stroke:black;" points="287,120 297,117 290,124 287,120"/>
</g>
</g></svg>
