<?xml version="1.0" encoding="UTF-8" standalone="no"?>
<!DOCTYPE svg PUBLIC "-//W3C//DTD SVG 1.0//EN"
 "http://www.w3.org/TR/2001/REC-SVG-20010904/DTD/svg10.dtd">
<!-- Generated by dot version 1.8.9 (Wed Oct  2 09:41:21 MDT 2002)
     For user: (connolly) Dan Connolly,,+1-913-491-0501,   Title: world    Pages: 1 -->
<svg width="620px" height="52px"
 xmlns="http://www.w3.org/2000/svg">
<g id="graph0" class="graph" style="font-family:Times-Roman;font-size:14.00;">
<title>world</title>
<g id="node1" class="node"><title>itin.txt</title>
<ellipse cx="47" cy="26" rx="32" ry="18" style="fill:none;stroke:black;"/>
<text text-anchor="middle" x="47" y="31">itin.txt</text>
</g>
<g id="node3" class="node"><title>grokTravItin.pl</title>
<polygon style="fill:none;stroke:black;" points="206,6 117,26 206,46 295,26 206,6"/>
<text text-anchor="middle" x="206" y="31">grokTravItin.pl</text>
</g>
<g id="edge2" class="edge"><title>itin.txt-&gt;grokTravItin.pl</title>
<path style="fill:none;stroke:black;" d="M80,26C88,26 96,26 105,26"/>
<polygon style="fill:black;stroke:black;" points="106,23 116,26 106,28 106,23"/>
</g>
<g id="node5" class="node"><title>itin.nt</title>
<ellipse cx="362" cy="26" rx="30" ry="18" style="fill:none;stroke:black;"/>
<text text-anchor="middle" x="362" y="31">itin.nt</text>
</g>
<g id="edge4" class="edge"><title>grokTravItin.pl-&gt;itin.nt</title>
<path style="fill:none;stroke:black;" d="M296,26C305,26 314,26 323,26"/>
<polygon style="fill:black;stroke:black;" points="322,23 332,26 322,28 322,23"/>
</g>
<g id="node7" class="node"><title>cwm1</title>
<polygon style="fill:none;stroke:black;" points="468,6 428,26 468,46 508,26 468,6"/>
<text text-anchor="middle" x="468" y="31">cwm</text>
</g>
<g id="edge6" class="edge"><title>itin.nt-&gt;cwm1</title>
<path style="fill:none;stroke:black;" d="M392,26C400,26 409,26 418,26"/>
<polygon style="fill:black;stroke:black;" points="418,23 428,26 418,28 418,23"/>
</g>
<g id="node9" class="node"><title>itin.n3</title>
<ellipse cx="575" cy="26" rx="31" ry="18" style="fill:none;stroke:black;"/>
<text text-anchor="middle" x="575" y="31">itin.n3</text>
</g>
<g id="edge8" class="edge"><title>cwm1-&gt;itin.n3</title>
<path style="fill:none;stroke:black;" d="M508,26C517,26 526,26 534,26"/>
<polygon style="fill:black;stroke:black;" points="534,23 544,26 534,28 534,23"/>
</g>
</g></svg>
