<?xml version="1.0" encoding="UTF-8" standalone="no"?>
<!DOCTYPE svg PUBLIC "-//W3C//DTD SVG 1.0//EN"
 "http://www.w3.org/TR/2001/REC-SVG-20010904/DTD/svg10.dtd">
<!-- Generated by dot version 1.8.9 (Wed Oct  2 09:41:21 MDT 2002)
     For user: (connolly) Dan Connolly,,+1-913-491-0501,   Title: world    Pages: 1 -->
<svg width="778px" height="318px"
 xmlns="http://www.w3.org/2000/svg">
<g id="graph0" class="graph" style="font-family:Times-Roman;font-size:14.00;">
<title>world</title>
<g id="node2" class="node"><title>xplanet</title>
<polygon style="fill:none;stroke:black;" points="568,221 516,241 568,261 620,241 568,221"/>
<text text-anchor="middle" x="568" y="246">xplanet</text>
</g>
<g id="node8" class="node"><title>itin-map.png</title>
<ellipse cx="710" cy="241" rx="54" ry="18" style="fill:none;stroke:black;"/>
<text text-anchor="middle" x="710" y="246">itin-map.png</text>
</g>
<g id="edge7" class="edge"><title>xplanet-&gt;itin-map.png</title>
<path style="fill:none;stroke:black;" d="M620,241C629,241 637,241 646,241"/>
<polygon style="fill:black;stroke:black;" points="646,238 656,241 646,243 646,238"/>
</g>
<g id="node3" class="node"><title>itin-markers</title>
<ellipse cx="427" cy="213" rx="53" ry="18" style="fill:none;stroke:black;"/>
<text text-anchor="middle" x="427" y="218">itin-markers</text>
</g>
<g id="edge3" class="edge"><title>itin-markers-&gt;xplanet</title>
<path style="fill:none;stroke:black;" d="M473,222C490,225 508,229 525,232"/>
<polygon style="fill:black;stroke:black;" points="525,229 534,234 524,234 525,229"/>
</g>
<g id="node5" class="node"><title>itin-arcs</title>
<ellipse cx="427" cy="268" rx="38" ry="18" style="fill:none;stroke:black;"/>
<text text-anchor="middle" x="427" y="273">itin-arcs</text>
</g>
<g id="edge5" class="edge"><title>itin-arcs-&gt;xplanet</title>
<path style="fill:none;stroke:black;" d="M463,261C481,258 504,253 523,250"/>
<polygon style="fill:black;stroke:black;" points="523,248 533,248 524,252 523,248"/>
</g>
<g id="node9" class="node"><title>itinKB2</title>
<ellipse cx="118" cy="240" rx="34" ry="18" style="fill:none;stroke:black;"/>
<text text-anchor="middle" x="118" y="245">itin.rdf</text>
</g>
<g id="node10" class="node"><title>cwm3</title>
<polygon style="fill:none;stroke:black;" points="298,191 258,211 298,231 338,211 298,191"/>
<text text-anchor="middle" x="298" y="216">cwm</text>
</g>
<g id="edge9" class="edge"><title>itinKB2-&gt;cwm3</title>
<path style="fill:none;stroke:black;" d="M151,235C181,230 226,222 258,217"/>
<polygon style="fill:black;stroke:black;" points="257,215 267,216 257,220 257,215"/>
</g>
<g id="node11" class="node"><title>cwm4</title>
<polygon style="fill:none;stroke:black;" points="298,249 258,269 298,289 338,269 298,249"/>
<text text-anchor="middle" x="298" y="274">cwm</text>
</g>
<g id="edge15" class="edge"><title>itinKB2-&gt;cwm4</title>
<path style="fill:none;stroke:black;" d="M151,245C181,250 226,258 258,263"/>
<polygon style="fill:black;stroke:black;" points="257,260 267,264 257,265 257,260"/>
</g>
<g id="edge13" class="edge"><title>cwm3-&gt;itin-markers</title>
<path style="fill:none;stroke:black;" d="M337,212C346,212 355,212 364,212"/>
<polygon style="fill:black;stroke:black;" points="364,209 374,212 364,214 364,209"/>
</g>
<g id="edge19" class="edge"><title>cwm4-&gt;itin-arcs</title>
<path style="fill:none;stroke:black;" d="M337,269C350,269 365,268 379,268"/>
<polygon style="fill:black;stroke:black;" points="379,265 389,268 379,270 379,265"/>
</g>
<g id="node13" class="node"><title>itinMarks.n3</title>
<polygon style="fill:none;stroke:black;" points="197,168 72,168 39,204 164,204 197,168"/>
<text text-anchor="middle" x="118" y="191">itinMarks.n3</text>
</g>
<g id="edge11" class="edge"><title>itinMarks.n3-&gt;cwm3</title>
<path style="fill:none;stroke:black;" d="M174,194C202,198 233,202 258,206"/>
<polygon style="fill:black;stroke:black;" points="257,203 267,207 257,208 257,203"/>
</g>
<g id="node17" class="node"><title>itinArcs.n3</title>
<polygon style="fill:none;stroke:black;" points="188,276 77,276 48,312 159,312 188,276"/>
<text text-anchor="middle" x="118" y="299">itinArcs.n3</text>
</g>
<g id="edge17" class="edge"><title>itinArcs.n3-&gt;cwm4</title>
<path style="fill:none;stroke:black;" d="M181,285C207,281 235,278 258,274"/>
<polygon style="fill:black;stroke:black;" points="256,272 266,273 256,277 256,272"/>
</g>
<g id="node21" class="node"><title>cwm2</title>
<polygon style="fill:none;stroke:black;" points="298,58 258,78 298,98 338,78 298,58"/>
<text text-anchor="middle" x="298" y="83">cwm</text>
</g>
<g id="node29" class="node"><title>itinKB1</title>
<ellipse cx="427" cy="78" rx="34" ry="18" style="fill:none;stroke:black;"/>
<text text-anchor="middle" x="427" y="83">itin.rdf</text>
</g>
<g id="edge28" class="edge"><title>cwm2-&gt;itinKB1</title>
<path style="fill:none;stroke:black;" d="M338,78C353,78 369,78 383,78"/>
<polygon style="fill:black;stroke:black;" points="383,75 393,78 383,80 383,75"/>
</g>
<g id="node22" class="node"><title>itin.nt</title>
<ellipse cx="118" cy="24" rx="30" ry="18" style="fill:none;stroke:black;"/>
<text text-anchor="middle" x="118" y="29">itin.nt</text>
</g>
<g id="edge22" class="edge"><title>itin.nt-&gt;cwm2</title>
<path style="fill:none;stroke:black;" d="M146,31C167,36 197,43 222,51 237,56 253,62 267,66"/>
<polygon style="fill:black;stroke:black;" points="267,63 275,69 265,68 267,63"/>
</g>
<g id="node24" class="node"><title>airportLookup.n3</title>
<polygon style="fill:none;stroke:black;" points="221,60 58,60 15,96 178,96 221,60"/>
<text text-anchor="middle" x="118" y="83">airportLookup.n3</text>
</g>
<g id="edge24" class="edge"><title>airportLookup.n3-&gt;cwm2</title>
<path style="fill:none;stroke:black;" d="M200,78C217,78 234,78 249,78"/>
<polygon style="fill:black;stroke:black;" points="248,75 258,78 248,80 248,75"/>
</g>
<g id="node26" class="node"><title>DAML airport data</title>
<ellipse cx="118" cy="132" rx="79" ry="18" style="fill:none;stroke:black;"/>
<text text-anchor="middle" x="118" y="137">DAML airport data</text>
</g>
<g id="edge26" class="edge"><title>DAML airport data-&gt;cwm2</title>
<path style="fill:none;stroke:black;" d="M174,119C189,115 207,110 222,105 237,101 254,95 267,90"/>
<polygon style="fill:black;stroke:black;" points="265,88 275,87 267,93 265,88"/>
</g>
</g></svg>
