<?xml version="1.0" encoding="UTF-8" standalone="no"?>
<svg width="35cm" height="24cm" viewBox="3 1 35 24"><rect style="fill: #ffffff" x="5.85" y="12.65" width="2.6" height="1.4"/><rect style="fill: none; stroke-width: 0.1; stroke: #00ff00" x="5.85" y="12.65" width="2.6" height="1.4"/><text style="fill: #00ff00; text-align: center; font-size: 1" x="7.15" y="13.65">Flight</text><rect style="fill: #ffffff" x="5.85" y="14.05" width="2.6" height="0.4"/><rect style="fill: none; stroke-width: 0.1; stroke: #00ff00" x="5.85" y="14.05" width="2.6" height="0.4"/><rect style="fill: #ffffff" x="5.85" y="14.45" width="2.6" height="0.4"/><rect style="fill: none; stroke-width: 0.1; stroke: #00ff00" x="5.85" y="14.45" width="2.6" height="0.4"/><rect style="fill: #ffffff" x="3.95" y="19.8" width="3.8" height="1.4"/><rect style="fill: none; stroke-width: 0.1; stroke: #00ff00" x="3.95" y="19.8" width="3.8" height="1.4"/><text style="fill: #00ff00; text-align: center; font-size: 1" x="5.85" y="20.8">Economy</text><rect style="fill: #ffffff" x="3.95" y="21.2" width="3.8" height="0.4"/><rect style="fill: none; stroke-width: 0.1; stroke: #00ff00" x="3.95" y="21.2" width="3.8" height="0.4"/><rect style="fill: #ffffff" x="3.95" y="21.6" width="3.8" height="0.4"/><rect style="fill: none; stroke-width: 0.1; stroke: #00ff00" x="3.95" y="21.6" width="3.8" height="0.4"/><polyline style="fill: none; stroke-width: 0.1; stroke: #000000" points="7.15,15.7618 7.15,17.1 5.85,17.1 5.85,19.8 "/><polyline style="fill: #ffffff" points="7.55,15.7618 7.15,14.9618 6.75,15.7618 "/><polyline style="fill: none; stroke-width: 0.1; stroke: #000000" points="7.55,15.7618 7.15,14.9618 6.75,15.7618 "/><rect style="fill: #ffffff" x="7.95" y="7.75" width="5.4" height="1.4"/><rect style="fill: none; stroke-width: 0.1; stroke: #ff0000" x="7.95" y="7.75" width="5.4" height="1.4"/><text style="fill: #ff0000; text-align: center; font-size: 1" x="10.65" y="8.75">Translocation</text><rect style="fill: #ffffff" x="7.95" y="9.15" width="5.4" height="0.4"/><rect style="fill: none; stroke-width: 0.1; stroke: #ff0000" x="7.95" y="9.15" width="5.4" height="0.4"/><rect style="fill: #ffffff" x="7.95" y="9.55" width="5.4" height="0.4"/><rect style="fill: none; stroke-width: 0.1; stroke: #ff0000" x="7.95" y="9.55" width="5.4" height="0.4"/><polyline style="fill: none; stroke-width: 0.1; stroke: #000000" points="10.65,10.8618 10.65,12 7.15,12 7.15,12.65 "/><polyline style="fill: #ffffff" points="11.05,10.8618 10.65,10.0618 10.25,10.8618 "/><polyline style="fill: none; stroke-width: 0.1; stroke: #000000" points="11.05,10.8618 10.65,10.0618 10.25,10.8618 "/><rect style="fill: #ffffff" x="30.5" y="11.8" width="6.45" height="1.4"/><rect style="fill: none; stroke-width: 0.1; stroke: #ff0000" x="30.5" y="11.8" width="6.45" height="1.4"/><text style="fill: #ff0000; text-align: center; font-size: 1" x="33.725" y="12.8">PartiallyTangible</text><rect style="fill: #ffffff" x="30.5" y="13.2" width="6.45" height="0.4"/><rect style="fill: none; stroke-width: 0.1; stroke: #ff0000" x="30.5" y="13.2" width="6.45" height="0.4"/><rect style="fill: #ffffff" x="30.5" y="13.6" width="6.45" height="0.4"/><rect style="fill: none; stroke-width: 0.1; stroke: #ff0000" x="30.5" y="13.6" width="6.45" height="0.4"/><polyline style="fill: none; stroke-width: 0.1; stroke: #000000" points="13.35,8.45 13.35,6 30.5,6 30.5,11.8 "/><text style="fill: #000000; text-align: center; font-size: 1" x="21.925" y="6">fromLocation</text><polyline style="fill: #000000" points="24.125,6 24.125,5.6 24.525,5.8 "/><rect style="fill: #ffffff" x="35.8" y="5.6" width="2.25" height="1.4"/><rect style="fill: none; stroke-width: 0.1; stroke: #ff0000" x="35.8" y="5.6" width="2.25" height="1.4"/><text style="fill: #ff0000; text-align: center; font-size: 1" x="36.925" y="6.6">Date</text><rect style="fill: #ffffff" x="35.8" y="7" width="2.25" height="0.4"/><rect style="fill: none; stroke-width: 0.1; stroke: #ff0000" x="35.8" y="7" width="2.25" height="0.4"/><rect style="fill: #ffffff" x="35.8" y="7.4" width="2.25" height="0.4"/><rect style="fill: none; stroke-width: 0.1; stroke: #ff0000" x="35.8" y="7.4" width="2.25" height="0.4"/><polyline style="fill: none; stroke-width: 0.1; stroke: #000000" points="20.3,2.15 20.3,3.2 36.925,3.2 36.925,5.6 "/><text style="fill: #000000; text-align: center; font-size: 1" x="28.6125" y="3.2">startingDate</text><polyline style="fill: #000000" points="30.8125,3.2 30.8125,2.8 31.2125,3 "/><polyline style="fill: none; stroke-width: 0.1; stroke: #000000" points="20.3,2.15 20.3,4 36.925,4 36.925,5.6 "/><text style="fill: #000000; text-align: center; font-size: 1" x="28.6125" y="4">endingDate</text><polyline style="fill: #000000" points="30.4625,4 30.4625,3.6 30.8625,3.8 "/><polyline style="fill: none; stroke-width: 0.1; stroke: #000000" points="13.35,8.45 13.35,7 30.5,7 30.5,11.8 "/><text style="fill: #000000; text-align: center; font-size: 1" x="21.925" y="7">toLocation</text><polyline style="fill: #000000" points="23.775,7 23.775,6.6 24.175,6.8 "/><rect style="fill: #ffffff" x="14.35" y="1.45" width="5.95" height="1.4"/><rect style="fill: none; stroke-width: 0.1; stroke: #ff0000" x="14.35" y="1.45" width="5.95" height="1.4"/><text style="fill: #ff0000; text-align: center; font-size: 1" x="17.325" y="2.45">TemporalThing</text><rect style="fill: #ffffff" x="14.35" y="2.85" width="5.95" height="0.4"/><rect style="fill: none; stroke-width: 0.1; stroke: #ff0000" x="14.35" y="2.85" width="5.95" height="0.4"/><rect style="fill: #ffffff" x="14.35" y="3.25" width="5.95" height="0.4"/><rect style="fill: none; stroke-width: 0.1; stroke: #ff0000" x="14.35" y="3.25" width="5.95" height="0.4"/><polyline style="fill: none; stroke-width: 0.1; stroke: #000000" points="17.325,4.5618 17.325,5.2 10.65,5.2 10.65,7.75 "/><polyline style="fill: #ffffff" points="17.725,4.5618 17.325,3.7618 16.925,4.5618 "/><polyline style="fill: none; stroke-width: 0.1; stroke: #000000" points="17.725,4.5618 17.325,3.7618 16.925,4.5618 "/><polyline style="fill: none; stroke-width: 0.1; stroke: #000000" points="8.45,13.35 8.45,13.15 17.45,13.15 17.45,14.4 "/><text style="fill: #000000; text-align: center; font-size: 1" x="12.95" y="13.15">arrivalTime</text><polyline style="fill: #000000" points="14.975,13.15 14.975,12.75 15.375,12.95 "/><rect style="fill: #ffffff" x="17.45" y="13.7" width="7.25" height="1.4"/><rect style="fill: none; stroke-width: 0.1; stroke: #00ff00" x="17.45" y="13.7" width="7.25" height="1.4"/><text style="fill: #00ff00; text-align: center; font-size: 1" x="21.075" y="14.7">TimeString</text><rect style="fill: #ffffff" x="17.45" y="15.1" width="7.25" height="1"/><rect style="fill: none; stroke-width: 0.1; stroke: #00ff00" x="17.45" y="15.1" width="7.25" height="1"/><text style="fill: #00ff00; text-align: left; font-size: 1" x="17.6" y="15.75">+pattern: \d\d:\d\d</text><rect style="fill: #ffffff" x="17.45" y="16.1" width="7.25" height="0.4"/><rect style="fill: none; stroke-width: 0.1; stroke: #00ff00" x="17.45" y="16.1" width="7.25" height="0.4"/><rect style="fill: #ffffff" x="14.05" y="22.6" width="6.1" height="1.4"/><rect style="fill: none; stroke-width: 0.1; stroke: #ff0000" x="14.05" y="22.6" width="6.1" height="1.4"/><text style="fill: #ff0000; text-align: center; font-size: 1" x="17.1" y="23.6">AirlineCompany</text><rect style="fill: #ffffff" x="14.05" y="24" width="6.1" height="0.4"/><rect style="fill: none; stroke-width: 0.1; stroke: #ff0000" x="14.05" y="24" width="6.1" height="0.4"/><rect style="fill: #ffffff" x="14.05" y="24.4" width="6.1" height="0.4"/><rect style="fill: none; stroke-width: 0.1; stroke: #ff0000" x="14.05" y="24.4" width="6.1" height="0.4"/><polyline style="fill: none; stroke-width: 0.1; stroke: #000000" points="8.45,13.35 8.45,17.4 14.05,17.4 14.05,23.3 "/><text style="fill: #000000; text-align: center; font-size: 1" x="11.25" y="17.4">carrier</text><polyline style="fill: #000000" points="12.575,17.4 12.575,17 12.975,17.2 "/><polyline style="fill: none; stroke-width: 0.1; stroke: #000000" points="8.45,13.35 8.45,15.05 17.45,15.05 17.45,14.4 "/><text style="fill: #000000; text-align: center; font-size: 1" x="12.95" y="15.05">departureTime</text><polyline style="fill: #000000" points="15.325,15.05 15.325,14.65 15.725,14.85 "/><rect style="fill: #ffffff" x="24.75" y="8.35" width="2.85" height="1.4"/><rect style="fill: none; stroke-width: 0.1; stroke: #0000ff" x="24.75" y="8.35" width="2.85" height="1.4"/><text style="fill: #0000ff; text-align: center; font-size: 1" x="26.175" y="9.35">Literal</text><rect style="fill: #ffffff" x="24.75" y="9.75" width="2.85" height="0.4"/><rect style="fill: none; stroke-width: 0.1; stroke: #0000ff" x="24.75" y="9.75" width="2.85" height="0.4"/><rect style="fill: #ffffff" x="24.75" y="10.15" width="2.85" height="0.4"/><rect style="fill: none; stroke-width: 0.1; stroke: #0000ff" x="24.75" y="10.15" width="2.85" height="0.4"/><polyline style="fill: none; stroke-width: 0.1; stroke: #000000" points="26.175,11.4618 26.175,12.55 21.075,12.55 21.075,13.7 "/><polyline style="fill: #ffffff" points="26.575,11.4618 26.175,10.6618 25.775,11.4618 "/><polyline style="fill: none; stroke-width: 0.1; stroke: #000000" points="26.575,11.4618 26.175,10.6618 25.775,11.4618 "/><polyline style="fill: none; stroke-width: 0.1; stroke: #000000" points="18.325,18.15 18.325,17.5 27.6,17.5 27.6,10.55 "/><text style="fill: #000000; text-align: center; font-size: 1" x="22.9625" y="17.5">nameOfAgent</text><polyline style="fill: #000000" points="24.9875,17.5 24.9875,17.1 25.3875,17.3 "/><rect style="fill: #ffffff" x="17" y="18.15" width="2.65" height="1.4"/><rect style="fill: none; stroke-width: 0.1; stroke: #ff0000" x="17" y="18.15" width="2.65" height="1.4"/><text style="fill: #ff0000; text-align: center; font-size: 1" x="18.325" y="19.15">Agent</text><rect style="fill: #ffffff" x="17" y="19.55" width="2.65" height="0.4"/><rect style="fill: none; stroke-width: 0.1; stroke: #ff0000" x="17" y="19.55" width="2.65" height="0.4"/><rect style="fill: #ffffff" x="17" y="19.95" width="2.65" height="0.4"/><rect style="fill: none; stroke-width: 0.1; stroke: #ff0000" x="17" y="19.95" width="2.65" height="0.4"/><polyline style="fill: none; stroke-width: 0.1; stroke: #000000" points="18.325,21.2618 18.325,21.3 17.1,21.3 17.1,22.6 "/><polyline style="fill: #ffffff" points="18.725,21.2618 18.325,20.4618 17.925,21.2618 "/><polyline style="fill: none; stroke-width: 0.1; stroke: #000000" points="18.725,21.2618 18.325,20.4618 17.925,21.2618 "/><rect style="fill: #ffffff" x="29.25" y="22.15" width="6.15" height="1.4"/><rect style="fill: none; stroke-width: 0.1; stroke: #ff0000" x="29.25" y="22.15" width="6.15" height="1.4"/><text style="fill: #ff0000; text-align: center; font-size: 1" x="32.325" y="23.15">Airport-Physical</text><rect style="fill: #ffffff" x="29.25" y="23.55" width="6.15" height="0.4"/><rect style="fill: none; stroke-width: 0.1; stroke: #ff0000" x="29.25" y="23.55" width="6.15" height="0.4"/><rect style="fill: #ffffff" x="29.25" y="23.95" width="6.15" height="0.4"/><rect style="fill: none; stroke-width: 0.1; stroke: #ff0000" x="29.25" y="23.95" width="6.15" height="0.4"/><polyline style="fill: none; stroke-width: 0.1; stroke: #000000" points="33.725,14.9118 33.725,18.65 32.325,18.65 32.325,22.15 "/><polyline style="fill: #ffffff" points="34.125,14.9118 33.725,14.1118 33.325,14.9118 "/><polyline style="fill: none; stroke-width: 0.1; stroke: #000000" points="34.125,14.9118 33.725,14.1118 33.325,14.9118 "/><rect style="fill: #ffffff" x="5.2" y="3.3" width="2.7" height="1.4"/><rect style="fill: none; stroke-width: 0.1; stroke: #ff0000" x="5.2" y="3.3" width="2.7" height="1.4"/><text style="fill: #ff0000; text-align: center; font-size: 1" x="6.55" y="4.3">Event</text><rect style="fill: #ffffff" x="5.2" y="4.7" width="2.7" height="0.4"/><rect style="fill: none; stroke-width: 0.1; stroke: #ff0000" x="5.2" y="4.7" width="2.7" height="0.4"/><rect style="fill: #ffffff" x="5.2" y="5.1" width="2.7" height="0.4"/><rect style="fill: none; stroke-width: 0.1; stroke: #ff0000" x="5.2" y="5.1" width="2.7" height="0.4"/><polyline style="fill: none; stroke-width: 0.1; stroke: #000000" points="7.9,4 7.9,2.15 6.55,2.15 6.55,3.3 "/><text style="fill: #000000; text-align: center; font-size: 1" x="7.225" y="2.15">subEvents</text><polyline style="fill: #000000" points="8.9,2.15 8.9,1.75 9.3,1.95 "/><polyline style="fill: none; stroke-width: 0.1; stroke: #000000" points="6.55,6.4118 6.55,6.7 10.65,6.7 10.65,7.75 "/><polyline style="fill: #ffffff" points="6.95,6.4118 6.55,5.6118 6.15,6.4118 "/><polyline style="fill: none; stroke-width: 0.1; stroke: #000000" points="6.95,6.4118 6.55,5.6118 6.15,6.4118 "/><polyline style="fill: none; stroke-width: 0.1; stroke: #000000" points="35.8,6.3 35.8,8.9 27.6,8.9 27.6,9.05 "/><text style="fill: #000000; text-align: center; font-size: 1" x="31.7" y="8.9">dt:date</text><polyline style="fill: #000000" points="30.275,8.9 30.275,8.5 29.875,8.7 "/><text style="fill: #000000; text-align: left; font-size: 1" x="35.8" y="6.3">1..1</text><text style="fill: #000000; text-align: left; font-size: 1" x="27.6" y="8.25">1..*</text><polyline style="fill: none; stroke-width: 0.1; stroke: #000000" points="8.45,13.35 8.45,12.3 24.75,12.3 24.75,9.05 "/><text style="fill: #000000; text-align: center; font-size: 1" x="16.6" y="12.3">flightNumber</text><polyline style="fill: #000000" points="18.8,12.3 18.8,11.9 19.2,12.1 "/></svg>
