<?xml version="1.0" encoding="UTF-8" standalone="no"?>
<!DOCTYPE svg PUBLIC "-//W3C//DTD SVG 1.0//EN"
 "http://www.w3.org/TR/2001/REC-SVG-20010904/DTD/svg10.dtd">
<!-- Generated by dot version 1.8.9 (Wed Oct  2 09:41:21 MDT 2002)
     For user: (connolly) Dan Connolly,,+1-913-491-0501,   Title: world    Pages: 1 -->
<svg width="720px" height="102px"
 xmlns="http://www.w3.org/2000/svg">
<g id="graph0" class="graph" style="font-family:Times-Roman;font-size:14.00;">
<title>world</title>
<g id="node1" class="node"><title>itin.nt</title>
<ellipse cx="62" cy="24" rx="30" ry="18" style="fill:none;stroke:black;"/>
<text text-anchor="middle" x="62" y="29">itin.nt</text>
</g>
<g id="node3" class="node"><title>cwm2</title>
<polygon style="fill:none;stroke:black;" points="186,31 146,51 186,71 226,51 186,31"/>
<text text-anchor="middle" x="186" y="56">cwm</text>
</g>
<g id="edge2" class="edge"><title>itin.nt-&gt;cwm2</title>
<path style="fill:none;stroke:black;" d="M90,30C108,33 130,38 149,43"/>
<polygon style="fill:black;stroke:black;" points="149,40 158,45 148,45 149,40"/>
</g>
<g id="node7" class="node"><title>itin-pda.rdf</title>
<ellipse cx="312" cy="51" rx="49" ry="18" style="fill:none;stroke:black;"/>
<text text-anchor="middle" x="312" y="56">itin-pda.rdf</text>
</g>
<g id="edge6" class="edge"><title>cwm2-&gt;itin-pda.rdf</title>
<path style="fill:none;stroke:black;" d="M226,51C235,51 243,51 252,51"/>
<polygon style="fill:black;stroke:black;" points="252,48 262,51 252,53 252,48"/>
</g>
<g id="node4" class="node"><title>itin2pda.n3</title>
<ellipse cx="62" cy="78" rx="48" ry="18" style="fill:none;stroke:black;"/>
<text text-anchor="middle" x="62" y="83">itin2pda.n3</text>
</g>
<g id="edge4" class="edge"><title>itin2pda.n3-&gt;cwm2</title>
<path style="fill:none;stroke:black;" d="M104,69C119,66 135,62 149,59"/>
<polygon style="fill:black;stroke:black;" points="148,57 158,57 149,62 148,57"/>
</g>
<g id="node9" class="node"><title>pdkb.pl</title>
<polygon style="fill:none;stroke:black;" points="505,31 398,51 505,71 612,51 505,31"/>
<text text-anchor="middle" x="505" y="56">palmagent/pdkb.pl</text>
</g>
<g id="edge8" class="edge"><title>itin-pda.rdf-&gt;pdkb.pl</title>
<path style="fill:none;stroke:black;" d="M362,51C370,51 378,51 387,51"/>
<polygon style="fill:black;stroke:black;" points="388,48 398,51 388,53 388,48"/>
</g>
<g id="node11" class="node"><title>PDA</title>
<ellipse cx="677" cy="51" rx="28" ry="18" style="fill:none;stroke:black;"/>
<text text-anchor="middle" x="677" y="56">PDA</text>
</g>
<g id="edge10" class="edge"><title>pdkb.pl-&gt;PDA</title>
<path style="fill:none;stroke:black;" d="M612,51C621,51 631,51 639,51"/>
<polygon style="fill:black;stroke:black;" points="638,48 648,51 638,53 638,48"/>
</g>
</g></svg>
