<!-- Generated by dot version 1.7.14 (Tue Jan  8 11:28:28 EST 2002)
     For user: (sandro) Sandro Hawke   Title: anon    Pages: 1-->
<svg width="494px" height="155px" xmlns='http://www.w3.org/2000/svg' xmlns:xlink='http://www.w3.org/1999/xlink'>
<g id="anon" class="graph">
<g id="pat" class="node">
<ellipse cx="46" cy="79" rx="27" ry="18" style="fill:none;stroke:black"/>
<text text-anchor="middle" x="46" y="84" style="font-family:Times;font-size:14.00">:pat</text>
</g>
<g id="bio:Human" class="node">
<ellipse cx="226" cy="23" rx="49" ry="18" style="fill:none;stroke:black"/>
<text text-anchor="middle" x="226" y="28" style="font-family:Times;font-size:14.00">bio:Human</text>
</g>
<g id="pat-&gt;bio:Human" class="edge">
<g style="fill:none;stroke:black"><path d="M67 68C76 63 86 57 91 55 118 45 148 38 173 33"/></g>
<polygon style="fill:black;stroke:black" points="173,36 182,31 172,31 173,36"/>
<text text-anchor="middle" x="125" y="32" style="font-family:Times;font-size:14.00">rdf:type</text>
</g>
<g id="rover" class="node">
<ellipse cx="226" cy="78" rx="18" ry="18" style="fill:none;stroke:black"/>
</g>
<g id="pat-&gt;rover" class="edge">
<g style="fill:none;stroke:black"><path d="M73 79C108 79 167 78 201 78"/></g>
<polygon style="fill:black;stroke:black" points="198,80 208,78 198,75 198,80"/>
<text text-anchor="middle" x="125" y="74" style="font-family:Times;font-size:14.00">per:pet</text>
</g>
<g id=""Pat Smith"" class="node">
<polygon style="fill:none;stroke:black" points="474,116 388,116 388,152 474,152 474,116"/>
<text text-anchor="middle" x="431" y="139" style="font-family:Times;font-size:14.00">"Pat Smith"</text>
</g>
<g id="pat-&gt;"Pat Smith"" class="edge">
<g style="fill:none;stroke:black"><path d="M68 89C94 100 138 118 177 125 187 127 306 131 377 133"/></g>
<polygon style="fill:black;stroke:black" points="377,135 387,133 377,130 377,135"/>
<text text-anchor="middle" x="226" y="120" style="font-family:Times;font-size:14.00">per:name</text>
</g>
<g id="bio:Dog" class="node">
<ellipse cx="431" cy="23" rx="37" ry="18" style="fill:none;stroke:black"/>
<text text-anchor="middle" x="431" y="28" style="font-family:Times;font-size:14.00">bio:Dog</text>
</g>
<g id="rover-&gt;bio:Dog" class="edge">
<g style="fill:none;stroke:black"><path d="M243 72C257 67 276 60 293 55 312 50 356 40 390 32"/></g>
<polygon style="fill:black;stroke:black" points="387,35 397,31 387,30 387,35"/>
<text text-anchor="middle" x="331" y="33" style="font-family:Times;font-size:14.00">rdf:type</text>
</g>
<g id=""Rover"" class="node">
<polygon style="fill:none;stroke:black" points="464,61 398,61 398,97 464,97 464,61"/>
<text text-anchor="middle" x="431" y="84" style="font-family:Times;font-size:14.00">"Rover"</text>
</g>
<g id="rover-&gt;"Rover"" class="edge">
<g style="fill:none;stroke:black"><path d="M244 78C276 78 343 78 388 79"/></g>
<polygon style="fill:black;stroke:black" points="387,81 397,79 387,76 387,81"/>
<text text-anchor="middle" x="331" y="74" style="font-family:Times;font-size:14.00">per:name</text>
</g>
</g>
</svg>
