<!-- Generated by dot version 1.7.14 (Tue Jan  8 11:28:28 EST 2002)
     For user: (sandro) Sandro Hawke   Title: anon    Pages: 1-->
<svg width="520px" height="211px" xmlns='http://www.w3.org/2000/svg' xmlns:xlink='http://www.w3.org/1999/xlink'>
<g id="anon" class="graph">
<g id="pat" class="node">
<ellipse cx="46" cy="109" rx="27" ry="18" style="fill:none;stroke:black"/>
<text text-anchor="middle" x="46" y="114" style="font-family:Times;font-size:14.00">:pat</text>
</g>
<g id="bio:Human" class="node">
<ellipse cx="226" cy="24" rx="49" ry="18" style="fill:none;stroke:black"/>
<text text-anchor="middle" x="226" y="29" style="font-family:Times;font-size:14.00">bio:Human</text>
</g>
<g id="pat-&gt;bio:Human" class="edge">
<g style="fill:none;stroke:black"><path d="M58 93C68 82 75 77 91 67 117 53 149 42 175 35"/></g>
<polygon style="fill:black;stroke:black" points="174,38 183,33 173,33 174,38"/>
<text text-anchor="middle" x="125" y="37" style="font-family:Times;font-size:14.00">rdf:type</text>
</g>
<g id="rover" class="node">
<ellipse cx="226" cy="78" rx="18" ry="18" style="fill:none;stroke:black"/>
</g>
<g id="pat-&gt;rover" class="edge">
<g style="fill:none;stroke:black"><path d="M72 104C107 98 167 88 201 82"/></g>
<polygon style="fill:black;stroke:black" points="198,85 208,81 198,80 198,85"/>
<text text-anchor="middle" x="125" y="86" style="font-family:Times;font-size:14.00">per:pet</text>
</g>
<g id=""Pat Smith"" class="node">
<polygon style="fill:none;stroke:black" points="487,116 401,116 401,152 487,152 487,116"/>
<text text-anchor="middle" x="444" y="139" style="font-family:Times;font-size:14.00">"Pat Smith"</text>
</g>
<g id="pat-&gt;"Pat Smith"" class="edge">
<g style="fill:none;stroke:black"><path d="M72 113C99 117 141 123 177 125 252 132 339 133 393 134"/></g>
<polygon style="fill:black;stroke:black" points="390,136 400,134 390,131 390,136"/>
<text text-anchor="middle" x="226" y="120" style="font-family:Times;font-size:14.00">per:name</text>
</g>
<g id=""Patrick Smith"" class="node">
<polygon style="fill:none;stroke:black" points="501,172 387,172 387,208 501,208 501,172"/>
<text text-anchor="middle" x="444" y="195" style="font-family:Times;font-size:14.00">"Patrick Smith"</text>
</g>
<g id="pat-&gt;"Patrick Smith"" class="edge">
<g style="fill:none;stroke:black"><path d="M65 122C72 125 80 125 91 129 129 143 138 148 177 156 246 171 325 180 380 185"/></g>
<polygon style="fill:black;stroke:black" points="377,187 387,186 377,182 377,187"/>
<text text-anchor="middle" x="226" y="151" style="font-family:Times;font-size:14.00">per:name</text>
</g>
<g id="bio:Dog" class="node">
<ellipse cx="444" cy="23" rx="37" ry="18" style="fill:none;stroke:black"/>
<text text-anchor="middle" x="444" y="28" style="font-family:Times;font-size:14.00">bio:Dog</text>
</g>
<g id="rover-&gt;bio:Dog" class="edge">
<g style="fill:none;stroke:black"><path d="M243 72C262 66 288 57 293 55 329 45 370 37 400 31"/></g>
<polygon style="fill:black;stroke:black" points="400,34 409,29 399,29 400,34"/>
<text text-anchor="middle" x="331" y="33" style="font-family:Times;font-size:14.00">rdf:type</text>
</g>
<g id=""Rover"" class="node">
<polygon style="fill:none;stroke:black" points="477,61 411,61 411,97 477,97 477,61"/>
<text text-anchor="middle" x="444" y="84" style="font-family:Times;font-size:14.00">"Rover"</text>
</g>
<g id="rover-&gt;"Rover"" class="edge">
<g style="fill:none;stroke:black"><path d="M244 78C279 78 353 78 400 79"/></g>
<polygon style="fill:black;stroke:black" points="400,81 410,79 400,76 400,81"/>
<text text-anchor="middle" x="331" y="74" style="font-family:Times;font-size:14.00">per:name</text>
</g>
</g>
</svg>
