<!-- Generated by dot version gviz1.7 (Tue Oct 31 14:40:33 EST 2000)
     For: Bill Gates
     Title: my__Graph
     Pages: 1
-->
<svg width="945pt" height="788pt" >
<text x="394" y="820" style="font-family:Times;font-size:14.00" >W3C Technology Roadmap</text>
<text x="580" y="794" style="font-family:Times;font-size:14.00" >done</text>
<ellipse  cx="764" cy="340" rx="56" ry="34" style="fill:none;stroke:black" />
<text x="737" y="328" style="font-family:Times;font-size:14.00" >10 Heavy</text>
<text x="731" y="344" style="font-family:Times;font-size:14.00" >search done</text>
<text x="724" y="360" style="font-family:Times;font-size:14.00" >too many vars</text>
<ellipse  cx="764" cy="460" rx="53" ry="34" style="fill:none;stroke:black" />
<text x="737" y="448" style="font-family:Times;font-size:14.00" >15 Heavy</text>
<text x="731" y="464" style="font-family:Times;font-size:14.00" >search done</text>
<text x="728" y="480" style="font-family:Times;font-size:14.00" >Ready to run</text>
<g  style="fill:none;stroke:blue"><path d="M764 374C764 387 764 402 764 416"/></g>
<polygon  style="fill:blue" points="762,416 764,426 767,416 762,416 "/>
<text x="771" y="404" style="font-family:Times;font-size:14.00" >bind</text>
<ellipse  cx="529" cy="70" rx="112" ry="34" style="fill:none;stroke:black" />
<text x="502" y="58" style="font-family:Times;font-size:14.00" >14 Heavy</text>
<text x="496" y="74" style="font-family:Times;font-size:14.00" >search done</text>
<text x="434" y="90" style="font-family:Times;font-size:14.00" >no vars except maybe in forumlae</text>
<g  style="fill:none;stroke:green"><path d="M440 91C417 96 394 101 376 104 257 130 18 58 18 179 18 179 18 179 18 700 18 742 436 778 560 787"/></g>
<polygon  style="fill:green" points="557,789 567,788 557,784 557,789 "/>
<text x="25" y="464" style="font-family:Times;font-size:14.00" >run builtin</text>
<g  style="fill:none;stroke:black"><path d="M558 103C602 154 686 250 732 303"/></g>
<polygon  style="fill:black" points="730,304 738,310 733,301 730,304 "/>
<ellipse  cx="850" cy="254" rx="95" ry="34" style="fill:none;stroke:black" />
<text x="827" y="242" style="font-family:Times;font-size:14.00" >9 Heavy</text>
<text x="817" y="258" style="font-family:Times;font-size:14.00" >search done</text>
<text x="772" y="274" style="font-family:Times;font-size:14.00" >waiting for vars in formulae</text>
<g  style="fill:none;stroke:black"><path d="M624 88C661 97 700 108 725 122 756 140 794 183 820 214"/></g>
<polygon  style="fill:black" points="817,214 825,221 821,211 817,214 "/>
<ellipse  cx="337" cy="179" rx="49" ry="22" style="fill:none;stroke:black" />
<text x="330" y="175" style="font-family:Times;font-size:14.00" >99</text>
<text x="301" y="191" style="font-family:Times;font-size:14.00" >Unexamined</text>
<g  style="fill:none;stroke:blue"><path d="M455 96C433 104 411 113 395 122 385 128 373 139 362 151"/></g>
<polygon  style="fill:blue" points="360,149 355,158 364,153 360,149 "/>
<text x="402" y="134" style="font-family:Times;font-size:14.00" >bind</text>
<g  style="fill:none;stroke:green"><path d="M759 494C748 556 723 687 689 754 680 771 654 780 631 785"/></g>
<polygon  style="fill:green" points="630,783 621,787 631,787 630,783 "/>
<text x="737" y="644" style="font-family:Times;font-size:14.00" >run builtin</text>
<g  style="fill:none;stroke:black"><path d="M796 376C802 383 808 389 810 392 817 403 807 419 795 432"/></g>
<polygon  style="fill:black" points="799,376 791,370 795,379 799,376 "/>
<ellipse  cx="167" cy="460" rx="50" ry="34" style="fill:none;stroke:black" />
<text x="143" y="448" style="font-family:Times;font-size:14.00" >20 Light</text>
<text x="144" y="464" style="font-family:Times;font-size:14.00" >cant run</text>
<text x="134" y="480" style="font-family:Times;font-size:14.00" >search done</text>
<g  style="fill:none;stroke:blue"><path d="M285 194C267 201 247 210 236 220 213 242 206 276 197 306 188 338 178 391 173 426"/></g>
<polygon  style="fill:blue" points="286,196 295,191 285,191 286,196 "/>
<text x="204" y="344" style="font-family:Times;font-size:14.00" >bind</text>
<ellipse  cx="434" cy="700" rx="53" ry="34" style="fill:none;stroke:black" />
<text x="418" y="688" style="font-family:Times;font-size:14.00" >5 List</text>
<text x="401" y="704" style="font-family:Times;font-size:14.00" >search done</text>
<text x="397" y="720" style="font-family:Times;font-size:14.00" >list all bound</text>
<g  style="fill:none;stroke:black"><path d="M474 722C500 737 533 756 559 770"/></g>
<polygon  style="fill:black" points="557,772 567,775 560,768 557,772 "/>
<ellipse  cx="98" cy="340" rx="52" ry="34" style="fill:none;stroke:black" />
<text x="74" y="328" style="font-family:Times;font-size:14.00" >50 Light</text>
<text x="63" y="344" style="font-family:Times;font-size:14.00" >not searched</text>
<text x="75" y="360" style="font-family:Times;font-size:14.00" >cant run</text>
<g  style="fill:none;stroke:red"><path d="M106 374C110 386 114 400 119 408 122 413 127 420 133 427"/></g>
<polygon  style="fill:red" points="129,427 138,432 133,423 129,427 "/>
<text x="126" y="404" style="font-family:Times;font-size:14.00" >search</text>
<g  style="fill:none;stroke:blue"><path d="M281 183C233 187 165 196 130 220 109 235 102 276 99 306"/></g>
<polygon  style="fill:blue" points="278,186 288,182 278,181 278,186 "/>
<text x="137" y="258" style="font-family:Times;font-size:14.00" >bind</text>
<ellipse  cx="337" cy="460" rx="50" ry="22" style="fill:none;stroke:black" />
<text x="317" y="456" style="font-family:Times;font-size:14.00" >55 List</text>
<text x="300" y="472" style="font-family:Times;font-size:14.00" >Not searched</text>
<g  style="fill:none;stroke:black"><path d="M509 113C478 178 418 302 383 374 375 392 360 419 349 438"/></g>
<polygon  style="fill:black" points="511,114 513,104 507,112 511,114 "/>
<g  style="fill:none;stroke:black"><path d="M332 483C329 497 325 512 325 512 325 518 323 524 325 528 338 558 350 588 367 614 376 628 390 646 403 662"/></g>
<polygon  style="fill:black" points="401,663 409,670 405,660 401,663 "/>
<ellipse  cx="434" cy="580" rx="55" ry="34" style="fill:none;stroke:black" />
<text x="418" y="568" style="font-family:Times;font-size:14.00" >7 List</text>
<text x="401" y="584" style="font-family:Times;font-size:14.00" >search done</text>
<text x="396" y="600" style="font-family:Times;font-size:14.00" >unbound vars</text>
<g  style="fill:none;stroke:black"><path d="M361 480C373 490 386 502 394 512 399 519 406 529 412 538"/></g>
<polygon  style="fill:black" points="410,539 417,547 414,537 410,539 "/>
<g  style="fill:none;stroke:red"><path d="M332 483C330 498 329 519 337 528 346 539 362 549 378 557"/></g>
<polygon  style="fill:red" points="377,559 387,562 379,555 377,559 "/>
<text x="344" y="524" style="font-family:Times;font-size:14.00" >search</text>
<g  style="fill:none;stroke:blue"><path d="M337 209C337 265 337 387 337 437"/></g>
<polygon  style="fill:blue" points="340,212 337,202 335,212 340,212 "/>
<text x="344" y="344" style="font-family:Times;font-size:14.00" >bind</text>
<ellipse  cx="537" cy="340" rx="52" ry="34" style="fill:none;stroke:black" />
<text x="530" y="328" style="font-family:Times;font-size:14.00" >60</text>
<text x="512" y="344" style="font-family:Times;font-size:14.00" >Not light</text>
<text x="502" y="360" style="font-family:Times;font-size:14.00" >not searched</text>
<g  style="fill:none;stroke:red"><path d="M558 371C574 397 593 434 594 460 594 460 594 460 594 700 593 716 594 743 594 763"/></g>
<polygon  style="fill:red" points="592,762 594,772 597,762 592,762 "/>
<text x="601" y="584" style="font-family:Times;font-size:14.00" >search</text>
<g  style="fill:none;stroke:black"><path d="M533 111C537 160 542 240 541 288 541 293 540 299 540 306"/></g>
<polygon  style="fill:black" points="536,114 532,104 531,114 536,114 "/>
<g  style="fill:none;stroke:red"><path d="M578 361C616 382 674 412 715 433"/></g>
<polygon  style="fill:red" points="713,435 723,438 716,431 713,435 "/>
<text x="672" y="404" style="font-family:Times;font-size:14.00" >search</text>
<g  style="fill:none;stroke:black"><path d="M536 374C535 391 534 408 534 408 524 477 517 547 501 614 498 629 485 649 471 664"/></g>
<polygon  style="fill:black" points="469,663 464,672 472,666 469,663 "/>
<g  style="fill:none;stroke:black"><path d="M498 363C463 384 410 416 374 438"/></g>
<polygon  style="fill:black" points="374,435 367,442 377,439 374,435 "/>
<g  style="fill:none;stroke:black"><path d="M526 373C512 415 488 487 470 528 468 532 466 536 464 540"/></g>
<polygon  style="fill:black" points="461,539 458,549 466,542 461,539 "/>
<g  style="fill:none;stroke:blue"><path d="M383 195C401 202 419 211 430 220 456 241 490 282 513 310"/></g>
<polygon  style="fill:blue" points="387,194 377,193 386,199 387,194 "/>
<text x="502" y="258" style="font-family:Times;font-size:14.00" >bind</text>
<g  style="fill:none;stroke:blue"><path d="M434 614C434 627 434 642 434 656"/></g>
<polygon  style="fill:blue" points="432,656 434,666 437,656 432,656 "/>
<text x="441" y="644" style="font-family:Times;font-size:14.00" >bind</text>
<g  style="fill:none;stroke:blue"><path d="M848 288C846 323 840 378 828 408 825 415 818 423 810 430"/></g>
<polygon  style="fill:blue" points="809,428 802,436 812,432 809,428 "/>
<text x="853" y="344" style="font-family:Times;font-size:14.00" >bind</text>
<g  style="fill:none;stroke:green"><path d="M385 184C432 190 502 201 541 220 572 236 589 273 601 306 634 405 671 512 651 614 643 657 618 727 604 764"/></g>
<polygon  style="fill:green" points="602,762 601,772 607,764 602,762 "/>
<text x="662" y="524" style="font-family:Times;font-size:14.00" >run builtin</text>
<g  style="fill:none;stroke:black"><path d="M320 200C296 233 253 297 253 340 253 340 253 340 253 580 253 626 326 662 379 682"/></g>
<polygon  style="fill:black" points="376,683 386,685 378,679 376,683 "/>
<g  style="fill:none;stroke:black"><path d="M288 180C222 183 155 194 95 220 74 230 78 267 85 297"/></g>
<polygon  style="fill:black" points="83,298 88,307 88,297 83,298 "/>
<g  style="fill:none;stroke:black"><path d="M333 202C331 208 330 215 330 220 329 283 329 346 330 408 330 414 331 422 332 430"/></g>
<polygon  style="fill:black" points="329,427 333,437 334,427 329,427 "/>
<g  style="fill:none;stroke:black"><path d="M366 197C376 205 386 213 392 220 408 240 404 273 423 288 437 299 460 311 482 320"/></g>
<polygon  style="fill:black" points="481,322 491,324 483,318 481,322 "/>
<g  style="fill:none;stroke:black"><path d="M346 201C358 229 377 277 383 306 397 370 417 479 427 538"/></g>
<polygon  style="fill:black" points="424,536 428,546 429,536 424,536 "/>
<text x="325" y="74" style="font-family:Times;font-size:14.00" >start</text>
<g  style="fill:none;stroke:black"><path d="M337 88C337 104 337 128 337 147"/></g>
<polygon  style="fill:black" points="335,146 337,156 340,146 335,146 "/>
</svg>
