<!-- Generated by dot version gviz1.7 (Tue Oct 31 14:40:33 EST 2000)
     For: Bill Gates
     Title: i__223
     Pages: 1
-->
<svg width="1804pt" height="1818pt" >
<text x="-114" y="949" style="font-family:Times;font-size:14.00" >XML Infoset $Date$</text>
<ellipse  cx="1317" cy="1048" rx="137" ry="18" style="fill:none;stroke:#87d0ff" />
<text x="1190" y="1052" style="font-family:Times;font-size:14.00" >http://www.w3.org/2001/04/infoset#InfoItem</text>
<ellipse  cx="940" cy="578" rx="142" ry="18" style="fill:none;stroke:#87d0ff" />
<text x="808" y="582" style="font-family:Times;font-size:14.00" >http://www.w3.org/2001/04/infoset#Document</text>
<g  style="fill:none;stroke:#7ec3ee"><path d="M1081 576C1104 580 1123 588 1134 602 1218 707 1289 946 1310 1023"/></g>
<polygon  style="fill:#7ec3ee" points="1307,1021 1312,1030 1312,1020 1307,1021 "/>
<ellipse  cx="940" cy="162" rx="136" ry="18" style="fill:none;stroke:#87d0ff" />
<text x="814" y="166" style="font-family:Times;font-size:14.00" >http://www.w3.org/2001/04/infoset#Element</text>
<g  style="fill:none;stroke:#7ec3ee"><path d="M1053 152C1090 154 1124 162 1134 186 1236 424 1299 908 1314 1023"/></g>
<polygon  style="fill:#7ec3ee" points="1311,1020 1315,1030 1316,1020 1311,1020 "/>
<ellipse  cx="940" cy="994" rx="138" ry="18" style="fill:none;stroke:#87d0ff" />
<text x="812" y="998" style="font-family:Times;font-size:14.00" >http://www.w3.org/2001/04/infoset#Attribute</text>
<g  style="fill:none;stroke:#7ec3ee"><path d="M1044 1006C1076 1010 1110 1014 1134 1018 1159 1022 1195 1027 1227 1033"/></g>
<polygon  style="fill:#7ec3ee" points="1224,1035 1234,1034 1224,1030 1224,1035 "/>
<ellipse  cx="940" cy="1740" rx="173" ry="18" style="fill:none;stroke:#87d0ff" />
<text x="777" y="1744" style="font-family:Times;font-size:14.00" >http://www.w3.org/2001/04/infoset#ProcessingInstruction</text>
<g  style="fill:none;stroke:#7ec3ee"><path d="M1109 1735C1119 1731 1128 1724 1134 1716 1193 1634 1144 1514 1170 1418 1203 1298 1303 1194 1315 1073"/></g>
<polygon  style="fill:#7ec3ee" points="1317,1076 1316,1066 1312,1076 1317,1076 "/>
<ellipse  cx="940" cy="724" rx="140" ry="18" style="fill:none;stroke:#87d0ff" />
<text x="810" y="728" style="font-family:Times;font-size:14.00" >http://www.w3.org/2001/04/infoset#Character</text>
<g  style="fill:none;stroke:#7ec3ee"><path d="M1080 726C1101 730 1121 737 1134 748 1205 809 1277 961 1305 1022"/></g>
<polygon  style="fill:#7ec3ee" points="1302,1022 1309,1030 1307,1020 1302,1022 "/>
<ellipse  cx="940" cy="632" rx="193" ry="18" style="fill:none;stroke:#87d0ff" />
<text x="757" y="636" style="font-family:Times;font-size:14.00" >http://www.w3.org/2001/04/infoset#UnexpandedEntityReference</text>
<g  style="fill:none;stroke:#7ec3ee"><path d="M1104 642C1116 646 1127 653 1134 661 1213 748 1286 952 1309 1024"/></g>
<polygon  style="fill:#7ec3ee" points="1305,1021 1311,1030 1310,1020 1305,1021 "/>
<ellipse  cx="940" cy="378" rx="140" ry="18" style="fill:none;stroke:#87d0ff" />
<text x="810" y="382" style="font-family:Times;font-size:14.00" >http://www.w3.org/2001/04/infoset#Comment</text>
<g  style="fill:none;stroke:#7ec3ee"><path d="M1080 376C1104 381 1125 391 1134 407 1227 573 1295 922 1313 1022"/></g>
<polygon  style="fill:#7ec3ee" points="1310,1020 1314,1030 1315,1020 1310,1020 "/>
<ellipse  cx="940" cy="470" rx="189" ry="18" style="fill:none;stroke:#87d0ff" />
<text x="761" y="474" style="font-family:Times;font-size:14.00" >http://www.w3.org/2001/04/infoset#DocumentTypeDeclaration</text>
<g  style="fill:none;stroke:#7ec3ee"><path d="M1115 477C1123 481 1129 487 1134 494 1224 632 1293 932 1311 1022"/></g>
<polygon  style="fill:#7ec3ee" points="1308,1021 1313,1030 1313,1020 1308,1021 "/>
<ellipse  cx="940" cy="1102" rx="157" ry="18" style="fill:none;stroke:#87d0ff" />
<text x="793" y="1106" style="font-family:Times;font-size:14.00" >http://www.w3.org/2001/04/infoset#UnparsedEntity</text>
<g  style="fill:none;stroke:#7ec3ee"><path d="M1049 1089C1080 1085 1111 1081 1134 1078 1159 1074 1194 1069 1226 1063"/></g>
<polygon  style="fill:#7ec3ee" points="1223,1066 1233,1062 1223,1061 1223,1066 "/>
<ellipse  cx="940" cy="1048" rx="137" ry="18" style="fill:none;stroke:#87d0ff" />
<text x="813" y="1052" style="font-family:Times;font-size:14.00" >http://www.w3.org/2001/04/infoset#Notation</text>
<g  style="fill:none;stroke:#7ec3ee"><path d="M1078 1048C1108 1048 1139 1048 1169 1048"/></g>
<polygon  style="fill:#7ec3ee" points="1169,1050 1179,1048 1169,1045 1169,1050 "/>
<ellipse  cx="940" cy="524" rx="145" ry="18" style="fill:none;stroke:#87d0ff" />
<text x="805" y="528" style="font-family:Times;font-size:14.00" >http://www.w3.org/2001/04/infoset#Namespace</text>
<g  style="fill:none;stroke:#7ec3ee"><path d="M1084 521C1105 526 1124 534 1134 548 1221 669 1291 938 1311 1023"/></g>
<polygon  style="fill:#7ec3ee" points="1308,1021 1313,1030 1313,1020 1308,1021 "/>
<polygon  style="fill:#fff68f" points="1074,1484 806,1484 806,1520 1074,1520 1074,1484 "/>
<text x="813" y="1506" style="font-family:Times;font-size:14.00" >http://www.w3.org/2001/04/infoset#baseURI</text>
<g  style="fill:none;stroke:red;stroke-width:3"><path d="M1074 1500C1098 1500 1119 1496 1134 1478 1156 1452 1281 1168 1311 1074"/></g>
<polygon  style="fill:red" points="1313,1076 1313,1066 1308,1075 1313,1076 "/>
<ellipse  cx="1317" cy="1448" rx="131" ry="18" style="fill:none;stroke:#87d0ff" />
<text x="1196" y="1452" style="font-family:Times;font-size:14.00" >http://www.w3.org/2001/04/infoset#Literal</text>
<g  style="fill:none;stroke:#00ff00;stroke-width:3"><path d="M1074 1486C1096 1483 1117 1480 1134 1478 1159 1474 1195 1469 1227 1463"/></g>
<polygon  style="fill:#00ff00" points="1224,1466 1234,1462 1224,1461 1224,1466 "/>
<polygon  style="fill:#fff68f" points="282,610 18,610 18,646 282,646 282,610 "/>
<text x="24" y="632" style="font-family:Times;font-size:14.00" >http://www.w3.org/2001/04/infoset#children</text>
<g  style="fill:none;stroke:red;stroke-width:3"><path d="M188 610C229 591 295 562 336 548 464 508 1043 343 1134 440 1198 508 1289 920 1312 1024"/></g>
<polygon  style="fill:red" points="1309,1021 1313,1030 1314,1020 1309,1021 "/>
<ellipse  cx="523" cy="832" rx="148" ry="18" style="fill:none;stroke:#87d0ff" />
<text x="385" y="836" style="font-family:Times;font-size:14.00" >http://www.w3.org/2001/04/infoset#InfoItemSeq</text>
<g  style="fill:none;stroke:#00ff00;stroke-width:3"><path d="M165 646C198 685 278 776 336 808 348 815 364 820 380 823"/></g>
<polygon  style="fill:#00ff00" points="377,825 387,825 378,820 377,825 "/>
<ellipse  cx="940" cy="940" rx="144" ry="18" style="fill:none;stroke:#87d0ff" />
<text x="806" y="944" style="font-family:Times;font-size:14.00" >http://www.w3.org/2001/04/infoset#References</text>
<g  style="fill:none;stroke:#7ec3ee"><path d="M648 842C671 845 694 850 710 856 732 865 725 908 746 916 746 916 787 921 831 926"/></g>
<polygon  style="fill:#7ec3ee" points="828,928 838,927 828,923 828,928 "/>
<ellipse  cx="940" cy="832" rx="151" ry="18" style="fill:none;stroke:black" />
<text x="799" y="836" style="font-family:Times;font-size:14.00" >http://www.w3.org/1999/02/22-rdf-syntax-ns#Seq</text>
<g  style="fill:none;stroke:#7ec3ee"><path d="M671 832C706 832 745 832 781 832"/></g>
<polygon  style="fill:#7ec3ee" points="779,834 789,832 779,829 779,834 "/>
<polygon  style="fill:#fff68f" points="653,1741 393,1741 393,1777 653,1777 653,1741 "/>
<text x="400" y="1763" style="font-family:Times;font-size:14.00" >http://www.w3.org/2001/04/infoset#content</text>
<g  style="fill:none;stroke:red;stroke-width:3"><path d="M654 1775C817 1793 1081 1814 1134 1770 1180 1732 1156 1475 1170 1418 1200 1297 1303 1194 1315 1073"/></g>
<polygon  style="fill:red" points="1317,1076 1316,1066 1312,1076 1317,1076 "/>
<ellipse  cx="940" cy="1686" rx="144" ry="18" style="fill:none;stroke:black" />
<text x="806" y="1690" style="font-family:Times;font-size:14.00" >http://www.w3.org/2000/01/rdf-schema#Literal</text>
<g  style="fill:none;stroke:#00ff00;stroke-width:3"><path d="M654 1741C675 1738 694 1734 710 1731 724 1728 733 1712 746 1710 746 1710 787 1705 831 1700"/></g>
<polygon  style="fill:#00ff00" points="828,1703 838,1699 828,1698 828,1703 "/>
<g  style="fill:none;stroke:#7ec3ee"><path d="M1069 1678C1094 1674 1118 1667 1134 1657 1194 1619 1268 1518 1301 1472"/></g>
<polygon  style="fill:#7ec3ee" points="1302,1476 1305,1466 1297,1473 1302,1476 "/>
<polygon  style="fill:#fff68f" points="1106,1268 774,1268 774,1304 1106,1304 1106,1268 "/>
<text x="781" y="1290" style="font-family:Times;font-size:14.00" >http://www.w3.org/2001/04/infoset#declarationBaseURI</text>
<g  style="fill:none;stroke:red;stroke-width:3"><path d="M1107 1274C1117 1271 1126 1267 1134 1262 1195 1223 1269 1120 1301 1072"/></g>
<polygon  style="fill:red" points="1302,1076 1305,1066 1297,1073 1302,1076 "/>
<g  style="fill:none;stroke:#00ff00;stroke-width:3"><path d="M1107 1301C1117 1304 1126 1306 1134 1310 1183 1331 1253 1389 1290 1423"/></g>
<polygon  style="fill:#00ff00" points="1289,1425 1298,1430 1292,1422 1289,1425 "/>
<polygon  style="fill:#fff68f" points="663,1349 383,1349 383,1385 663,1385 663,1349 "/>
<text x="390" y="1371" style="font-family:Times;font-size:14.00" >http://www.w3.org/2001/04/infoset#localName</text>
<g  style="fill:none;stroke:red;stroke-width:3"><path d="M634 1349C664 1341 693 1330 710 1315 748 1281 700 1188 746 1169 866 1117 1007 1158 1134 1132 1176 1124 1238 1092 1278 1070"/></g>
<polygon  style="fill:red" points="1278,1073 1286,1066 1276,1068 1278,1073 "/>
<g  style="fill:none;stroke:#00ff00;stroke-width:3"><path d="M597 1385C640 1398 689 1418 710 1446 754 1502 697 1605 746 1657 761 1672 782 1677 804 1678"/></g>
<polygon  style="fill:#00ff00" points="801,1680 811,1678 801,1675 801,1680 "/>
<polygon  style="fill:#fff68f" points="648,1458 398,1458 398,1494 648,1494 648,1458 "/>
<text x="405" y="1480" style="font-family:Times;font-size:14.00" >http://www.w3.org/2001/04/infoset#name</text>
<g  style="fill:none;stroke:red;stroke-width:3"><path d="M594 1458C637 1445 688 1424 710 1397 752 1345 688 1232 746 1202 861 1142 1009 1209 1134 1176 1184 1162 1253 1106 1290 1073"/></g>
<polygon  style="fill:red" points="1292,1074 1298,1066 1289,1071 1292,1074 "/>
<g  style="fill:none;stroke:#00ff00;stroke-width:3"><path d="M550 1494C591 1522 668 1575 710 1610 726 1622 728 1650 746 1657 783 1669 825 1667 865 1669"/></g>
<polygon  style="fill:#00ff00" points="863,1671 873,1670 863,1666 863,1671 "/>
<polygon  style="fill:#fff68f" points="1097,1322 783,1322 783,1358 1097,1358 1097,1322 "/>
<text x="790" y="1344" style="font-family:Times;font-size:14.00" >http://www.w3.org/2001/04/infoset#namespaceName</text>
<g  style="fill:none;stroke:red;stroke-width:3"><path d="M1097 1333C1111 1330 1123 1324 1134 1316 1201 1263 1275 1130 1304 1073"/></g>
<polygon  style="fill:red" points="1305,1076 1308,1066 1301,1073 1305,1076 "/>
<g  style="fill:none;stroke:#00ff00;stroke-width:3"><path d="M1097 1356C1111 1358 1123 1361 1134 1364 1175 1375 1236 1406 1277 1427"/></g>
<polygon  style="fill:#00ff00" points="1275,1429 1285,1431 1277,1424 1275,1429 "/>
<polygon  style="fill:#fff68f" points="1067,306 813,306 813,342 1067,342 1067,306 "/>
<text x="820" y="328" style="font-family:Times;font-size:14.00" >http://www.w3.org/2001/04/infoset#parent</text>
<g  style="fill:none;stroke:red;stroke-width:3"><path d="M1067 325C1097 328 1124 337 1134 357 1229 538 1295 918 1313 1021"/></g>
<polygon  style="fill:red" points="1310,1020 1314,1030 1315,1020 1310,1020 "/>
<g  style="fill:none;stroke:#00ff00;stroke-width:3"><path d="M1067 307C1097 310 1124 319 1134 339 1231 524 1297 915 1314 1021"/></g>
<polygon  style="fill:#00ff00" points="1311,1020 1315,1030 1316,1020 1311,1020 "/>
<polygon  style="fill:#fff68f" points="1066,1376 814,1376 814,1412 1066,1412 1066,1376 "/>
<text x="821" y="1398" style="font-family:Times;font-size:14.00" >http://www.w3.org/2001/04/infoset#prefix</text>
<g  style="fill:none;stroke:red;stroke-width:3"><path d="M1067 1393C1092 1392 1116 1387 1134 1370 1207 1303 1279 1139 1306 1074"/></g>
<polygon  style="fill:red" points="1308,1076 1310,1066 1303,1074 1308,1076 "/>
<g  style="fill:none;stroke:#00ff00;stroke-width:3"><path d="M1067 1409C1091 1412 1115 1415 1134 1418 1159 1422 1196 1427 1229 1433"/></g>
<polygon  style="fill:#00ff00" points="1226,1435 1236,1434 1226,1430 1226,1435 "/>
<polygon  style="fill:#fff68f" points="1093,1430 787,1430 787,1466 1093,1466 1093,1430 "/>
<text x="794" y="1452" style="font-family:Times;font-size:14.00" >http://www.w3.org/2001/04/infoset#publicIdentifier</text>
<g  style="fill:none;stroke:red;stroke-width:3"><path d="M1093 1438C1113 1434 1128 1430 1134 1424 1211 1342 1283 1147 1308 1075"/></g>
<polygon  style="fill:red" points="1310,1076 1311,1066 1305,1075 1310,1076 "/>
<g  style="fill:none;stroke:#00ff00;stroke-width:3"><path d="M1093 1448C1121 1448 1149 1448 1175 1448"/></g>
<polygon  style="fill:#00ff00" points="1175,1450 1185,1448 1175,1445 1175,1450 "/>
<polygon  style="fill:#fff68f" points="1095,1214 785,1214 785,1250 1095,1250 1095,1214 "/>
<text x="792" y="1236" style="font-family:Times;font-size:14.00" >http://www.w3.org/2001/04/infoset#systemIdentifier</text>
<g  style="fill:none;stroke:red;stroke-width:3"><path d="M1095 1216C1110 1212 1123 1208 1134 1203 1185 1178 1256 1111 1293 1074"/></g>
<polygon  style="fill:red" points="1295,1075 1300,1066 1292,1072 1295,1075 "/>
<g  style="fill:none;stroke:#00ff00;stroke-width:3"><path d="M1095 1246C1113 1249 1127 1252 1134 1256 1191 1288 1266 1380 1300 1424"/></g>
<polygon  style="fill:#00ff00" points="1296,1423 1304,1430 1301,1420 1296,1423 "/>
<polygon  style="fill:#fff68f" points="703,668 343,668 343,704 703,704 703,668 "/>
<text x="350" y="690" style="font-family:Times;font-size:14.00" >http://www.w3.org/2001/04/infoset#allDeclarationsProcessed</text>
<g  style="fill:none;stroke:red;stroke-width:3"><path d="M692 668C699 666 705 664 710 662 732 654 725 611 746 602 779 591 815 593 850 593"/></g>
<polygon  style="fill:red" points="848,595 858,593 848,590 848,595 "/>
<ellipse  cx="940" cy="886" rx="136" ry="18" style="fill:none;stroke:#87d0ff" />
<text x="814" y="890" style="font-family:Times;font-size:14.00" >http://www.w3.org/2001/04/infoset#Boolean</text>
<g  style="fill:none;stroke:#00ff00;stroke-width:3"><path d="M605 704C644 714 686 729 710 748 742 773 712 842 746 862 746 862 787 867 830 873"/></g>
<polygon  style="fill:#00ff00" points="830,875 840,874 830,871 830,875 "/>
<polygon  style="fill:#fff68f" points="707,1084 339,1084 339,1120 707,1120 707,1084 "/>
<text x="346" y="1106" style="font-family:Times;font-size:14.00" >http://www.w3.org/2001/04/infoset#characterEncodingScheme</text>
<g  style="fill:none;stroke:red;stroke-width:3"><path d="M707 1084C708 1082 709 1080 710 1078 775 933 680 747 746 602 755 584 771 577 791 576"/></g>
<polygon  style="fill:red" points="788,578 798,576 788,573 788,578 "/>
<g  style="fill:none;stroke:#00ff00;stroke-width:3"><path d="M698 1120C705 1122 709 1124 710 1126 777 1290 679 1492 746 1657 749 1663 780 1669 818 1674"/></g>
<polygon  style="fill:#00ff00" points="817,1676 827,1675 817,1671 817,1676 "/>
<polygon  style="fill:#fff68f" points="683,198 363,198 363,234 683,234 683,198 "/>
<text x="369" y="220" style="font-family:Times;font-size:14.00" >http://www.w3.org/2001/04/infoset#documentElement</text>
<g  style="fill:none;stroke:red;stroke-width:3"><path d="M684 219C694 223 703 230 710 240 769 328 687 467 746 554 746 554 787 559 831 564"/></g>
<polygon  style="fill:red" points="828,566 838,565 828,561 828,566 "/>
<g  style="fill:none;stroke:#00ff00;stroke-width:3"><path d="M662 198C718 190 782 182 835 176"/></g>
<polygon  style="fill:#00ff00" points="832,179 842,175 832,174 832,179 "/>
<polygon  style="fill:#fff68f" points="679,252 367,252 367,288 679,288 679,252 "/>
<text x="374" y="274" style="font-family:Times;font-size:14.00" >http://www.w3.org/2001/04/infoset#unparsedEntities</text>
<g  style="fill:none;stroke:red;stroke-width:3"><path d="M680 273C692 277 702 284 710 294 765 363 691 487 746 554 757 567 772 574 788 576"/></g>
<polygon  style="fill:red" points="788,578 798,577 788,574 788,578 "/>
<ellipse  cx="940" cy="216" rx="166" ry="18" style="fill:none;stroke:#87d0ff" />
<text x="784" y="220" style="font-family:Times;font-size:14.00" >http://www.w3.org/2001/04/infoset#UnparsedEntitySet</text>
<g  style="fill:none;stroke:#00ff00;stroke-width:3"><path d="M662 252C716 245 775 237 826 231"/></g>
<polygon  style="fill:#00ff00" points="823,234 833,230 823,229 823,234 "/>
<ellipse  cx="1317" cy="162" rx="146" ry="18" style="fill:none;stroke:#87d0ff" />
<text x="1181" y="166" style="font-family:Times;font-size:14.00" >http://www.w3.org/2001/04/infoset#InfoItemSet</text>
<g  style="fill:none;stroke:#7ec3ee"><path d="M1054 203C1083 199 1112 195 1134 192 1159 189 1193 184 1225 178"/></g>
<polygon  style="fill:#7ec3ee" points="1222,181 1232,177 1222,176 1222,181 "/>
<polygon  style="fill:#fff68f" points="658,306 388,306 388,342 658,342 658,306 "/>
<text x="395" y="328" style="font-family:Times;font-size:14.00" >http://www.w3.org/2001/04/infoset#notations</text>
<g  style="fill:none;stroke:red;stroke-width:3"><path d="M659 325C678 327 696 334 710 348 759 399 697 505 746 554 746 554 787 559 831 564"/></g>
<polygon  style="fill:red" points="828,566 838,565 828,561 828,566 "/>
<ellipse  cx="940" cy="270" rx="146" ry="18" style="fill:none;stroke:#87d0ff" />
<text x="804" y="274" style="font-family:Times;font-size:14.00" >http://www.w3.org/2001/04/infoset#NotationSet</text>
<g  style="fill:none;stroke:#00ff00;stroke-width:3"><path d="M659 306C714 299 779 291 832 284"/></g>
<polygon  style="fill:#00ff00" points="829,287 839,283 829,282 829,287 "/>
<g  style="fill:none;stroke:#7ec3ee"><path d="M1060 260C1088 256 1114 252 1134 246 1174 235 1235 205 1276 184"/></g>
<polygon  style="fill:#7ec3ee" points="1276,187 1284,180 1274,182 1276,187 "/>
<polygon  style="fill:#fff68f" points="662,614 384,614 384,650 662,650 662,614 "/>
<text x="390" y="636" style="font-family:Times;font-size:14.00" >http://www.w3.org/2001/04/infoset#standalone</text>
<g  style="fill:none;stroke:red;stroke-width:3"><path d="M662 614C717 606 781 599 833 592"/></g>
<polygon  style="fill:red" points="830,595 840,591 830,590 830,595 "/>
<ellipse  cx="940" cy="778" rx="144" ry="18" style="fill:none;stroke:#87d0ff" />
<text x="806" y="782" style="font-family:Times;font-size:14.00" >http://www.w3.org/2001/04/infoset#Standalone</text>
<g  style="fill:none;stroke:#00ff00;stroke-width:3"><path d="M663 641C681 644 697 649 710 656 741 673 716 738 746 754 760 761 779 767 798 771"/></g>
<polygon  style="fill:#00ff00" points="795,773 805,772 795,768 795,773 "/>
<polygon  style="fill:#fff68f" points="653,560 393,560 393,596 653,596 653,560 "/>
<text x="400" y="582" style="font-family:Times;font-size:14.00" >http://www.w3.org/2001/04/infoset#version</text>
<g  style="fill:none;stroke:red;stroke-width:3"><path d="M654 578C697 578 744 578 789 578"/></g>
<polygon  style="fill:red" points="788,580 798,578 788,575 788,580 "/>
<g  style="fill:none;stroke:#00ff00;stroke-width:3"><path d="M654 589C675 592 695 596 710 602 732 611 724 658 746 662 810 676 1088 649 1134 694 1180 740 1155 1015 1170 1078 1196 1180 1274 1356 1305 1422"/></g>
<polygon  style="fill:#00ff00" points="1302,1422 1309,1430 1307,1420 1302,1422 "/>
<polygon  style="fill:#fff68f" points="658,90 388,90 388,126 658,126 658,90 "/>
<text x="394" y="112" style="font-family:Times;font-size:14.00" >http://www.w3.org/2001/04/infoset#attributes</text>
<g  style="fill:none;stroke:red;stroke-width:3"><path d="M659 126C716 133 782 141 836 148"/></g>
<polygon  style="fill:red" points="833,150 843,149 833,145 833,150 "/>
<ellipse  cx="940" cy="54" rx="147" ry="18" style="fill:none;stroke:#87d0ff" />
<text x="803" y="58" style="font-family:Times;font-size:14.00" >http://www.w3.org/2001/04/infoset#AttributeSet</text>
<g  style="fill:none;stroke:#00ff00;stroke-width:3"><path d="M659 90C714 83 779 75 832 68"/></g>
<polygon  style="fill:#00ff00" points="829,71 839,67 829,66 829,71 "/>
<g  style="fill:none;stroke:#7ec3ee"><path d="M1059 65C1087 68 1114 73 1134 78 1174 90 1235 120 1276 140"/></g>
<polygon  style="fill:#7ec3ee" points="1274,142 1284,144 1276,137 1274,142 "/>
<polygon  style="fill:#fff68f" points="691,36 355,36 355,72 691,72 691,36 "/>
<text x="362" y="58" style="font-family:Times;font-size:14.00" >http://www.w3.org/2001/04/infoset#namespaceAttributes</text>
<g  style="fill:none;stroke:red;stroke-width:3"><path d="M691 72C698 74 704 76 710 78 732 87 725 130 746 138 778 150 812 148 847 148"/></g>
<polygon  style="fill:red" points="844,150 854,148 844,145 844,150 "/>
<g  style="fill:none;stroke:#00ff00;stroke-width:3"><path d="M692 54C722 54 753 54 783 54"/></g>
<polygon  style="fill:#00ff00" points="783,56 793,54 783,51 783,56 "/>
<polygon  style="fill:#fff68f" points="690,144 356,144 356,180 690,180 690,144 "/>
<text x="363" y="166" style="font-family:Times;font-size:14.00" >http://www.w3.org/2001/04/infoset#inScopeNamespaces</text>
<g  style="fill:none;stroke:red;stroke-width:3"><path d="M690 162C724 162 759 162 792 162"/></g>
<polygon  style="fill:red" points="793,164 803,162 793,159 793,164 "/>
<ellipse  cx="940" cy="108" rx="154" ry="18" style="fill:none;stroke:#87d0ff" />
<text x="796" y="112" style="font-family:Times;font-size:14.00" >http://www.w3.org/2001/04/infoset#NamespaceSet</text>
<g  style="fill:none;stroke:#00ff00;stroke-width:3"><path d="M662 144C716 136 777 129 829 122"/></g>
<polygon  style="fill:#00ff00" points="826,125 836,121 826,120 826,125 "/>
<g  style="fill:none;stroke:#7ec3ee"><path d="M1048 121C1079 125 1111 129 1134 132 1158 136 1192 141 1224 146"/></g>
<polygon  style="fill:#7ec3ee" points="1221,148 1231,147 1221,143 1221,148 "/>
<polygon  style="fill:#fff68f" points="673,360 373,360 373,396 673,396 673,360 "/>
<text x="380" y="382" style="font-family:Times;font-size:14.00" >http://www.w3.org/2001/04/infoset#ownerElement</text>
<g  style="fill:none;stroke:#00ff00;stroke-width:3"><path d="M674 372C688 368 701 362 710 354 754 317 703 223 746 186 762 172 783 169 804 168"/></g>
<polygon  style="fill:#00ff00" points="801,170 811,168 801,165 801,170 "/>
<g  style="fill:none;stroke:red;stroke-width:3"><path d="M552 396C599 427 689 491 710 548 760 681 682 845 746 970 756 988 773 994 794 995"/></g>
<polygon  style="fill:red" points="791,997 801,995 791,992 791,997 "/>
<polygon  style="fill:#fff68f" points="670,1199 376,1199 376,1235 670,1235 670,1199 "/>
<text x="383" y="1221" style="font-family:Times;font-size:14.00" >http://www.w3.org/2001/04/infoset#attributeType</text>
<g  style="fill:none;stroke:red;stroke-width:3"><path d="M671 1206C687 1201 700 1195 710 1186 753 1147 703 1054 746 1018 754 1011 778 1006 805 1003"/></g>
<polygon  style="fill:red" points="804,1006 814,1002 804,1001 804,1006 "/>
<ellipse  cx="940" cy="1594" rx="152" ry="18" style="fill:none;stroke:#87d0ff" />
<text x="798" y="1598" style="font-family:Times;font-size:14.00" >http://www.w3.org/2001/04/infoset#AttributeType</text>
<g  style="fill:none;stroke:#00ff00;stroke-width:3"><path d="M663 1235C686 1240 705 1247 710 1255 767 1342 688 1478 746 1565 754 1576 766 1584 782 1589"/></g>
<polygon  style="fill:#00ff00" points="779,1591 789,1591 780,1586 779,1591 "/>
<polygon  style="fill:#fff68f" points="681,1267 365,1267 365,1303 681,1303 681,1267 "/>
<text x="372" y="1289" style="font-family:Times;font-size:14.00" >http://www.w3.org/2001/04/infoset#normalizedValue</text>
<g  style="fill:none;stroke:red;stroke-width:3"><path d="M681 1267C693 1262 703 1255 710 1247 760 1187 695 1075 746 1018 746 1018 788 1013 833 1007"/></g>
<polygon  style="fill:red" points="830,1010 840,1006 830,1005 830,1010 "/>
<g  style="fill:none;stroke:#00ff00;stroke-width:3"><path d="M622 1303C663 1312 703 1324 710 1337 766 1429 687 1567 746 1657 757 1673 772 1680 791 1682"/></g>
<polygon  style="fill:#00ff00" points="788,1684 798,1683 788,1679 788,1684 "/>
<polygon  style="fill:#fff68f" points="661,922 385,922 385,958 661,958 661,922 "/>
<text x="392" y="944" style="font-family:Times;font-size:14.00" >http://www.w3.org/2001/04/infoset#references</text>
<g  style="fill:none;stroke:red;stroke-width:3"><path d="M661 958C717 966 781 973 834 980"/></g>
<polygon  style="fill:red" points="831,982 841,981 831,977 831,982 "/>
<g  style="fill:none;stroke:#00ff00;stroke-width:3"><path d="M661 940C701 940 746 940 787 940"/></g>
<polygon  style="fill:#00ff00" points="786,942 796,940 786,937 786,942 "/>
<polygon  style="fill:#fff68f" points="658,868 388,868 388,904 658,904 658,868 "/>
<text x="395" y="890" style="font-family:Times;font-size:14.00" >http://www.w3.org/2001/04/infoset#specified</text>
<g  style="fill:none;stroke:red;stroke-width:3"><path d="M658 897C678 901 696 905 710 910 732 919 725 961 746 970 780 982 816 979 852 979"/></g>
<polygon  style="fill:red" points="850,981 860,979 850,976 850,981 "/>
<g  style="fill:none;stroke:#00ff00;stroke-width:3"><path d="M658 886C702 886 750 886 794 886"/></g>
<polygon  style="fill:#00ff00" points="793,888 803,886 793,883 793,888 "/>
<polygon  style="fill:#fff68f" points="648,1683 398,1683 398,1719 648,1719 648,1683 "/>
<text x="404" y="1705" style="font-family:Times;font-size:14.00" >http://www.w3.org/2001/04/infoset#target</text>
<g  style="fill:none;stroke:red;stroke-width:3"><path d="M649 1713C698 1718 754 1723 804 1727"/></g>
<polygon  style="fill:red" points="801,1729 811,1728 801,1724 801,1729 "/>
<g  style="fill:none;stroke:#00ff00;stroke-width:3"><path d="M649 1696C694 1694 745 1693 791 1691"/></g>
<polygon  style="fill:#00ff00" points="791,1693 801,1691 791,1688 791,1693 "/>
<polygon  style="fill:#fff68f" points="300,1041 0,1041 0,1077 300,1077 300,1041 "/>
<text x="7" y="1063" style="font-family:Times;font-size:14.00" >http://www.w3.org/2001/04/infoset#characterCode</text>
<g  style="fill:none;stroke:red;stroke-width:3"><path d="M156 1041C175 980 243 788 336 748 397 723 633 720 792 722"/></g>
<polygon  style="fill:red" points="791,724 801,722 791,719 791,724 "/>
<ellipse  cx="523" cy="1640" rx="132" ry="18" style="fill:none;stroke:#87d0ff" />
<text x="401" y="1644" style="font-family:Times;font-size:14.00" >http://www.w3.org/2001/04/infoset#Integer</text>
<g  style="fill:none;stroke:#00ff00;stroke-width:3"><path d="M156 1077C178 1145 262 1390 336 1506 364 1548 437 1594 483 1619"/></g>
<polygon  style="fill:#00ff00" points="479,1620 489,1622 481,1615 479,1620 "/>
<g  style="fill:none;stroke:#7ec3ee"><path d="M626 1651C686 1658 762 1666 824 1673"/></g>
<polygon  style="fill:#7ec3ee" points="822,1675 832,1674 822,1670 822,1675 "/>
<polygon  style="fill:#fff68f" points="709,760 337,760 337,796 709,796 709,760 "/>
<text x="343" y="782" style="font-family:Times;font-size:14.00" >http://www.w3.org/2001/04/infoset#elementContentWhitespace</text>
<g  style="fill:none;stroke:red;stroke-width:3"><path d="M662 760C717 752 781 745 834 738"/></g>
<polygon  style="fill:red" points="831,741 841,737 831,736 831,741 "/>
<g  style="fill:none;stroke:#00ff00;stroke-width:3"><path d="M691 796C698 798 704 800 710 802 732 811 725 854 746 862 746 862 787 867 830 873"/></g>
<polygon  style="fill:#00ff00" points="830,875 840,874 830,871 830,875 "/>
<polygon  style="fill:#fff68f" points="655,1138 391,1138 391,1174 655,1174 655,1138 "/>
<text x="397" y="1160" style="font-family:Times;font-size:14.00" >http://www.w3.org/2001/04/infoset#notation</text>
<g  style="fill:none;stroke:red;stroke-width:3"><path d="M656 1139C711 1131 775 1124 829 1117"/></g>
<polygon  style="fill:red" points="826,1120 836,1116 826,1115 826,1120 "/>
<g  style="fill:none;stroke:#00ff00;stroke-width:3"><path d="M656 1142C675 1141 693 1138 710 1132 732 1123 725 1080 746 1072 763 1066 786 1061 811 1057"/></g>
<polygon  style="fill:#00ff00" points="808,1060 818,1056 808,1055 808,1060 "/>
<polygon  style="fill:#fff68f" points="672,1802 374,1802 374,1838 672,1838 672,1802 "/>
<text x="381" y="1824" style="font-family:Times;font-size:14.00" >http://www.w3.org/2001/04/infoset#notationName</text>
<g  style="fill:none;stroke:red;stroke-width:3"><path d="M673 1818C691 1813 705 1804 710 1789 777 1604 684 1387 746 1202 754 1179 833 1144 887 1122"/></g>
<polygon  style="fill:red" points="887,1125 895,1119 885,1120 887,1125 "/>
<g  style="fill:none;stroke:#00ff00;stroke-width:3"><path d="M673 1825C833 1830 1074 1831 1134 1803 1232 1757 1292 1551 1311 1476"/></g>
<polygon  style="fill:#00ff00" points="1313,1476 1313,1466 1309,1475 1313,1476 "/>
<ellipse  cx="523" cy="1048" rx="140" ry="18" style="fill:none;stroke:#87d0ff" />
<text x="393" y="1052" style="font-family:Times;font-size:14.00" >http://www.w3.org/2001/04/infoset#Unknown</text>
<g  style="fill:none;stroke:#7ec3ee"><path d="M664 1048C706 1048 751 1048 793 1048"/></g>
<polygon  style="fill:#7ec3ee" points="792,1050 802,1048 792,1045 792,1050 "/>
<g  style="fill:none;stroke:#7ec3ee"><path d="M623 1061C667 1067 710 1072 710 1072 744 1157 690 1550 746 1624 786 1675 1073 1643 1134 1624 1166 1614 1255 1518 1296 1472"/></g>
<polygon  style="fill:#7ec3ee" points="1297,1475 1301,1466 1293,1472 1297,1475 "/>
<g  style="fill:none;stroke:#7ec3ee"><path d="M647 1039C670 1039 691 1036 710 1024 744 1003 712 931 746 910 766 898 790 895 813 895"/></g>
<polygon  style="fill:#7ec3ee" points="810,897 820,895 810,892 810,897 "/>
<g  style="fill:none;stroke:#7ec3ee"><path d="M644 1057C678 1061 708 1066 710 1072 776 1223 680 1414 746 1565 753 1580 764 1587 778 1591"/></g>
<polygon  style="fill:#7ec3ee" points="778,1593 788,1593 779,1589 778,1593 "/>
<g  style="fill:none;stroke:#7ec3ee"><path d="M644 1039C669 1035 693 1031 710 1024 732 1015 725 972 746 964 776 953 809 954 841 954"/></g>
<polygon  style="fill:#7ec3ee" points="838,956 848,954 838,951 838,956 "/>
<ellipse  cx="523" cy="994" rx="138" ry="18" style="fill:none;stroke:#87d0ff" />
<text x="395" y="998" style="font-family:Times;font-size:14.00" >http://www.w3.org/2001/04/infoset#NoValue</text>
<g  style="fill:none;stroke:#7ec3ee"><path d="M621 1007C684 1016 767 1026 832 1034"/></g>
<polygon  style="fill:#7ec3ee" points="831,1036 841,1035 831,1031 831,1036 "/>
<g  style="fill:none;stroke:#7ec3ee"><path d="M621 1007C666 1012 710 1018 710 1018 743 1097 692 1465 746 1532 788 1581 1071 1541 1134 1532 1177 1525 1240 1493 1280 1471"/></g>
<polygon  style="fill:#7ec3ee" points="1281,1473 1288,1466 1278,1469 1281,1473 "/>
<g  style="fill:none;stroke:#7ec3ee"><path d="M607 980C642 980 678 982 710 970 732 961 725 919 746 910 764 904 787 899 813 896"/></g>
<polygon  style="fill:#7ec3ee" points="810,899 820,895 810,894 810,899 "/>
<g  style="fill:none;stroke:#7ec3ee"><path d="M653 988C674 988 694 984 710 970 754 933 703 839 746 802 759 792 774 786 790 783"/></g>
<polygon  style="fill:#7ec3ee" points="790,785 800,782 790,781 790,785 "/>
<g  style="fill:none;stroke:#7ec3ee"><path d="M660 992C683 991 702 997 710 1018 777 1188 679 1395 746 1565 749 1571 778 1576 814 1581"/></g>
<polygon  style="fill:#7ec3ee" points="813,1583 823,1582 813,1578 813,1583 "/>
<g  style="fill:none;stroke:#7ec3ee"><path d="M621 981C684 972 765 962 830 954"/></g>
<polygon  style="fill:#7ec3ee" points="829,957 839,953 829,952 829,957 "/>
<ellipse  cx="1652" cy="162" rx="152" ry="18" style="fill:none;stroke:black" />
<text x="1511" y="166" style="font-family:Times;font-size:14.00" >http://www.w3.org/1999/02/22-rdf-syntax-ns#Bag</text>
<g  style="fill:none;stroke:#7ec3ee"><path d="M1464 162C1473 162 1481 162 1490 162"/></g>
<polygon  style="fill:#7ec3ee" points="1490,164 1500,162 1490,159 1490,164 "/>
</svg>
