<!-- Generated by dot version 1.7.5 (Sun Mar 25 18:55:43 MST 2001)
     For: (connolly) 
     Title: N1523
     Pages: 1
-->
<svg width="2773pt" height="1213pt" >
<text x="-114" y="647" style="font-family:Times;font-size:14.00" >XML Infoset $Date$</text>
<polygon  style="fill:none;stroke:black" points="24,104 705,104 705,52 24,52 24,104 "/>
<text x="31" y="48" style="font-family:Times;font-size:14.00" >Items and Properties</text>
<polygon  style="fill:#87d0ff" points="81,836 25,854 81,872 137,854 81,836 "/>
<polygon  style="fill:none;stroke:#87d0ff" points="81,836 25,854 81,872 137,854 81,836 "/>
<text x="52" y="858" style="font-family:Times;font-size:14.00" >Document</text>
<ellipse  cx="418" cy="674" rx="32" ry="18" style="fill:none;stroke:black" />
<text x="396" y="678" style="font-family:Times;font-size:14.00" >Elt/Doc</text>
<g  style="fill:none;stroke:#7ec3ee"><path d="M88 838C100 809 124 749 155 733 211 702 323 690 380 682"/></g>
<polygon  style="fill:#7ec3ee" points="378,685 388,681 378,680 378,685 "/>
<ellipse  cx="1520" cy="672" rx="48" ry="18" style="fill:none;stroke:black" />
<text x="1482" y="676" style="font-family:Times;font-size:14.00" >Elt/Doc/DTD</text>
<g  style="fill:none;stroke:#7ec3ee"><path d="M119 848C132 844 145 841 155 840 559 801 964 780 1367 741 1377 740 1377 722 1385 719 1410 709 1450 698 1480 689"/></g>
<polygon  style="fill:#7ec3ee" points="1480,692 1489,686 1479,687 1480,692 "/>
<ellipse  cx="418" cy="854" rx="44" ry="18" style="fill:none;stroke:black" />
<text x="384" y="858" style="font-family:Times;font-size:14.00" >Doc Items...</text>
<g  style="fill:none;stroke:blue"><path d="M137 854C200 854 303 854 365 854"/></g>
<polygon  style="fill:blue" points="363,856 373,854 363,851 363,856 "/>
<text x="215" y="850" style="font-family:Times;font-size:14.00" >children</text>
<polygon  style="fill:#87d0ff" points="657,556 610,574 657,592 704,574 657,556 "/>
<polygon  style="fill:none;stroke:#87d0ff" points="657,556 610,574 657,592 704,574 657,556 "/>
<text x="634" y="578" style="font-family:Times;font-size:14.00" >Element</text>
<g  style="fill:none;stroke:blue"><path d="M84 837C91 798 112 703 155 677 268 609 503 584 607 577"/></g>
<polygon  style="fill:blue" points="606,580 616,576 606,575 606,580 "/>
<text x="367" y="583" style="font-family:Times;font-size:14.00" >document element</text>
<ellipse  cx="1520" cy="924" rx="49" ry="18" style="fill:none;stroke:black" />
<text x="1481" y="928" style="font-family:Times;font-size:14.00" >Absolute URI</text>
<g  style="fill:none;stroke:blue"><path d="M86 870C96 901 121 964 155 972 366 1018 1237 1008 1451 985 1468 982 1487 965 1501 949"/></g>
<polygon  style="fill:blue" points="1502,951 1507,942 1499,948 1502,951 "/>
<text x="763" y="1000" style="font-family:Times;font-size:14.00" >base URI</text>
<g  style="fill:none;stroke:blue"><path d="M122 859C178 866 279 878 339 884 467 896 595 913 723 918 936 925 1317 924 1462 924"/></g>
<polygon  style="fill:blue" points="1460,926 1470,924 1460,921 1460,926 "/>
<text x="742" y="914" style="font-family:Times;font-size:14.00" >system identifier</text>
<ellipse  cx="553" cy="1050" rx="38" ry="18" style="fill:#87d0ff" />
<ellipse  cx="553" cy="1050" rx="38" ry="18" style="fill:none;stroke:#87d0ff" />
<text x="525" y="1054" style="font-family:Times;font-size:14.00" >EncName</text>
<g  style="fill:none;stroke:blue"><path d="M83 872C89 913 107 1016 155 1037 247 1075 426 1063 509 1055"/></g>
<polygon  style="fill:blue" points="506,1058 516,1054 506,1053 506,1058 "/>
<text x="162" y="1033" style="font-family:Times;font-size:14.00" >character encoding scheme</text>
<ellipse  cx="418" cy="1100" rx="57" ry="18" style="fill:#87d0ff" />
<ellipse  cx="418" cy="1100" rx="57" ry="18" style="fill:none;stroke:#87d0ff" />
<text x="371" y="1104" style="font-family:Times;font-size:14.00" >Standalone Type</text>
<g  style="fill:none;stroke:blue"><path d="M82 872C86 920 102 1049 155 1089 201 1121 296 1117 359 1109"/></g>
<polygon  style="fill:blue" points="357,1112 367,1108 357,1107 357,1112 "/>
<text x="208" y="1085" style="font-family:Times;font-size:14.00" >standalone</text>
<ellipse  cx="2295" cy="328" rx="32" ry="18" style="fill:none;stroke:black" />
<text x="2273" y="332" style="font-family:Times;font-size:14.00" >Version</text>
<g  style="fill:none;stroke:blue"><path d="M83 836C96 725 175 124 418 124 418 124 418 124 1844 124 1946 124 2050 137 2143 176 2188 194 2205 250 2239 285 2247 292 2259 302 2270 310"/></g>
<polygon  style="fill:blue" points="2266,310 2275,314 2269,306 2266,310 "/>
<text x="1243" y="120" style="font-family:Times;font-size:14.00" >version</text>
<polygon  style="fill:#87d0ff" points="418,1136 369,1154 418,1172 467,1154 418,1136 "/>
<polygon  style="fill:none;stroke:#87d0ff" points="418,1136 369,1154 418,1172 467,1154 418,1136 "/>
<text x="393" y="1158" style="font-family:Times;font-size:14.00" >Notation</text>
<g  style="fill:none;stroke:#ffa200;stroke-width:3"><path d="M81 872C81 966 86 1076 155 1138 202 1179 315 1170 377 1161"/></g>
<polygon  style="fill:#ffa200" points="375,1164 385,1160 375,1159 375,1164 "/>
<text x="212" y="1134" style="font-family:Times;font-size:14.00" >notations</text>
<polygon  style="fill:#87d0ff" points="418,1190 339,1208 418,1226 497,1208 418,1190 "/>
<polygon  style="fill:none;stroke:#87d0ff" points="418,1190 339,1208 418,1226 497,1208 418,1190 "/>
<text x="372" y="1212" style="font-family:Times;font-size:14.00" >Unparsed Entity</text>
<g  style="fill:none;stroke:#ffa200;stroke-width:3"><path d="M85 871C100 940 155 1191 155 1191 196 1233 301 1227 365 1217"/></g>
<polygon  style="fill:#ffa200" points="364,1220 374,1216 364,1215 364,1220 "/>
<text x="191" y="1187" style="font-family:Times;font-size:14.00" >unparsed entities</text>
<g  style="fill:none;stroke:purple"><path d="M87 830C99 795 123 732 155 715 214 683 330 671 386 671"/></g>
<polygon  style="fill:purple" points="85,827 85,837 90,828 85,827 "/>
<g  style="fill:none;stroke:purple"><path d="M447 666C494 650 585 612 630 589"/></g>
<polygon  style="fill:purple" points="631,591 639,585 629,587 631,591 "/>
<g  style="fill:none;stroke:purple"><path d="M102 838C118 830 141 823 155 822 559 783 964 762 1367 723 1377 722 1377 704 1385 701 1408 692 1443 682 1472 676"/></g>
<polygon  style="fill:purple" points="104,834 97,841 107,838 104,834 "/>
<g  style="fill:none;stroke:purple"><path d="M678 556C692 548 711 540 723 538 773 529 823 531 873 530 1038 525 1207 507 1367 543 1412 552 1434 605 1469 634 1477 640 1491 648 1502 655"/></g>
<polygon  style="fill:purple" points="677,554 670,561 680,558 677,554 "/>
<polygon  style="fill:#87d0ff" points="1844,654 1717,672 1844,690 1971,672 1844,654 "/>
<polygon  style="fill:none;stroke:#87d0ff" points="1844,654 1717,672 1844,690 1971,672 1844,654 "/>
<text x="1764" y="676" style="font-family:Times;font-size:14.00" >Document Type Declaration</text>
<g  style="fill:none;stroke:purple"><path d="M1567 677C1615 679 1690 679 1751 678"/></g>
<polygon  style="fill:purple" points="1749,680 1759,678 1749,675 1749,680 "/>
<g  style="fill:none;stroke:green;stroke-width:3"><path d="M439 838C490 797 617 692 650 599"/></g>
<polygon  style="fill:green" points="652,601 653,591 647,599 652,601 "/>
<g  style="fill:none;stroke:green;stroke-width:3"><path d="M460 848C479 845 500 843 515 842 541 840 566 841 591 842 850 850 1118 934 1367 864 1498 827 1718 729 1806 689"/></g>
<polygon  style="fill:green" points="1806,692 1814,686 1804,687 1806,692 "/>
<polygon  style="fill:#87d0ff" points="1264,816 1161,834 1264,852 1367,834 1264,816 "/>
<polygon  style="fill:none;stroke:#87d0ff" points="1264,816 1161,834 1264,852 1367,834 1264,816 "/>
<text x="1202" y="838" style="font-family:Times;font-size:14.00" >Processing Instruction</text>
<g  style="fill:none;stroke:green;stroke-width:3"><path d="M447 868C468 877 496 888 515 890 628 899 742 898 855 890 952 882 1114 858 1202 844"/></g>
<polygon  style="fill:green" points="1200,847 1210,843 1200,842 1200,847 "/>
<polygon  style="fill:#87d0ff" points="1264,651 1211,669 1264,687 1317,669 1264,651 "/>
<polygon  style="fill:none;stroke:#87d0ff" points="1264,651 1211,669 1264,687 1317,669 1264,651 "/>
<text x="1236" y="673" style="font-family:Times;font-size:14.00" >Comment</text>
<g  style="fill:none;stroke:green;stroke-width:3"><path d="M462 857C501 858 557 859 591 852 778 811 1112 714 1225 680"/></g>
<polygon  style="fill:green" points="1226,682 1235,677 1225,677 1226,682 "/>
<g  style="fill:none;stroke:#7ec3ee"><path d="M446 658C492 635 583 597 629 581"/></g>
<polygon  style="fill:#7ec3ee" points="448,654 440,661 450,659 448,654 "/>
<g  style="fill:none;stroke:blue"><path d="M458 674C499 674 557 670 591 656 614 646 637 610 649 589"/></g>
<polygon  style="fill:blue" points="460,671 450,674 460,676 460,671 "/>
<text x="536" y="652" style="font-family:Times;font-size:14.00" >parent</text>
<g  style="fill:none;stroke:#7ec3ee"><path d="M687 567C699 563 713 557 723 556 773 547 823 549 873 548 1038 543 1207 525 1367 561 1412 570 1434 623 1469 652 1470 653 1472 654 1473 655"/></g>
<polygon  style="fill:#7ec3ee" points="1472,658 1482,661 1475,653 1472,658 "/>
<g  style="fill:none;stroke:blue"><path d="M693 579C740 585 823 595 873 599 1038 611 1206 551 1367 585 1384 588 1377 617 1385 632 1405 662 1436 685 1451 719 1473 767 1500 853 1513 897"/></g>
<polygon  style="fill:blue" points="1510,897 1515,906 1515,896 1510,897 "/>
<text x="1051" y="577" style="font-family:Times;font-size:14.00" >base URI</text>
<ellipse  cx="933" cy="661" rx="32" ry="18" style="fill:none;stroke:black" />
<text x="911" y="665" style="font-family:Times;font-size:14.00" >Content</text>
<g  style="fill:none;stroke:blue"><path d="M666 589C678 608 702 639 723 646 767 660 843 662 890 662"/></g>
<polygon  style="fill:blue" points="890,664 900,662 890,659 890,664 "/>
<text x="766" y="642" style="font-family:Times;font-size:14.00" >children</text>
<ellipse  cx="1844" cy="472" rx="61" ry="18" style="fill:none;stroke:black" />
<text x="1793" y="476" style="font-family:Times;font-size:14.00" >Namespace Name</text>
<g  style="fill:none;stroke:blue"><path d="M672 561C695 529 685 459 723 450 959 390 1209 450 1451 458 1540 461 1689 467 1775 470"/></g>
<polygon  style="fill:blue" points="1773,472 1783,470 1773,467 1773,472 "/>
<text x="1217" y="430" style="font-family:Times;font-size:14.00" >namespace name</text>
<ellipse  cx="2436" cy="543" rx="36" ry="18" style="fill:#87d0ff" />
<ellipse  cx="2436" cy="543" rx="36" ry="18" style="fill:none;stroke:#87d0ff" />
<text x="2410" y="547" style="font-family:Times;font-size:14.00" >NCName</text>
<g  style="fill:none;stroke:blue"><path d="M672 561C691 545 723 517 723 517 816 489 915 506 1011 505 1130 502 1249 507 1367 515 1658 533 1949 555 2239 573 2277 575 2315 578 2351 573 2351 573 2375 564 2398 556"/></g>
<polygon  style="fill:blue" points="2398,559 2406,553 2396,554 2398,559 "/>
<text x="1614" y="525" style="font-family:Times;font-size:14.00" >local name</text>
<ellipse  cx="2295" cy="543" rx="27" ry="18" style="fill:none;stroke:black" />
<text x="2278" y="547" style="font-family:Times;font-size:14.00" >Prefix</text>
<g  style="fill:none;stroke:blue"><path d="M660 591C669 629 690 668 723 686 852 755 1015 696 1161 699 1230 700 1299 706 1367 699 1378 697 1376 678 1385 673 1412 658 1440 646 1469 642 1702 608 2136 560 2261 547"/></g>
<polygon  style="fill:blue" points="2258,550 2268,546 2258,545 2258,550 "/>
<text x="1503" y="625" style="font-family:Times;font-size:14.00" >prefix</text>
<polygon  style="fill:#87d0ff" points="1520,313 1470,331 1520,349 1570,331 1520,313 "/>
<polygon  style="fill:none;stroke:#87d0ff" points="1520,313 1470,331 1520,349 1570,331 1520,313 "/>
<text x="1495" y="335" style="font-family:Times;font-size:14.00" >Attribute</text>
<g  style="fill:none;stroke:#ffa200;stroke-width:3"><path d="M660 557C668 509 694 373 723 366 931 306 1327 320 1469 328"/></g>
<polygon  style="fill:#ffa200" points="1467,330 1477,328 1467,325 1467,330 "/>
<text x="1051" y="318" style="font-family:Times;font-size:14.00" >attributes</text>
<g  style="fill:none;stroke:#ffa200;stroke-width:3"><path d="M670 561C698 516 673 425 723 412 931 353 1319 337 1465 332"/></g>
<polygon  style="fill:#ffa200" points="1463,334 1473,332 1463,329 1463,334 "/>
<text x="1019" y="346" style="font-family:Times;font-size:14.00" >namespace attributes</text>
<polygon  style="fill:#87d0ff" points="933,551 873,569 933,587 993,569 933,551 "/>
<polygon  style="fill:none;stroke:#87d0ff" points="933,551 873,569 933,587 993,569 933,551 "/>
<text x="901" y="573" style="font-family:Times;font-size:14.00" >Namespace</text>
<g  style="fill:none;stroke:#ffa200;stroke-width:3"><path d="M703 573C747 572 815 571 865 570"/></g>
<polygon  style="fill:#ffa200" points="866,572 876,570 866,567 866,572 "/>
<text x="730" y="566" style="font-family:Times;font-size:14.00" >in-scope namespaces</text>
<g  style="fill:none;stroke:#7ec3ee"><path d="M1535 907C1571 859 1665 725 1717 651 1748 608 1802 536 1829 498"/></g>
<polygon  style="fill:#7ec3ee" points="1831,500 1834,490 1827,497 1831,500 "/>
<ellipse  cx="2736" cy="632" rx="29" ry="18" style="fill:none;stroke:black" />
<text x="2717" y="636" style="font-family:Times;font-size:14.00" >Literal</text>
<g  style="fill:none;stroke:#7ec3ee"><path d="M1553 938C1618 963 1759 1015 1844 1015 1844 1015 1844 1015 2641 1015 2696 1015 2726 743 2733 657"/></g>
<polygon  style="fill:#7ec3ee" points="2735,660 2734,650 2730,660 2735,660 "/>
<ellipse  cx="2548" cy="840" rx="27" ry="18" style="fill:#87d0ff" />
<ellipse  cx="2548" cy="840" rx="27" ry="18" style="fill:none;stroke:#87d0ff" />
<text x="2531" y="844" style="font-family:Times;font-size:14.00" >Name</text>
<g  style="fill:none;stroke:#7ec3ee"><path d="M591 1051C643 1052 735 1053 789 1053 789 1053 789 1053 2295 1053 2383 1053 2491 919 2532 863"/></g>
<polygon  style="fill:#7ec3ee" points="2533,866 2537,856 2529,863 2533,866 "/>
<text x="648" y="1106" style="font-family:Times;font-size:14.00" >yes</text>
<g  style="fill:none;stroke:green"><path d="M476 1100C521 1101 583 1101 622 1102"/></g>
<polygon  style="fill:green" points="620,1104 630,1102 620,1099 620,1104 "/>
<text x="530" y="1096" style="font-family:Times;font-size:14.00" >one of...</text>
<text x="650" y="1160" style="font-family:Times;font-size:14.00" >no</text>
<g  style="fill:none;stroke:green"><path d="M464 1111C510 1121 579 1138 621 1148"/></g>
<polygon  style="fill:green" points="620,1150 630,1150 621,1145 620,1150 "/>
<text x="530" y="1118" style="font-family:Times;font-size:14.00" >one of...</text>
<ellipse  cx="2105" cy="472" rx="37" ry="18" style="fill:#87d0ff" />
<ellipse  cx="2105" cy="472" rx="37" ry="18" style="fill:none;stroke:#87d0ff" />
<text x="2078" y="476" style="font-family:Times;font-size:14.00" >No Value</text>
<g  style="fill:none;stroke:purple"><path d="M2126 452C2162 422 2235 366 2272 341"/></g>
<polygon  style="fill:purple" points="2127,448 2121,456 2130,452 2127,448 "/>
<ellipse  cx="2436" cy="328" rx="46" ry="18" style="fill:#87d0ff" />
<ellipse  cx="2436" cy="328" rx="46" ry="18" style="fill:none;stroke:#87d0ff" />
<text x="2400" y="332" style="font-family:Times;font-size:14.00" >VersionNum</text>
<g  style="fill:none;stroke:purple"><path d="M2326 334C2342 335 2363 335 2382 334"/></g>
<polygon  style="fill:purple" points="2382,336 2392,334 2382,331 2382,336 "/>
<g  style="fill:none;stroke:#7ec3ee"><path d="M1574 667C1624 665 1700 665 1759 666"/></g>
<polygon  style="fill:#7ec3ee" points="1577,664 1567,667 1577,669 1577,664 "/>
<g  style="fill:none;stroke:blue"><path d="M1307 823C1328 817 1353 809 1367 800 1406 776 1463 725 1495 695"/></g>
<polygon  style="fill:blue" points="1496,697 1502,689 1493,694 1496,697 "/>
<text x="1401" y="729" style="font-family:Times;font-size:14.00" >parent</text>
<g  style="fill:none;stroke:blue"><path d="M1298 846C1345 862 1427 891 1477 910"/></g>
<polygon  style="fill:blue" points="1474,912 1484,912 1475,907 1474,912 "/>
<text x="1392" y="872" style="font-family:Times;font-size:14.00" >base URI</text>
<g  style="fill:none;stroke:blue"><path d="M1351 837C1406 838 1475 840 1520 840 1520 840 1520 840 2436 840 2456 840 2487 840 2512 840"/></g>
<polygon  style="fill:blue" points="2511,842 2521,840 2511,837 2511,842 "/>
<text x="2089" y="836" style="font-family:Times;font-size:14.00" >target</text>
<ellipse  cx="2641" cy="632" rx="27" ry="18" style="fill:none;stroke:black" />
<text x="2624" y="636" style="font-family:Times;font-size:14.00" >String</text>
<g  style="fill:none;stroke:blue"><path d="M1324 827C1352 823 1380 820 1385 820 1689 808 1992 794 2295 794 2295 794 2295 794 2548 794 2571 794 2611 705 2630 659"/></g>
<polygon  style="fill:blue" points="2632,660 2634,650 2628,658 2632,660 "/>
<text x="2170" y="791" style="font-family:Times;font-size:14.00" >content</text>
<g  style="fill:none;stroke:green;stroke-width:3"><path d="M668 597C680 621 701 657 723 668 769 689 856 677 903 668"/></g>
<polygon  style="fill:green" points="671,597 664,590 667,600 671,597 "/>
<g  style="fill:none;stroke:green;stroke-width:3"><path d="M957 673C1014 704 1162 781 1229 815"/></g>
<polygon  style="fill:green" points="1228,817 1238,820 1230,813 1228,817 "/>
<g  style="fill:none;stroke:green;stroke-width:3"><path d="M966 662C1021 663 1134 666 1205 668"/></g>
<polygon  style="fill:green" points="1204,670 1214,668 1204,665 1204,670 "/>
<polygon  style="fill:#87d0ff" points="1264,597 1211,615 1264,633 1317,615 1264,597 "/>
<polygon  style="fill:none;stroke:#87d0ff" points="1264,597 1211,615 1264,633 1317,615 1264,597 "/>
<text x="1237" y="619" style="font-family:Times;font-size:14.00" >Character</text>
<g  style="fill:none;stroke:green;stroke-width:3"><path d="M964 655C980 652 998 648 1011 647 1067 639 1161 627 1217 621"/></g>
<polygon  style="fill:green" points="1215,624 1225,620 1215,619 1215,624 "/>
<g  style="fill:none;stroke:purple"><path d="M1535 899C1570 843 1664 708 1717 633 1747 591 1799 522 1826 489"/></g>
<polygon  style="fill:purple" points="1534,896 1530,906 1538,899 1534,896 "/>
<g  style="fill:none;stroke:purple"><path d="M1902 478C1950 479 2015 479 2060 477"/></g>
<polygon  style="fill:purple" points="2059,479 2069,477 2059,474 2059,479 "/>
<g  style="fill:none;stroke:#7ec3ee"><path d="M2331 537C2352 536 2380 536 2402 537"/></g>
<polygon  style="fill:#7ec3ee" points="2332,534 2322,538 2332,539 2332,534 "/>
<g  style="fill:none;stroke:#7ec3ee"><path d="M2443 561C2462 613 2517 756 2538 815"/></g>
<polygon  style="fill:#7ec3ee" points="2535,815 2541,823 2540,813 2535,815 "/>
<g  style="fill:none;stroke:purple"><path d="M2322 548C2341 550 2369 550 2392 549"/></g>
<polygon  style="fill:purple" points="2392,551 2402,549 2392,546 2392,551 "/>
<g  style="fill:none;stroke:purple"><path d="M2137 489C2145 495 2154 501 2161 504 2190 515 2242 525 2272 533"/></g>
<polygon  style="fill:purple" points="2141,488 2131,485 2138,493 2141,488 "/>
<g  style="fill:none;stroke:blue"><path d="M657 549C660 473 676 392 723 336 861 170 1153 298 1367 305 1396 305 1424 303 1451 308 1463 310 1481 316 1496 321"/></g>
<polygon  style="fill:blue" points="655,546 657,556 660,546 655,546 "/>
<text x="1036" y="251" style="font-family:Times;font-size:14.00" >owner element</text>
<g  style="fill:none;stroke:blue"><path d="M1528 346C1541 367 1566 404 1589 415 1638 436 1723 452 1782 463"/></g>
<polygon  style="fill:blue" points="1780,465 1790,464 1780,460 1780,465 "/>
<text x="1597" y="411" style="font-family:Times;font-size:14.00" >namespace name</text>
<g  style="fill:none;stroke:blue"><path d="M1564 333C1702 341 2126 368 2351 420 2386 427 2413 485 2427 518"/></g>
<polygon  style="fill:blue" points="2424,517 2430,525 2428,515 2424,517 "/>
<text x="2075" y="372" style="font-family:Times;font-size:14.00" >local name</text>
<g  style="fill:none;stroke:blue"><path d="M1541 342C1556 349 1576 358 1589 361 1773 393 1960 406 2143 442 2155 444 2152 464 2161 472 2174 482 2231 511 2266 528"/></g>
<polygon  style="fill:blue" points="2263,529 2273,532 2266,525 2263,529 "/>
<text x="2002" y="414" style="font-family:Times;font-size:14.00" >prefix</text>
<g  style="fill:none;stroke:blue"><path d="M1554 325C1567 323 1580 321 1589 321 1774 308 1959 302 2143 290 2194 286 2245 274 2295 274 2295 274 2295 274 2548 274 2600 274 2630 525 2638 607"/></g>
<polygon  style="fill:blue" points="2635,604 2639,614 2640,604 2635,604 "/>
<text x="2247" y="270" style="font-family:Times;font-size:14.00" >normalized value</text>
<ellipse  cx="1844" cy="206" rx="33" ry="18" style="fill:#87d0ff" />
<ellipse  cx="1844" cy="206" rx="33" ry="18" style="fill:none;stroke:#87d0ff" />
<text x="1821" y="210" style="font-family:Times;font-size:14.00" >Boolean</text>
<g  style="fill:none;stroke:blue"><path d="M1529 316C1542 295 1567 259 1589 251 1645 229 1746 215 1803 210"/></g>
<polygon  style="fill:blue" points="1801,213 1811,209 1801,208 1801,213 "/>
<text x="1619" y="223" style="font-family:Times;font-size:14.00" >specified</text>
<ellipse  cx="1844" cy="260" rx="51" ry="18" style="fill:none;stroke:black" />
<text x="1803" y="264" style="font-family:Times;font-size:14.00" >Attribute Type</text>
<g  style="fill:none;stroke:blue"><path d="M1536 318C1551 307 1573 292 1589 289 1642 278 1728 269 1785 265"/></g>
<polygon  style="fill:blue" points="1783,268 1793,264 1783,263 1783,268 "/>
<text x="1607" y="270" style="font-family:Times;font-size:14.00" >attribute type</text>
<g  style="fill:none;stroke:#7ec3ee"><path d="M2571 830C2581 825 2592 818 2595 811 2614 770 2629 697 2636 658"/></g>
<polygon  style="fill:#7ec3ee" points="2638,660 2638,650 2633,659 2638,660 "/>
<g  style="fill:none;stroke:#7ec3ee"><path d="M2129 458C2166 433 2236 380 2272 350"/></g>
<polygon  style="fill:#7ec3ee" points="2273,352 2279,344 2270,349 2273,352 "/>
<g  style="fill:none;stroke:#7ec3ee"><path d="M1909 466C1959 465 2027 465 2069 467"/></g>
<polygon  style="fill:#7ec3ee" points="1912,463 1902,466 1912,468 1912,463 "/>
<g  style="fill:none;stroke:#7ec3ee"><path d="M2117 489C2129 502 2148 516 2161 522 2186 531 2228 540 2258 544"/></g>
<polygon  style="fill:#7ec3ee" points="2258,546 2268,545 2258,542 2258,546 "/>
<text x="2271" y="454" style="font-family:Times;font-size:14.00" >no value</text>
<g  style="fill:none;stroke:green"><path d="M2142 468C2175 464 2223 458 2257 455"/></g>
<polygon  style="fill:green" points="2254,458 2264,454 2254,453 2254,458 "/>
<text x="2168" y="454" style="font-family:Times;font-size:14.00" >one of...</text>
<g  style="fill:none;stroke:#7ec3ee"><path d="M2332 322C2350 321 2373 321 2392 322"/></g>
<polygon  style="fill:#7ec3ee" points="2336,319 2326,322 2336,324 2336,319 "/>
<g  style="fill:none;stroke:#7ec3ee"><path d="M2448 346C2483 398 2584 549 2625 607"/></g>
<polygon  style="fill:#7ec3ee" points="2623,608 2630,615 2627,605 2623,608 "/>
<g  style="fill:none;stroke:#7ec3ee"><path d="M2669 632C2678 632 2688 632 2697 632"/></g>
<polygon  style="fill:#7ec3ee" points="2697,634 2707,632 2697,629 2697,634 "/>
<g  style="fill:none;stroke:#7ec3ee"><path d="M1872 196C1937 174 2098 122 2191 122 2191 122 2191 122 2641 122 2716 122 2732 500 2736 605"/></g>
<polygon  style="fill:#7ec3ee" points="2734,604 2736,614 2739,604 2734,604 "/>
<text x="2094" y="210" style="font-family:Times;font-size:14.00" >true</text>
<g  style="fill:none;stroke:green"><path d="M1878 206C1927 206 2017 206 2068 206"/></g>
<polygon  style="fill:green" points="2068,208 2078,206 2068,203 2068,208 "/>
<text x="1996" y="202" style="font-family:Times;font-size:14.00" >one of...</text>
<text x="2092" y="264" style="font-family:Times;font-size:14.00" >false</text>
<g  style="fill:none;stroke:green"><path d="M1875 213C1925 223 2020 242 2071 253"/></g>
<polygon  style="fill:green" points="2068,255 2078,254 2068,250 2068,255 "/>
<text x="1996" y="232" style="font-family:Times;font-size:14.00" >one of...</text>
<polygon  style="fill:#87d0ff" points="81,60 49,78 81,96 113,78 81,60 "/>
<polygon  style="fill:none;stroke:#87d0ff" points="81,60 49,78 81,96 113,78 81,60 "/>
<text x="68" y="82" style="font-family:Times;font-size:14.00" >Item</text>
<ellipse  cx="418" cy="78" rx="43" ry="18" style="fill:none;stroke:black" />
<text x="385" y="82" style="font-family:Times;font-size:14.00" >Some Class</text>
<g  style="fill:none;stroke:blue"><path d="M114 78C172 78 294 78 365 78"/></g>
<polygon  style="fill:blue" points="365,80 375,78 365,75 365,80 "/>
<text x="229" y="74" style="font-family:Times;font-size:14.00" >1-1</text>
<ellipse  cx="657" cy="78" rx="40" ry="18" style="fill:none;stroke:black" />
<text x="627" y="82" style="font-family:Times;font-size:14.00" >Superclass</text>
<g  style="fill:none;stroke:#7ec3ee"><path d="M461 78C502 78 565 78 608 78"/></g>
<polygon  style="fill:#7ec3ee" points="607,80 617,78 607,75 607,80 "/>
</svg>
