<!-- Generated by dot version 1.7.5 (Sun Mar 25 18:55:43 MST 2001)
     For: (connolly) 
     Title: N957
     Pages: 1
-->
<svg width="1276pt" height="964pt" >
<text x="-114" y="522" style="font-family:Times;font-size:14.00" >XML Infoset $Date$</text>
<ellipse  cx="64" cy="711" rx="39" ry="18" style="fill:none;stroke:black" />
<text x="35" y="715" style="font-family:Times;font-size:14.00" >Document</text>
<ellipse  cx="365" cy="138" rx="44" ry="18" style="fill:none;stroke:black" />
<text x="331" y="142" style="font-family:Times;font-size:14.00" >Doc Items...</text>
<g  style="fill:none;stroke:blue"><path d="M66 693C71 644 88 508 122 442 170 352 292 217 342 162"/></g>
<polygon  style="fill:blue" points="344,164 349,155 340,160 344,164 "/>
<text x="182" y="220" style="font-family:Times;font-size:14.00" >children</text>
<ellipse  cx="658" cy="362" rx="33" ry="18" style="fill:none;stroke:black" />
<text x="635" y="366" style="font-family:Times;font-size:14.00" >Element</text>
<g  style="fill:none;stroke:blue"><path d="M68 693C76 663 93 604 122 588 258 508 525 410 622 375"/></g>
<polygon  style="fill:blue" points="622,378 630,372 620,373 622,378 "/>
<text x="314" y="448" style="font-family:Times;font-size:14.00" >document element</text>
<ellipse  cx="971" cy="605" rx="49" ry="18" style="fill:none;stroke:black" />
<text x="932" y="609" style="font-family:Times;font-size:14.00" >Absolute URI</text>
<g  style="fill:none;stroke:blue"><path d="M72 693C83 673 102 642 122 640 348 614 760 607 912 605"/></g>
<polygon  style="fill:blue" points="911,607 921,605 911,602 911,607 "/>
<text x="470" y="611" style="font-family:Times;font-size:14.00" >base URI</text>
<g  style="fill:none;stroke:blue"><path d="M91 698C102 693 113 689 122 688 381 658 640 640 898 615 903 614 910 614 917 613"/></g>
<polygon  style="fill:blue" points="914,616 924,612 914,611 914,616 "/>
<text x="449" y="642" style="font-family:Times;font-size:14.00" >system identifier</text>
<ellipse  cx="496" cy="711" rx="38" ry="18" style="fill:#87d0ff" />
<ellipse  cx="496" cy="711" rx="38" ry="18" style="fill:none;stroke:#87d0ff" />
<text x="468" y="715" style="font-family:Times;font-size:14.00" >EncName</text>
<g  style="fill:none;stroke:blue"><path d="M104 711C185 711 365 711 450 711"/></g>
<polygon  style="fill:blue" points="448,713 458,711 448,708 448,713 "/>
<text x="129" y="707" style="font-family:Times;font-size:14.00" >character encoding scheme</text>
<ellipse  cx="365" cy="763" rx="57" ry="18" style="fill:#87d0ff" />
<ellipse  cx="365" cy="763" rx="57" ry="18" style="fill:none;stroke:#87d0ff" />
<text x="318" y="767" style="font-family:Times;font-size:14.00" >Standalone Type</text>
<g  style="fill:none;stroke:blue"><path d="M81 727C93 737 110 749 122 752 169 760 246 762 300 763"/></g>
<polygon  style="fill:blue" points="297,765 307,763 297,760 297,765 "/>
<text x="175" y="748" style="font-family:Times;font-size:14.00" >standalone</text>
<ellipse  cx="1195" cy="788" rx="32" ry="18" style="fill:none;stroke:black" />
<text x="1173" y="792" style="font-family:Times;font-size:14.00" >Version</text>
<g  style="fill:none;stroke:blue"><path d="M78 728C90 742 108 761 122 769 200 808 278 866 365 866 365 866 365 866 971 866 1027 866 1114 828 1162 805"/></g>
<polygon  style="fill:blue" points="1163,807 1171,800 1161,803 1163,807 "/>
<text x="637" y="862" style="font-family:Times;font-size:14.00" >version</text>
<ellipse  cx="365" cy="912" rx="35" ry="18" style="fill:#87d0ff" />
<ellipse  cx="365" cy="912" rx="35" ry="18" style="fill:none;stroke:#87d0ff" />
<text x="340" y="916" style="font-family:Times;font-size:14.00" >Notation</text>
<g  style="fill:none;stroke:#ffa200"><path d="M65 729C68 771 80 870 122 899 169 931 268 925 324 918"/></g>
<polygon  style="fill:#ffa200" points="321,921 331,917 321,916 321,921 "/>
<text x="179" y="895" style="font-family:Times;font-size:14.00" >notations</text>
<ellipse  cx="365" cy="966" rx="56" ry="18" style="fill:#87d0ff" />
<ellipse  cx="365" cy="966" rx="56" ry="18" style="fill:none;stroke:#87d0ff" />
<text x="319" y="970" style="font-family:Times;font-size:14.00" >Unparsed Entity</text>
<g  style="fill:none;stroke:#ffa200"><path d="M68 729C82 784 122 945 122 945 161 977 246 978 304 973"/></g>
<polygon  style="fill:#ffa200" points="302,976 312,972 302,971 302,976 "/>
<text x="158" y="941" style="font-family:Times;font-size:14.00" >unparsed entities</text>
<g  style="fill:none;stroke:green;stroke-width:3"><path d="M386 154C438 193 573 297 631 341"/></g>
<polygon  style="fill:green" points="630,343 639,347 633,339 630,343 "/>
<ellipse  cx="1195" cy="88" rx="72" ry="18" style="fill:none;stroke:black" />
<text x="1133" y="92" style="font-family:Times;font-size:14.00" >Processing Instruction</text>
<g  style="fill:none;stroke:green;stroke-width:3"><path d="M397 125C411 119 424 114 424 114 432 111 435 100 442 97 483 83 525 67 568 62 722 45 991 67 1120 80"/></g>
<polygon  style="fill:green" points="1118,82 1128,81 1118,77 1118,82 "/>
<ellipse  cx="1195" cy="146" rx="38" ry="18" style="fill:none;stroke:black" />
<text x="1167" y="150" style="font-family:Times;font-size:14.00" >Comment</text>
<g  style="fill:none;stroke:green;stroke-width:3"><path d="M410 138C553 140 1003 144 1149 146"/></g>
<polygon  style="fill:green" points="1147,148 1157,146 1147,143 1147,148 "/>
<ellipse  cx="658" cy="92" rx="90" ry="18" style="fill:none;stroke:black" />
<text x="578" y="96" style="font-family:Times;font-size:14.00" >Document Type Declaration</text>
<g  style="fill:none;stroke:green;stroke-width:3"><path d="M404 129C418 126 432 123 442 121 477 115 528 109 573 103"/></g>
<polygon  style="fill:green" points="572,106 582,102 572,101 572,106 "/>
<g  style="fill:none;stroke:blue"><path d="M665 380C681 419 722 514 766 548 785 561 866 582 921 594"/></g>
<polygon  style="fill:blue" points="918,596 928,596 919,591 918,596 "/>
<text x="806" y="544" style="font-family:Times;font-size:14.00" >base URI</text>
<ellipse  cx="971" cy="184" rx="32" ry="18" style="fill:none;stroke:black" />
<text x="949" y="188" style="font-family:Times;font-size:14.00" >Content</text>
<g  style="fill:none;stroke:blue"><path d="M667 344C684 310 726 235 766 211 805 189 881 184 928 183"/></g>
<polygon  style="fill:blue" points="928,185 938,183 928,180 928,185 "/>
<text x="809" y="181" style="font-family:Times;font-size:14.00" >children</text>
<ellipse  cx="1195" cy="560" rx="61" ry="18" style="fill:none;stroke:black" />
<text x="1144" y="564" style="font-family:Times;font-size:14.00" >Namespace Name</text>
<g  style="fill:none;stroke:blue"><path d="M673 379C700 406 735 424 766 445 815 478 860 519 916 535 971 549 1062 555 1125 559"/></g>
<polygon  style="fill:blue" points="1124,561 1134,559 1124,556 1124,561 "/>
<text x="924" y="531" style="font-family:Times;font-size:14.00" >namespace name</text>
<ellipse  cx="971" cy="432" rx="36" ry="18" style="fill:#87d0ff" />
<ellipse  cx="971" cy="432" rx="36" ry="18" style="fill:none;stroke:#87d0ff" />
<text x="945" y="436" style="font-family:Times;font-size:14.00" >NCName</text>
<g  style="fill:none;stroke:blue"><path d="M676 377C699 396 738 426 766 432 808 441 879 439 925 436"/></g>
<polygon  style="fill:blue" points="925,438 935,435 925,434 925,438 "/>
<text x="802" y="428" style="font-family:Times;font-size:14.00" >local name</text>
<ellipse  cx="1195" cy="356" rx="27" ry="18" style="fill:none;stroke:black" />
<text x="1178" y="360" style="font-family:Times;font-size:14.00" >Prefix</text>
<g  style="fill:none;stroke:blue"><path d="M690 356C714 351 746 346 766 344 877 336 1074 348 1157 353"/></g>
<polygon  style="fill:blue" points="1158,356 1168,354 1158,351 1158,356 "/>
<text x="954" y="342" style="font-family:Times;font-size:14.00" >prefix</text>
<ellipse  cx="971" cy="375" rx="35" ry="18" style="fill:#87d0ff" />
<ellipse  cx="971" cy="375" rx="35" ry="18" style="fill:none;stroke:#87d0ff" />
<text x="946" y="379" style="font-family:Times;font-size:14.00" >Attribute</text>
<g  style="fill:none;stroke:#ffa200"><path d="M683 374C707 385 743 399 766 403 810 411 855 409 898 403 908 401 923 397 936 392"/></g>
<polygon  style="fill:#ffa200" points="937,394 945,388 935,390 937,394 "/>
<text x="806" y="399" style="font-family:Times;font-size:14.00" >attributes</text>
<g  style="fill:none;stroke:#ffa200"><path d="M691 363C748 366 863 371 927 374"/></g>
<polygon  style="fill:#ffa200" points="925,376 935,374 925,371 925,376 "/>
<text x="774" y="363" style="font-family:Times;font-size:14.00" >namespace attributes</text>
<ellipse  cx="971" cy="266" rx="42" ry="18" style="fill:#87d0ff" />
<ellipse  cx="971" cy="266" rx="42" ry="18" style="fill:none;stroke:#87d0ff" />
<text x="939" y="270" style="font-family:Times;font-size:14.00" >Namespace</text>
<g  style="fill:none;stroke:#ffa200"><path d="M679 348C703 333 741 309 766 301 807 289 874 278 920 272"/></g>
<polygon  style="fill:#ffa200" points="920,274 930,271 920,270 920,274 "/>
<text x="773" y="272" style="font-family:Times;font-size:14.00" >in-scope namespaces</text>
<g  style="fill:none;stroke:#7ec3ee"><path d="M1014 596C1049 589 1098 579 1136 572"/></g>
<polygon  style="fill:#7ec3ee" points="1135,575 1144,570 1134,570 1135,575 "/>
<ellipse  cx="1195" cy="674" rx="29" ry="18" style="fill:none;stroke:black" />
<text x="1176" y="678" style="font-family:Times;font-size:14.00" >Literal</text>
<g  style="fill:none;stroke:#7ec3ee"><path d="M1009 617C1051 630 1119 651 1161 663"/></g>
<polygon  style="fill:#7ec3ee" points="1159,665 1169,666 1161,660 1159,665 "/>
<g  style="fill:none;stroke:#7ec3ee"><path d="M534 709C655 702 1032 682 1155 676"/></g>
<polygon  style="fill:#7ec3ee" points="1156,678 1166,676 1156,673 1156,678 "/>
<text x="649" y="764" style="font-family:Times;font-size:14.00" >yes</text>
<g  style="fill:none;stroke:blue;stroke-width:3"><path d="M423 762C482 762 570 761 621 760"/></g>
<polygon  style="fill:blue" points="621,762 631,760 621,757 621,762 "/>
<text x="473" y="757" style="font-family:Times;font-size:14.00" >one of...</text>
<text x="651" y="818" style="font-family:Times;font-size:14.00" >no</text>
<g  style="fill:none;stroke:blue;stroke-width:3"><path d="M406 776C419 779 432 783 442 785 491 793 574 804 621 810"/></g>
<polygon  style="fill:blue" points="621,812 631,811 621,808 621,812 "/>
<text x="473" y="781" style="font-family:Times;font-size:14.00" >one of...</text>
<ellipse  cx="64" cy="84" rx="27" ry="18" style="fill:none;stroke:black" />
<text x="55" y="88" style="font-family:Times;font-size:14.00" >Set</text>
<ellipse  cx="365" cy="84" rx="27" ry="18" style="fill:none;stroke:black" />
<text x="350" y="88" style="font-family:Times;font-size:14.00" >Class</text>
<g  style="fill:none;stroke:red"><path d="M91 84C145 84 269 84 330 84"/></g>
<polygon  style="fill:red" points="328,86 338,84 328,81 328,86 "/>
<text x="190" y="80" style="font-family:Times;font-size:14.00" >set of</text>
<g  style="fill:none;stroke:green;stroke-width:3"><path d="M676 340C699 314 737 271 766 253 806 230 855 233 898 218 912 214 932 204 947 196"/></g>
<polygon  style="fill:green" points="676,336 672,345 680,339 676,336 "/>
<g  style="fill:none;stroke:green;stroke-width:3"><path d="M996 172C1029 157 1087 130 1122 116 1129 114 1139 110 1149 106"/></g>
<polygon  style="fill:green" points="1148,109 1156,103 1146,105 1148,109 "/>
<g  style="fill:none;stroke:green;stroke-width:3"><path d="M1002 179C1040 172 1106 161 1150 153"/></g>
<polygon  style="fill:green" points="1149,156 1159,152 1149,151 1149,156 "/>
<ellipse  cx="1195" cy="214" rx="37" ry="18" style="fill:none;stroke:black" />
<text x="1168" y="218" style="font-family:Times;font-size:14.00" >Character</text>
<g  style="fill:none;stroke:green;stroke-width:3"><path d="M1003 188C1041 194 1106 203 1150 208"/></g>
<polygon  style="fill:green" points="1149,210 1159,209 1149,205 1149,210 "/>
<g  style="fill:none;stroke:#7ec3ee"><path d="M999 420C1009 416 1019 410 1026 405 1035 399 1034 381 1044 377 1075 369 1127 362 1161 359"/></g>
<polygon  style="fill:#7ec3ee" points="1158,362 1168,358 1158,357 1158,362 "/>
<g  style="fill:none;stroke:#7ec3ee"><path d="M1008 432C1040 434 1085 440 1104 459 1135 491 1105 549 1122 590 1131 610 1154 635 1172 653"/></g>
<polygon  style="fill:#7ec3ee" points="1170,654 1179,659 1173,651 1170,654 "/>
<ellipse  cx="971" cy="489" rx="37" ry="18" style="fill:#87d0ff" />
<ellipse  cx="971" cy="489" rx="37" ry="18" style="fill:none;stroke:#87d0ff" />
<text x="944" y="493" style="font-family:Times;font-size:14.00" >No Value</text>
<g  style="fill:none;stroke:#7ec3ee"><path d="M998 502C1009 508 1021 516 1026 524 1066 579 1086 646 1122 704 1134 722 1157 747 1174 766"/></g>
<polygon  style="fill:#7ec3ee" points="1171,767 1180,772 1175,763 1171,767 "/>
<g  style="fill:none;stroke:#7ec3ee"><path d="M1003 499C1039 511 1100 530 1144 544"/></g>
<polygon  style="fill:#7ec3ee" points="1143,546 1153,547 1144,541 1143,546 "/>
<g  style="fill:none;stroke:#7ec3ee"><path d="M998 476C1012 469 1026 462 1026 462 1066 440 1132 397 1168 374"/></g>
<polygon  style="fill:#7ec3ee" points="1168,377 1175,369 1165,373 1168,377 "/>
<text x="1171" y="480" style="font-family:Times;font-size:14.00" >no value</text>
<g  style="fill:none;stroke:blue;stroke-width:3"><path d="M1008 487C1049 484 1114 481 1155 478"/></g>
<polygon  style="fill:blue" points="1154,480 1164,478 1154,475 1154,480 "/>
<text x="1051" y="478" style="font-family:Times;font-size:14.00" >one of...</text>
<ellipse  cx="971" cy="773" rx="46" ry="18" style="fill:#87d0ff" />
<ellipse  cx="971" cy="773" rx="46" ry="18" style="fill:none;stroke:#87d0ff" />
<text x="935" y="777" style="font-family:Times;font-size:14.00" >VersionNum</text>
<g  style="fill:none;stroke:#7ec3ee"><path d="M1017 776C1057 779 1116 782 1155 785"/></g>
<polygon  style="fill:#7ec3ee" points="1153,787 1163,786 1153,782 1153,787 "/>
<g  style="fill:none;stroke:#7ec3ee"><path d="M1008 762C1038 753 1079 740 1104 729 1122 721 1148 705 1167 692"/></g>
<polygon  style="fill:#7ec3ee" points="1168,694 1175,687 1165,690 1168,694 "/>
</svg>
