<!-- Generated by dot version 1.7.5 (Sun Mar 25 18:55:43 MST 2001)
     For: (connolly) 
     Title: N871
     Pages: 1
-->
<svg width="1867pt" height="1567pt" >
<text x="-114" y="824" style="font-family:Times;font-size:14.00" >XML Infoset $Date$</text>
<polygon  style="fill:none;stroke:black" points="24,457 676,457 676,52 24,52 24,457 "/>
<text x="31" y="48" style="font-family:Times;font-size:14.00" >Items and Properties</text>
<polygon  style="fill:#87d0ff" points="81,1313 25,1331 81,1349 137,1331 81,1313 "/>
<polygon  style="fill:none;stroke:#87d0ff" points="81,1313 25,1331 81,1349 137,1331 81,1313 "/>
<text x="52" y="1335" style="font-family:Times;font-size:14.00" >Document</text>
<ellipse  cx="418" cy="1231" rx="40" ry="18" style="fill:#87d0ff" />
<ellipse  cx="418" cy="1231" rx="40" ry="18" style="fill:none;stroke:#87d0ff" />
<text x="388" y="1235" style="font-family:Times;font-size:14.00" >(E|P|C|D)*</text>
<g  style="fill:none;stroke:blue"><path d="M94 1317C109 1301 135 1277 155 1271 212 1254 312 1241 370 1236"/></g>
<polygon  style="fill:blue" points="368,1239 378,1235 368,1234 368,1239 "/>
<text x="215" y="1237" style="font-family:Times;font-size:14.00" >children</text>
<polygon  style="fill:#87d0ff" points="641,845 594,863 641,881 688,863 641,845 "/>
<polygon  style="fill:none;stroke:#87d0ff" points="641,845 594,863 641,881 688,863 641,845 "/>
<text x="618" y="867" style="font-family:Times;font-size:14.00" >Element</text>
<g  style="fill:none;stroke:blue"><path d="M82 1313C87 1240 119 1055 155 1025 259 939 502 887 599 870"/></g>
<polygon  style="fill:blue" points="599,873 608,868 598,868 599,873 "/>
<text x="367" y="886" style="font-family:Times;font-size:14.00" >document element</text>
<polygon  style="fill:#87d0ff" points="1506,1412 1414,1412 1414,1448 1506,1448 1506,1412 "/>
<polygon  style="fill:none;stroke:#87d0ff" points="1506,1412 1414,1412 1414,1448 1506,1448 1506,1412 "/>
<text x="1421" y="1434" style="font-family:Times;font-size:14.00" >Absolute URI</text>
<g  style="fill:none;stroke:blue"><path d="M81 1349C84 1415 103 1491 155 1529 228 1580 330 1569 418 1569 418 1569 418 1569 1206 1569 1278 1569 1382 1493 1431 1453"/></g>
<polygon  style="fill:blue" points="1431,1456 1438,1448 1428,1452 1431,1456 "/>
<text x="747" y="1565" style="font-family:Times;font-size:14.00" >base URI</text>
<g  style="fill:none;stroke:blue"><path d="M127 1334C334 1349 1181 1409 1405 1426"/></g>
<polygon  style="fill:blue" points="1404,1428 1414,1427 1404,1423 1404,1428 "/>
<text x="726" y="1371" style="font-family:Times;font-size:14.00" >system identifier</text>
<polygon  style="fill:#87d0ff" points="452,1267 384,1267 384,1303 452,1303 452,1267 "/>
<polygon  style="fill:none;stroke:#87d0ff" points="452,1267 384,1267 384,1303 452,1303 452,1267 "/>
<text x="390" y="1289" style="font-family:Times;font-size:14.00" >EncName</text>
<g  style="fill:none;stroke:blue"><path d="M112 1323C127 1319 143 1315 155 1314 216 1305 318 1295 375 1289"/></g>
<polygon  style="fill:blue" points="373,1292 383,1288 373,1287 373,1292 "/>
<text x="162" y="1290" style="font-family:Times;font-size:14.00" >character encoding scheme</text>
<ellipse  cx="418" cy="1523" rx="57" ry="18" style="fill:#87d0ff" />
<ellipse  cx="418" cy="1523" rx="57" ry="18" style="fill:none;stroke:#87d0ff" />
<text x="371" y="1527" style="font-family:Times;font-size:14.00" >Standalone Type</text>
<g  style="fill:none;stroke:blue"><path d="M85 1348C93 1384 116 1467 155 1489 203 1516 291 1522 352 1524"/></g>
<polygon  style="fill:blue" points="350,1526 360,1524 350,1521 350,1526 "/>
<text x="208" y="1485" style="font-family:Times;font-size:14.00" >standalone</text>
<ellipse  cx="418" cy="1036" rx="32" ry="18" style="fill:none;stroke:black" />
<text x="396" y="1040" style="font-family:Times;font-size:14.00" >Version</text>
<g  style="fill:none;stroke:blue"><path d="M83 1313C89 1269 108 1151 155 1110 204 1067 317 1048 378 1040"/></g>
<polygon  style="fill:blue" points="376,1043 386,1039 376,1038 376,1043 "/>
<text x="217" y="1044" style="font-family:Times;font-size:14.00" >version</text>
<polygon  style="fill:#87d0ff" points="418,1397 369,1415 418,1433 467,1415 418,1397 "/>
<polygon  style="fill:none;stroke:#87d0ff" points="418,1397 369,1415 418,1433 467,1415 418,1397 "/>
<text x="393" y="1419" style="font-family:Times;font-size:14.00" >Notation</text>
<g  style="fill:none;stroke:#ffa200;stroke-width:3"><path d="M92 1346C106 1365 132 1396 155 1402 210 1415 305 1417 364 1416"/></g>
<polygon  style="fill:#ffa200" points="362,1418 372,1416 362,1413 362,1418 "/>
<text x="212" y="1398" style="font-family:Times;font-size:14.00" >notations</text>
<polygon  style="fill:#87d0ff" points="418,1451 339,1469 418,1487 497,1469 418,1451 "/>
<polygon  style="fill:none;stroke:#87d0ff" points="418,1451 339,1469 418,1487 497,1469 418,1451 "/>
<text x="372" y="1473" style="font-family:Times;font-size:14.00" >Unparsed Entity</text>
<g  style="fill:none;stroke:#ffa200;stroke-width:3"><path d="M88 1347C99 1374 126 1427 155 1439 201 1457 278 1464 336 1468"/></g>
<polygon  style="fill:#ffa200" points="334,1470 344,1468 334,1465 334,1470 "/>
<text x="191" y="1435" style="font-family:Times;font-size:14.00" >unparsed entities</text>
<g  style="fill:none;stroke:purple;stroke-width:3"><path d="M429 1213C465 1153 586 955 627 887"/></g>
<polygon  style="fill:purple" points="629,888 632,878 625,886 629,888 "/>
<polygon  style="fill:#87d0ff" points="1206,1203 1103,1221 1206,1239 1309,1221 1206,1203 "/>
<polygon  style="fill:none;stroke:#87d0ff" points="1206,1203 1103,1221 1206,1239 1309,1221 1206,1203 "/>
<text x="1144" y="1225" style="font-family:Times;font-size:14.00" >Processing Instruction</text>
<g  style="fill:none;stroke:purple;stroke-width:3"><path d="M459 1230C577 1229 922 1224 1099 1222"/></g>
<polygon  style="fill:purple" points="1100,1224 1110,1222 1100,1219 1100,1224 "/>
<polygon  style="fill:#87d0ff" points="1206,1132 1153,1150 1206,1168 1259,1150 1206,1132 "/>
<polygon  style="fill:none;stroke:#87d0ff" points="1206,1132 1153,1150 1206,1168 1259,1150 1206,1132 "/>
<text x="1178" y="1154" style="font-family:Times;font-size:14.00" >Comment</text>
<g  style="fill:none;stroke:purple;stroke-width:3"><path d="M454 1223C474 1218 499 1214 515 1212 699 1192 1030 1165 1156 1155"/></g>
<polygon  style="fill:purple" points="1153,1158 1163,1154 1153,1153 1153,1158 "/>
<polygon  style="fill:#87d0ff" points="1732,1277 1605,1295 1732,1313 1859,1295 1732,1277 "/>
<polygon  style="fill:none;stroke:#87d0ff" points="1732,1277 1605,1295 1732,1313 1859,1295 1732,1277 "/>
<text x="1652" y="1299" style="font-family:Times;font-size:14.00" >Document Type Declaration</text>
<g  style="fill:none;stroke:purple;stroke-width:3"><path d="M453 1240C468 1245 486 1250 497 1255 568 1283 632 1336 707 1348 832 1367 960 1352 1085 1348 1243 1343 1515 1317 1650 1304"/></g>
<polygon  style="fill:purple" points="1648,1307 1658,1303 1648,1302 1648,1307 "/>
<g  style="fill:none;stroke:blue"><path d="M642 881C649 924 679 963 689 1006 695 1026 689 1121 707 1132 894 1241 1266 1367 1406 1412"/></g>
<polygon  style="fill:blue" points="1404,1414 1414,1415 1406,1409 1404,1414 "/>
<text x="1015" y="1260" style="font-family:Times;font-size:14.00" >base URI</text>
<ellipse  cx="918" cy="989" rx="32" ry="18" style="fill:#87d0ff" />
<ellipse  cx="918" cy="989" rx="32" ry="18" style="fill:none;stroke:#87d0ff" />
<text x="896" y="993" style="font-family:Times;font-size:14.00" >Content</text>
<g  style="fill:none;stroke:blue"><path d="M665 872C706 888 792 922 839 944 853 950 872 961 888 970"/></g>
<polygon  style="fill:blue" points="886,972 896,975 889,968 886,972 "/>
<text x="750" y="885" style="font-family:Times;font-size:14.00" >children</text>
<ellipse  cx="918" cy="571" rx="61" ry="18" style="fill:none;stroke:black" />
<text x="867" y="575" style="font-family:Times;font-size:14.00" >Namespace Name</text>
<g  style="fill:none;stroke:blue"><path d="M641 845C642 758 650 662 707 601 736 571 801 565 852 567"/></g>
<polygon  style="fill:blue" points="849,569 859,567 849,564 849,569 "/>
<text x="726" y="562" style="font-family:Times;font-size:14.00" >namespace name</text>
<polygon  style="fill:#87d0ff" points="1493,708 1427,708 1427,744 1493,744 1493,708 "/>
<polygon  style="fill:none;stroke:#87d0ff" points="1493,708 1427,708 1427,744 1493,744 1493,708 "/>
<text x="1434" y="730" style="font-family:Times;font-size:14.00" >NCName</text>
<g  style="fill:none;stroke:blue"><path d="M648 847C662 810 673 766 707 755 904 687 1292 712 1419 722"/></g>
<polygon  style="fill:blue" points="1416,724 1426,723 1416,719 1416,724 "/>
<text x="1011" y="705" style="font-family:Times;font-size:14.00" >local name</text>
<ellipse  cx="1206" cy="678" rx="27" ry="18" style="fill:none;stroke:black" />
<text x="1189" y="682" style="font-family:Times;font-size:14.00" >Prefix</text>
<g  style="fill:none;stroke:blue"><path d="M646 847C660 790 656 714 707 698 835 656 1079 668 1171 675"/></g>
<polygon  style="fill:blue" points="1169,677 1179,676 1169,672 1169,677 "/>
<text x="901" y="664" style="font-family:Times;font-size:14.00" >prefix</text>
<ellipse  cx="918" cy="1043" rx="32" ry="18" style="fill:none;stroke:black" />
<text x="896" y="1047" style="font-family:Times;font-size:14.00" >Elt/Doc</text>
<g  style="fill:none;stroke:blue"><path d="M646 879C657 919 687 1018 707 1032 748 1058 831 1053 880 1048"/></g>
<polygon  style="fill:blue" points="877,1051 887,1047 877,1046 877,1051 "/>
<text x="756" y="1028" style="font-family:Times;font-size:14.00" >parent</text>
<polygon  style="fill:#87d0ff" points="918,824 868,842 918,860 968,842 918,824 "/>
<polygon  style="fill:none;stroke:#87d0ff" points="918,824 868,842 918,860 968,842 918,824 "/>
<text x="893" y="846" style="font-family:Times;font-size:14.00" >Attribute</text>
<g  style="fill:none;stroke:#ffa200;stroke-width:3"><path d="M650 848C662 829 686 796 707 788 749 772 797 777 839 788 856 792 880 809 897 823"/></g>
<polygon  style="fill:#ffa200" points="895,824 904,829 898,821 895,824 "/>
<text x="747" y="774" style="font-family:Times;font-size:14.00" >attributes</text>
<g  style="fill:none;stroke:#ffa200;stroke-width:3"><path d="M663 853C677 847 695 841 707 840 749 834 818 837 865 839"/></g>
<polygon  style="fill:#ffa200" points="865,841 875,839 865,836 865,841 "/>
<text x="715" y="833" style="font-family:Times;font-size:14.00" >namespace attributes</text>
<polygon  style="fill:#87d0ff" points="918,607 858,625 918,643 978,625 918,607 "/>
<polygon  style="fill:none;stroke:#87d0ff" points="918,607 858,625 918,643 978,625 918,607 "/>
<text x="886" y="629" style="font-family:Times;font-size:14.00" >Namespace</text>
<g  style="fill:none;stroke:#ffa200;stroke-width:3"><path d="M643 846C648 803 665 697 707 660 739 633 803 626 852 624"/></g>
<polygon  style="fill:#ffa200" points="852,626 862,624 852,621 852,626 "/>
<text x="714" y="620" style="font-family:Times;font-size:14.00" >in-scope namespaces</text>
<text x="632" y="1527" style="font-family:Times;font-size:14.00" >yes</text>
<g  style="fill:none;stroke:green"><path d="M476 1523C516 1523 568 1523 603 1523"/></g>
<polygon  style="fill:green" points="604,1525 614,1523 604,1520 604,1525 "/>
<text x="522" y="1519" style="font-family:Times;font-size:14.00" >one of...</text>
<text x="634" y="1473" style="font-family:Times;font-size:14.00" >no</text>
<g  style="fill:none;stroke:green"><path d="M464 1512C506 1502 568 1487 606 1478"/></g>
<polygon  style="fill:green" points="605,1481 614,1476 604,1476 605,1481 "/>
<text x="522" y="1480" style="font-family:Times;font-size:14.00" >one of...</text>
<ellipse  cx="1460" cy="612" rx="37" ry="18" style="fill:#87d0ff" />
<ellipse  cx="1460" cy="612" rx="37" ry="18" style="fill:none;stroke:#87d0ff" />
<text x="1433" y="616" style="font-family:Times;font-size:14.00" >No Value</text>
<g  style="fill:none;stroke:purple"><path d="M434 1020C454 1000 486 966 497 941 556 805 494 521 641 521 641 521 641 521 1206 521 1241 521 1277 525 1309 537 1343 548 1395 576 1429 594"/></g>
<polygon  style="fill:purple" points="1426,595 1436,598 1429,591 1426,595 "/>
<polygon  style="fill:#87d0ff" points="684,1018 598,1018 598,1054 684,1054 684,1018 "/>
<polygon  style="fill:none;stroke:#87d0ff" points="684,1018 598,1018 598,1054 684,1054 684,1018 "/>
<text x="605" y="1040" style="font-family:Times;font-size:14.00" >VersionNum</text>
<g  style="fill:none;stroke:purple"><path d="M451 1036C487 1036 546 1036 589 1036"/></g>
<polygon  style="fill:purple" points="588,1038 598,1036 588,1033 588,1038 "/>
<g  style="fill:none;stroke:blue"><path d="M1224 1236C1268 1272 1379 1362 1431 1406"/></g>
<polygon  style="fill:blue" points="1429,1407 1438,1412 1432,1404 1429,1407 "/>
<text x="1334" y="1316" style="font-family:Times;font-size:14.00" >base URI</text>
<ellipse  cx="1460" cy="1257" rx="48" ry="18" style="fill:none;stroke:black" />
<text x="1422" y="1261" style="font-family:Times;font-size:14.00" >Elt/Doc/DTD</text>
<g  style="fill:none;stroke:blue"><path d="M1263 1229C1306 1236 1364 1244 1405 1250"/></g>
<polygon  style="fill:blue" points="1404,1252 1414,1251 1404,1247 1404,1252 "/>
<text x="1343" y="1234" style="font-family:Times;font-size:14.00" >parent</text>
<polygon  style="fill:#87d0ff" points="1487,1167 1433,1167 1433,1203 1487,1203 1487,1167 "/>
<polygon  style="fill:none;stroke:#87d0ff" points="1487,1167 1433,1167 1433,1203 1487,1203 1487,1167 "/>
<text x="1443" y="1189" style="font-family:Times;font-size:14.00" >Name</text>
<g  style="fill:none;stroke:blue"><path d="M1263 1213C1312 1206 1383 1195 1425 1190"/></g>
<polygon  style="fill:blue" points="1423,1193 1433,1189 1423,1188 1423,1193 "/>
<text x="1344" y="1190" style="font-family:Times;font-size:14.00" >target</text>
<polygon  style="fill:#87d0ff" points="1487,1087 1433,1087 1433,1123 1487,1123 1487,1087 "/>
<polygon  style="fill:none;stroke:#87d0ff" points="1487,1087 1433,1087 1433,1123 1487,1123 1487,1087 "/>
<text x="1443" y="1109" style="font-family:Times;font-size:14.00" >String</text>
<g  style="fill:none;stroke:blue"><path d="M1238 1208C1261 1200 1290 1188 1309 1180 1342 1166 1393 1141 1426 1123"/></g>
<polygon  style="fill:blue" points="1426,1126 1433,1119 1423,1122 1426,1126 "/>
<text x="1339" y="1135" style="font-family:Times;font-size:14.00" >content</text>
<g  style="fill:none;stroke:purple;stroke-width:3"><path d="M653 885C665 908 686 941 707 951 753 971 839 982 886 986"/></g>
<polygon  style="fill:purple" points="656,885 649,878 652,888 656,885 "/>
<g  style="fill:none;stroke:purple;stroke-width:3"><path d="M945 999C961 1006 979 1013 979 1013 995 1031 983 1063 997 1083 1026 1121 1064 1153 1103 1180 1117 1190 1140 1198 1160 1206"/></g>
<polygon  style="fill:purple" points="1160,1209 1170,1209 1161,1204 1160,1209 "/>
<g  style="fill:none;stroke:purple;stroke-width:3"><path d="M945 999C961 1006 979 1013 979 1013 1037 1045 1136 1106 1181 1134"/></g>
<polygon  style="fill:purple" points="1177,1135 1187,1138 1180,1130 1177,1135 "/>
<polygon  style="fill:#87d0ff" points="1206,1012 1153,1030 1206,1048 1259,1030 1206,1012 "/>
<polygon  style="fill:none;stroke:#87d0ff" points="1206,1012 1153,1030 1206,1048 1259,1030 1206,1012 "/>
<text x="1179" y="1034" style="font-family:Times;font-size:14.00" >Character</text>
<g  style="fill:none;stroke:purple;stroke-width:3"><path d="M950 994C1001 1001 1102 1015 1160 1024"/></g>
<polygon  style="fill:purple" points="1158,1026 1168,1025 1158,1021 1158,1026 "/>
<g  style="fill:none;stroke:purple"><path d="M972 580C1012 586 1068 594 1103 597 1190 603 1341 609 1415 611"/></g>
<polygon  style="fill:purple" points="1412,613 1422,611 1412,608 1412,613 "/>
<polygon  style="fill:#87d0ff" points="1247,549 1165,549 1165,585 1247,585 1247,549 "/>
<polygon  style="fill:none;stroke:#87d0ff" points="1247,549 1165,549 1165,585 1247,585 1247,549 "/>
<text x="1171" y="571" style="font-family:Times;font-size:14.00" >Abs. URIref</text>
<g  style="fill:none;stroke:purple"><path d="M979 570C1031 569 1105 568 1154 568"/></g>
<polygon  style="fill:purple" points="1154,570 1164,568 1154,565 1154,570 "/>
<g  style="fill:none;stroke:purple"><path d="M1233 682C1273 688 1349 700 1393 709 1400 711 1410 713 1419 715"/></g>
<polygon  style="fill:purple" points="1416,717 1426,717 1417,712 1416,717 "/>
<g  style="fill:none;stroke:purple"><path d="M1232 671C1276 660 1367 636 1420 623"/></g>
<polygon  style="fill:purple" points="1418,626 1427,621 1417,621 1418,626 "/>
<g  style="fill:none;stroke:purple"><path d="M89 1309C101 1278 126 1227 155 1218 366 1145 773 1069 887 1048"/></g>
<polygon  style="fill:purple" points="88,1305 87,1315 93,1306 88,1305 "/>
<g  style="fill:none;stroke:purple"><path d="M651 886C665 923 676 964 707 987 743 1013 796 999 839 1009 846 1010 851 1016 857 1019 867 1023 880 1028 892 1033"/></g>
<polygon  style="fill:purple" points="654,886 648,878 649,888 654,886 "/>
<g  style="fill:none;stroke:blue"><path d="M695 864C740 865 801 866 839 863 854 861 875 856 891 851"/></g>
<polygon  style="fill:blue" points="696,861 686,864 696,866 696,861 "/>
<text x="732" y="859" style="font-family:Times;font-size:14.00" >owner element</text>
<g  style="fill:none;stroke:blue"><path d="M952 836C989 829 1049 818 1085 811 1180 791 1344 753 1419 736"/></g>
<polygon  style="fill:blue" points="1417,739 1426,734 1416,734 1417,739 "/>
<text x="1176" y="757" style="font-family:Times;font-size:14.00" >local name</text>
<g  style="fill:none;stroke:blue"><path d="M940 831C957 823 982 811 997 804 1027 790 1058 780 1085 764 1112 748 1153 718 1180 698"/></g>
<polygon  style="fill:blue" points="1182,700 1188,692 1179,696 1182,700 "/>
<text x="1024" y="760" style="font-family:Times;font-size:14.00" >prefix</text>
<g  style="fill:none;stroke:blue"><path d="M940 852C977 870 1056 905 1103 916 1198 937 1305 908 1393 949 1426 963 1397 1022 1411 1055 1415 1063 1424 1073 1433 1082"/></g>
<polygon  style="fill:blue" points="1429,1082 1438,1087 1433,1078 1429,1082 "/>
<text x="1158" y="912" style="font-family:Times;font-size:14.00" >normalized value</text>
<polygon  style="fill:#87d0ff" points="1236,958 1176,958 1176,994 1236,994 1236,958 "/>
<polygon  style="fill:none;stroke:#87d0ff" points="1236,958 1176,958 1176,994 1236,994 1236,958 "/>
<text x="1183" y="980" style="font-family:Times;font-size:14.00" >Boolean</text>
<g  style="fill:none;stroke:blue"><path d="M925 858C938 885 967 940 997 955 1040 975 1118 978 1165 977"/></g>
<polygon  style="fill:blue" points="1165,979 1175,977 1165,974 1165,979 "/>
<text x="1016" y="951" style="font-family:Times;font-size:14.00" >specified</text>
<ellipse  cx="1206" cy="870" rx="51" ry="18" style="fill:none;stroke:black" />
<text x="1165" y="874" style="font-family:Times;font-size:14.00" >Attribute Type</text>
<g  style="fill:none;stroke:blue"><path d="M953 848C968 850 985 853 997 854 1037 858 1099 862 1145 865"/></g>
<polygon  style="fill:blue" points="1145,867 1155,866 1145,863 1145,867 "/>
<text x="1004" y="850" style="font-family:Times;font-size:14.00" >attribute type</text>
<text x="1708" y="616" style="font-family:Times;font-size:14.00" >no value</text>
<g  style="fill:none;stroke:green"><path d="M1498 612C1548 612 1637 612 1690 612"/></g>
<polygon  style="fill:green" points="1691,614 1701,612 1691,609 1691,614 "/>
<text x="1534" y="608" style="font-family:Times;font-size:14.00" >one of...</text>
<g  style="fill:none;stroke:purple"><path d="M144 1331C219 1331 343 1331 418 1331 418 1331 418 1331 918 1331 1062 1331 1316 1285 1417 1265"/></g>
<polygon  style="fill:purple" points="147,1328 137,1331 147,1333 147,1328 "/>
<g  style="fill:none;stroke:purple"><path d="M648 886C666 938 707 1059 707 1059 872 1218 1171 1059 1393 1116 1426 1124 1397 1184 1411 1215 1416 1224 1426 1233 1437 1241"/></g>
<polygon  style="fill:purple" points="651,888 646,879 646,889 651,888 "/>
<g  style="fill:none;stroke:purple"><path d="M1506 1263C1548 1269 1612 1278 1661 1285"/></g>
<polygon  style="fill:purple" points="1658,1287 1668,1286 1658,1282 1658,1287 "/>
<text x="1449" y="1029" style="font-family:Times;font-size:14.00" >true</text>
<g  style="fill:none;stroke:green"><path d="M1237 982C1285 992 1376 1009 1426 1019"/></g>
<polygon  style="fill:green" points="1423,1021 1433,1020 1423,1016 1423,1021 "/>
<text x="1337" y="995" style="font-family:Times;font-size:14.00" >one of...</text>
<text x="1447" y="975" style="font-family:Times;font-size:14.00" >false</text>
<g  style="fill:none;stroke:green"><path d="M1237 975C1284 974 1372 972 1423 972"/></g>
<polygon  style="fill:green" points="1423,974 1433,972 1423,969 1423,974 "/>
<text x="1337" y="968" style="font-family:Times;font-size:14.00" >one of...</text>
<polygon  style="fill:#87d0ff" points="81,283 49,301 81,319 113,301 81,283 "/>
<polygon  style="fill:none;stroke:#87d0ff" points="81,283 49,301 81,319 113,301 81,283 "/>
<text x="68" y="305" style="font-family:Times;font-size:14.00" >Item</text>
<ellipse  cx="418" cy="431" rx="32" ry="18" style="fill:#87d0ff" />
<ellipse  cx="418" cy="431" rx="32" ry="18" style="fill:none;stroke:#87d0ff" />
<text x="396" y="435" style="font-family:Times;font-size:14.00" >A Class</text>
<g  style="fill:none;stroke:blue"><path d="M103 307C119 311 137 316 137 316 157 351 122 413 155 436 182 453 310 442 377 436"/></g>
<polygon  style="fill:blue" points="376,439 386,435 376,434 376,439 "/>
<text x="202" y="432" style="font-family:Times;font-size:14.00" >many-to-one</text>
<ellipse  cx="418" cy="346" rx="27" ry="18" style="fill:#87d0ff" />
<ellipse  cx="418" cy="346" rx="27" ry="18" style="fill:none;stroke:#87d0ff" />
<text x="401" y="350" style="font-family:Times;font-size:14.00" >X|Y|Z</text>
<g  style="fill:none;stroke:blue"><path d="M105 306C116 308 129 312 137 316 145 319 147 334 155 335 218 342 327 345 383 346"/></g>
<polygon  style="fill:blue" points="380,348 390,346 380,343 380,348 "/>
<text x="209" y="331" style="font-family:Times;font-size:14.00" >many-to-1</text>
<ellipse  cx="418" cy="256" rx="27" ry="18" style="fill:#87d0ff" />
<ellipse  cx="418" cy="256" rx="27" ry="18" style="fill:none;stroke:#87d0ff" />
<text x="404" y="260" style="font-family:Times;font-size:14.00" >ABC</text>
<g  style="fill:none;stroke:#ffa200;stroke-width:3"><path d="M94 290C110 277 136 258 155 256 218 247 328 252 384 254"/></g>
<polygon  style="fill:#ffa200" points="381,256 391,254 381,251 381,256 "/>
<text x="197" y="247" style="font-family:Times;font-size:14.00" >many-to-many</text>
<ellipse  cx="418" cy="142" rx="27" ry="18" style="fill:#87d0ff" />
<ellipse  cx="418" cy="142" rx="27" ry="18" style="fill:none;stroke:#87d0ff" />
<text x="405" y="146" style="font-family:Times;font-size:14.00" >DEF</text>
<g  style="fill:none;stroke:green;stroke-width:3"><path d="M85 285C94 251 119 172 155 148 163 144 311 143 382 142"/></g>
<polygon  style="fill:green" points="381,144 391,142 381,139 381,144 "/>
<text x="204" y="139" style="font-family:Times;font-size:14.00" >many-to-list</text>
<ellipse  cx="641" cy="400" rx="27" ry="18" style="fill:#87d0ff" />
<ellipse  cx="641" cy="400" rx="27" ry="18" style="fill:none;stroke:#87d0ff" />
<text x="636" y="404" style="font-family:Times;font-size:14.00" >X</text>
<g  style="fill:none;stroke:purple"><path d="M444 352C479 359 539 372 575 381 583 383 595 386 606 389"/></g>
<polygon  style="fill:purple" points="606,392 616,392 607,387 606,392 "/>
<ellipse  cx="641" cy="346" rx="27" ry="18" style="fill:#87d0ff" />
<ellipse  cx="641" cy="346" rx="27" ry="18" style="fill:none;stroke:#87d0ff" />
<text x="636" y="350" style="font-family:Times;font-size:14.00" >Y</text>
<g  style="fill:none;stroke:purple"><path d="M446 346C486 346 560 346 605 346"/></g>
<polygon  style="fill:purple" points="604,348 614,346 604,343 604,348 "/>
<ellipse  cx="641" cy="292" rx="27" ry="18" style="fill:#87d0ff" />
<ellipse  cx="641" cy="292" rx="27" ry="18" style="fill:none;stroke:#87d0ff" />
<text x="637" y="296" style="font-family:Times;font-size:14.00" >Z</text>
<g  style="fill:none;stroke:purple"><path d="M444 340C484 330 562 311 607 300"/></g>
<polygon  style="fill:purple" points="607,303 616,298 606,298 607,303 "/>
</svg>
