<!-- Generated by dot version 1.7.5 (Sun Mar 25 18:55:43 MST 2001)
     For: (connolly) 
     Title: N1475
     Pages: 1
-->
<svg width="2769pt" height="1079pt" >
<text x="-114" y="580" style="font-family:Times;font-size:14.00" >XML Infoset $Date$</text>
<polygon  style="fill:none;stroke:black" points="24,104 705,104 705,52 24,52 24,104 "/>
<text x="31" y="48" style="font-family:Times;font-size:14.00" >Items and Properties</text>
<polygon  style="fill:#87d0ff" points="81,772 25,790 81,808 137,790 81,772 "/>
<polygon  style="fill:none;stroke:#87d0ff" points="81,772 25,790 81,808 137,790 81,772 "/>
<text x="52" y="794" style="font-family:Times;font-size:14.00" >Document</text>
<ellipse  cx="418" cy="604" rx="32" ry="18" style="fill:none;stroke:black" />
<text x="396" y="608" style="font-family:Times;font-size:14.00" >Elt/Doc</text>
<g  style="fill:none;stroke:#7ec3ee"><path d="M91 775C104 751 130 706 155 692 214 660 327 633 384 616"/></g>
<polygon  style="fill:#7ec3ee" points="383,619 392,614 382,614 383,619 "/>
<ellipse  cx="1520" cy="187" rx="48" ry="18" style="fill:none;stroke:black" />
<text x="1482" y="191" style="font-family:Times;font-size:14.00" >Elt/Doc/DTD</text>
<g  style="fill:none;stroke:#7ec3ee"><path d="M82 772C87 711 105 506 155 408 188 343 274 321 339 291 395 265 455 245 515 239 804 205 1095 197 1385 184 1407 183 1430 182 1451 184 1455 184 1459 184 1464 185"/></g>
<polygon  style="fill:#7ec3ee" points="1461,187 1471,186 1461,182 1461,187 "/>
<ellipse  cx="418" cy="312" rx="44" ry="18" style="fill:none;stroke:black" />
<text x="384" y="316" style="font-family:Times;font-size:14.00" >Doc Items...</text>
<g  style="fill:none;stroke:blue"><path d="M87 774C99 741 129 665 155 628 217 539 345 395 396 337"/></g>
<polygon  style="fill:blue" points="398,338 403,329 395,335 398,338 "/>
<text x="215" y="418" style="font-family:Times;font-size:14.00" >children</text>
<polygon  style="fill:#87d0ff" points="657,531 610,549 657,567 704,549 657,531 "/>
<polygon  style="fill:none;stroke:#87d0ff" points="657,531 610,549 657,567 704,549 657,531 "/>
<text x="634" y="553" style="font-family:Times;font-size:14.00" >Element</text>
<g  style="fill:none;stroke:blue"><path d="M109 781C184 757 387 692 497 650 538 634 601 590 634 566"/></g>
<polygon  style="fill:blue" points="634,569 641,561 631,565 634,569 "/>
<text x="367" y="646" style="font-family:Times;font-size:14.00" >document element</text>
<ellipse  cx="1520" cy="849" rx="49" ry="18" style="fill:none;stroke:black" />
<text x="1481" y="853" style="font-family:Times;font-size:14.00" >Absolute URI</text>
<g  style="fill:none;stroke:blue"><path d="M126 794C213 801 406 815 515 820 789 830 1290 843 1461 848"/></g>
<polygon  style="fill:blue" points="1461,850 1471,848 1461,845 1461,850 "/>
<text x="763" y="822" style="font-family:Times;font-size:14.00" >base URI</text>
<g  style="fill:none;stroke:blue"><path d="M105 800C166 825 325 888 418 888 418 888 418 888 1264 888 1320 888 1412 872 1469 860"/></g>
<polygon  style="fill:blue" points="1468,863 1477,858 1467,858 1468,863 "/>
<text x="742" y="884" style="font-family:Times;font-size:14.00" >system identifier</text>
<ellipse  cx="553" cy="790" rx="38" ry="18" style="fill:#87d0ff" />
<ellipse  cx="553" cy="790" rx="38" ry="18" style="fill:none;stroke:#87d0ff" />
<text x="525" y="794" style="font-family:Times;font-size:14.00" >EncName</text>
<g  style="fill:none;stroke:blue"><path d="M137 790C232 790 420 790 507 790"/></g>
<polygon  style="fill:blue" points="505,792 515,790 505,787 505,792 "/>
<text x="162" y="786" style="font-family:Times;font-size:14.00" >character encoding scheme</text>
<ellipse  cx="418" cy="973" rx="57" ry="18" style="fill:#87d0ff" />
<ellipse  cx="418" cy="973" rx="57" ry="18" style="fill:none;stroke:#87d0ff" />
<text x="371" y="977" style="font-family:Times;font-size:14.00" >Standalone Type</text>
<g  style="fill:none;stroke:blue"><path d="M84 807C91 846 113 937 155 960 204 986 294 984 356 980"/></g>
<polygon  style="fill:blue" points="354,983 364,979 354,978 354,983 "/>
<text x="208" y="956" style="font-family:Times;font-size:14.00" >standalone</text>
<ellipse  cx="2291" cy="768" rx="32" ry="18" style="fill:none;stroke:black" />
<text x="2269" y="772" style="font-family:Times;font-size:14.00" >Version</text>
<g  style="fill:none;stroke:blue"><path d="M90 806C103 828 130 869 155 880 396 977 674 934 933 934 933 934 933 934 1644 934 1827 934 2147 821 2255 781"/></g>
<polygon  style="fill:blue" points="2255,784 2264,778 2254,779 2255,784 "/>
<text x="1243" y="930" style="font-family:Times;font-size:14.00" >version</text>
<polygon  style="fill:#87d0ff" points="418,1009 369,1027 418,1045 467,1027 418,1009 "/>
<polygon  style="fill:none;stroke:#87d0ff" points="418,1009 369,1027 418,1045 467,1027 418,1009 "/>
<text x="393" y="1031" style="font-family:Times;font-size:14.00" >Notation</text>
<g  style="fill:none;stroke:#ffa200;stroke-width:3"><path d="M81 808C83 880 99 964 155 1005 205 1039 311 1037 372 1032"/></g>
<polygon  style="fill:#ffa200" points="370,1035 380,1031 370,1030 370,1035 "/>
<text x="212" y="1001" style="font-family:Times;font-size:14.00" >notations</text>
<polygon  style="fill:#87d0ff" points="418,1063 339,1081 418,1099 497,1081 418,1063 "/>
<polygon  style="fill:none;stroke:#87d0ff" points="418,1063 339,1081 418,1099 497,1081 418,1063 "/>
<text x="372" y="1085" style="font-family:Times;font-size:14.00" >Unparsed Entity</text>
<g  style="fill:none;stroke:#ffa200;stroke-width:3"><path d="M86 807C102 865 155 1058 155 1058 198 1095 295 1093 358 1088"/></g>
<polygon  style="fill:#ffa200" points="357,1091 367,1087 357,1086 357,1091 "/>
<text x="191" y="1054" style="font-family:Times;font-size:14.00" >unparsed entities</text>
<g  style="fill:none;stroke:purple"><path d="M89 768C102 738 128 688 155 674 215 641 330 614 386 605"/></g>
<polygon  style="fill:purple" points="88,764 86,774 93,766 88,764 "/>
<g  style="fill:none;stroke:purple"><path d="M450 605C489 602 553 592 591 583 603 580 620 573 634 566"/></g>
<polygon  style="fill:purple" points="635,568 643,562 633,564 635,568 "/>
<g  style="fill:none;stroke:purple"><path d="M82 766C87 695 105 489 155 390 188 325 274 303 339 273 395 247 455 227 515 221 804 187 1095 179 1385 166 1407 165 1430 164 1451 166 1462 167 1477 169 1490 173"/></g>
<polygon  style="fill:purple" points="80,762 82,772 85,762 80,762 "/>
<g  style="fill:none;stroke:purple"><path d="M660 525C669 468 695 335 723 324 928 238 1332 195 1471 187"/></g>
<polygon  style="fill:purple" points="658,522 659,532 663,522 658,522 "/>
<polygon  style="fill:#87d0ff" points="1844,169 1717,187 1844,205 1971,187 1844,169 "/>
<polygon  style="fill:none;stroke:#87d0ff" points="1844,169 1717,187 1844,205 1971,187 1844,169 "/>
<text x="1764" y="191" style="font-family:Times;font-size:14.00" >Document Type Declaration</text>
<g  style="fill:none;stroke:purple"><path d="M1567 192C1615 194 1690 194 1751 193"/></g>
<polygon  style="fill:purple" points="1749,195 1759,193 1749,190 1749,195 "/>
<g  style="fill:none;stroke:green;stroke-width:3"><path d="M435 329C479 372 592 484 638 530"/></g>
<polygon  style="fill:green" points="635,531 644,536 639,527 635,531 "/>
<g  style="fill:none;stroke:green;stroke-width:3"><path d="M442 297C463 284 494 266 515 260 701 203 884 112 1077 112 1077 112 1077 112 1520 112 1598 112 1728 149 1797 171"/></g>
<polygon  style="fill:green" points="1796,173 1806,174 1797,168 1796,173 "/>
<polygon  style="fill:#87d0ff" points="1264,295 1161,313 1264,331 1367,313 1264,295 "/>
<polygon  style="fill:none;stroke:#87d0ff" points="1264,295 1161,313 1264,331 1367,313 1264,295 "/>
<text x="1202" y="317" style="font-family:Times;font-size:14.00" >Processing Instruction</text>
<g  style="fill:none;stroke:green;stroke-width:3"><path d="M455 302C518 285 647 251 723 239 862 216 1109 272 1214 300"/></g>
<polygon  style="fill:green" points="1213,302 1223,302 1214,297 1213,302 "/>
<polygon  style="fill:#87d0ff" points="1264,388 1211,406 1264,424 1317,406 1264,388 "/>
<polygon  style="fill:none;stroke:#87d0ff" points="1264,388 1211,406 1264,424 1317,406 1264,388 "/>
<text x="1236" y="410" style="font-family:Times;font-size:14.00" >Comment</text>
<g  style="fill:none;stroke:green;stroke-width:3"><path d="M461 317C604 333 1063 384 1214 400"/></g>
<polygon  style="fill:green" points="1213,402 1223,401 1213,397 1213,402 "/>
<g  style="fill:none;stroke:#7ec3ee"><path d="M453 592C491 584 554 573 591 565 600 563 612 558 623 554"/></g>
<polygon  style="fill:#7ec3ee" points="454,589 445,594 455,594 454,589 "/>
<g  style="fill:none;stroke:blue"><path d="M451 588C472 579 498 567 515 564 542 558 584 554 616 551"/></g>
<polygon  style="fill:blue" points="450,586 442,592 452,590 450,586 "/>
<text x="536" y="550" style="font-family:Times;font-size:14.00" >parent</text>
<g  style="fill:none;stroke:#7ec3ee"><path d="M661 532C670 484 696 353 723 342 926 257 1325 214 1468 196"/></g>
<polygon  style="fill:#7ec3ee" points="1466,199 1476,195 1466,194 1466,199 "/>
<g  style="fill:none;stroke:blue"><path d="M658 567C661 610 675 716 723 733 954 814 1209 795 1451 831 1458 832 1466 834 1475 836"/></g>
<polygon  style="fill:blue" points="1472,838 1482,838 1473,833 1472,838 "/>
<text x="1051" y="788" style="font-family:Times;font-size:14.00" >base URI</text>
<ellipse  cx="933" cy="484" rx="32" ry="18" style="fill:none;stroke:black" />
<text x="911" y="488" style="font-family:Times;font-size:14.00" >Content</text>
<g  style="fill:none;stroke:blue"><path d="M666 534C679 515 702 483 723 475 767 458 845 468 892 476"/></g>
<polygon  style="fill:blue" points="892,478 902,478 893,474 892,478 "/>
<text x="766" y="462" style="font-family:Times;font-size:14.00" >children</text>
<ellipse  cx="1844" cy="787" rx="61" ry="18" style="fill:none;stroke:black" />
<text x="1793" y="791" style="font-family:Times;font-size:14.00" >Namespace Name</text>
<g  style="fill:none;stroke:blue"><path d="M662 565C672 593 694 645 723 653 1007 724 1300 749 1589 784 1639 790 1719 790 1775 789"/></g>
<polygon  style="fill:blue" points="1773,791 1783,789 1773,786 1773,791 "/>
<text x="1217" y="729" style="font-family:Times;font-size:14.00" >namespace name</text>
<ellipse  cx="2432" cy="527" rx="36" ry="18" style="fill:#87d0ff" />
<ellipse  cx="2432" cy="527" rx="36" ry="18" style="fill:none;stroke:#87d0ff" />
<text x="2406" y="531" style="font-family:Times;font-size:14.00" >NCName</text>
<g  style="fill:none;stroke:blue"><path d="M661 532C674 482 678 418 723 403 997 309 1301 375 1589 386 1733 391 1876 399 2019 399 2019 399 2019 399 2291 399 2338 399 2351 470 2385 502 2389 505 2394 508 2399 511"/></g>
<polygon  style="fill:blue" points="2396,512 2406,514 2398,508 2396,512 "/>
<text x="1614" y="382" style="font-family:Times;font-size:14.00" >local name</text>
<ellipse  cx="2291" cy="527" rx="27" ry="18" style="fill:none;stroke:black" />
<text x="2274" y="531" style="font-family:Times;font-size:14.00" >Prefix</text>
<g  style="fill:none;stroke:blue"><path d="M686 542C699 539 713 537 723 537 1145 524 1567 519 1989 511 2065 509 2142 506 2217 512 2227 513 2242 515 2255 518"/></g>
<polygon  style="fill:blue" points="2255,520 2265,520 2256,516 2255,520 "/>
<text x="1503" y="514" style="font-family:Times;font-size:14.00" >prefix</text>
<polygon  style="fill:#87d0ff" points="1520,574 1470,592 1520,610 1570,592 1520,574 "/>
<polygon  style="fill:none;stroke:#87d0ff" points="1520,574 1470,592 1520,610 1570,592 1520,574 "/>
<text x="1495" y="596" style="font-family:Times;font-size:14.00" >Attribute</text>
<g  style="fill:none;stroke:#ffa200;stroke-width:3"><path d="M702 550C835 553 1233 563 1451 575 1461 575 1474 578 1486 581"/></g>
<polygon  style="fill:#ffa200" points="1483,583 1493,583 1484,578 1483,583 "/>
<text x="1051" y="555" style="font-family:Times;font-size:14.00" >attributes</text>
<g  style="fill:none;stroke:#ffa200;stroke-width:3"><path d="M666 564C678 584 702 617 723 623 859 660 1004 655 1143 647 1246 640 1350 634 1451 620 1462 618 1477 613 1490 607"/></g>
<polygon  style="fill:#ffa200" points="1491,609 1499,603 1489,605 1491,609 "/>
<text x="1019" y="643" style="font-family:Times;font-size:14.00" >namespace attributes</text>
<polygon  style="fill:#87d0ff" points="933,412 873,430 933,448 993,430 933,412 "/>
<polygon  style="fill:none;stroke:#87d0ff" points="933,412 873,430 933,448 993,430 933,412 "/>
<text x="901" y="434" style="font-family:Times;font-size:14.00" >Namespace</text>
<g  style="fill:none;stroke:#ffa200;stroke-width:3"><path d="M663 533C673 506 695 455 723 443 762 427 829 425 877 427"/></g>
<polygon  style="fill:#ffa200" points="874,429 884,427 874,424 874,429 "/>
<text x="730" y="422" style="font-family:Times;font-size:14.00" >in-scope namespaces</text>
<g  style="fill:none;stroke:#7ec3ee"><path d="M1570 848C1610 844 1665 834 1699 828 1727 822 1771 812 1802 804"/></g>
<polygon  style="fill:#7ec3ee" points="1800,807 1809,802 1799,802 1800,807 "/>
<ellipse  cx="2732" cy="853" rx="29" ry="18" style="fill:none;stroke:black" />
<text x="2713" y="857" style="font-family:Times;font-size:14.00" >Literal</text>
<g  style="fill:none;stroke:#7ec3ee"><path d="M1563 858C1631 872 1765 896 1844 896 1844 896 1844 896 2637 896 2656 896 2683 883 2704 871"/></g>
<polygon  style="fill:#7ec3ee" points="2705,873 2712,866 2702,869 2705,873 "/>
<ellipse  cx="2544" cy="632" rx="27" ry="18" style="fill:#87d0ff" />
<ellipse  cx="2544" cy="632" rx="27" ry="18" style="fill:none;stroke:#87d0ff" />
<text x="2527" y="636" style="font-family:Times;font-size:14.00" >Name</text>
<g  style="fill:none;stroke:#7ec3ee"><path d="M590 786C695 774 995 740 1161 727 1489 700 1816 682 2143 660 2246 652 2429 640 2507 635"/></g>
<polygon  style="fill:#7ec3ee" points="2507,637 2517,634 2507,633 2507,637 "/>
<ellipse  cx="2105" cy="768" rx="37" ry="18" style="fill:#87d0ff" />
<ellipse  cx="2105" cy="768" rx="37" ry="18" style="fill:none;stroke:#87d0ff" />
<text x="2078" y="772" style="font-family:Times;font-size:14.00" >No Value</text>
<g  style="fill:none;stroke:purple"><path d="M2148 763C2182 761 2229 761 2260 763"/></g>
<polygon  style="fill:purple" points="2151,760 2141,763 2151,765 2151,760 "/>
<ellipse  cx="2432" cy="768" rx="46" ry="18" style="fill:#87d0ff" />
<ellipse  cx="2432" cy="768" rx="46" ry="18" style="fill:none;stroke:#87d0ff" />
<text x="2396" y="772" style="font-family:Times;font-size:14.00" >VersionNum</text>
<g  style="fill:none;stroke:purple"><path d="M2322 774C2338 775 2359 775 2378 774"/></g>
<polygon  style="fill:purple" points="2378,776 2388,774 2378,771 2378,776 "/>
<g  style="fill:none;stroke:#7ec3ee"><path d="M1574 182C1624 180 1700 180 1759 181"/></g>
<polygon  style="fill:#7ec3ee" points="1577,179 1567,182 1577,184 1577,179 "/>
<g  style="fill:none;stroke:blue"><path d="M1308 303C1351 292 1415 275 1451 257 1468 249 1487 228 1501 212"/></g>
<polygon  style="fill:blue" points="1502,214 1507,205 1499,211 1502,214 "/>
<text x="1401" y="253" style="font-family:Times;font-size:14.00" >parent</text>
<g  style="fill:none;stroke:blue"><path d="M1297 325C1323 336 1357 354 1367 376 1427 500 1493 745 1513 824"/></g>
<polygon  style="fill:blue" points="1510,822 1515,831 1515,821 1510,822 "/>
<text x="1392" y="422" style="font-family:Times;font-size:14.00" >base URI</text>
<g  style="fill:none;stroke:blue"><path d="M1310 323C1367 335 1462 353 1520 353 1520 353 1520 353 2019 353 2136 353 2256 347 2367 382 2444 406 2510 548 2534 606"/></g>
<polygon  style="fill:blue" points="2531,606 2537,614 2536,604 2531,606 "/>
<text x="2089" y="348" style="font-family:Times;font-size:14.00" >target</text>
<ellipse  cx="2637" cy="714" rx="27" ry="18" style="fill:none;stroke:black" />
<text x="2620" y="718" style="font-family:Times;font-size:14.00" >String</text>
<g  style="fill:none;stroke:blue"><path d="M1364 312C1551 311 1957 309 2189 309 2189 309 2189 309 2544 309 2603 309 2628 599 2635 688"/></g>
<polygon  style="fill:blue" points="2632,686 2636,696 2637,686 2632,686 "/>
<text x="2168" y="305" style="font-family:Times;font-size:14.00" >content</text>
<g  style="fill:none;stroke:green;stroke-width:3"><path d="M679 534C693 525 711 516 723 513 771 501 855 492 901 487"/></g>
<polygon  style="fill:green" points="681,530 674,537 684,534 681,530 "/>
<g  style="fill:none;stroke:green;stroke-width:3"><path d="M958 473C971 469 983 467 993 460 1004 452 1000 432 1011 427 1068 395 1170 352 1226 329"/></g>
<polygon  style="fill:green" points="1225,332 1233,326 1223,328 1225,332 "/>
<g  style="fill:none;stroke:green;stroke-width:3"><path d="M960 474C977 468 997 461 1011 458 1068 445 1167 425 1223 414"/></g>
<polygon  style="fill:green" points="1220,417 1230,413 1220,412 1220,417 "/>
<polygon  style="fill:#87d0ff" points="1264,446 1211,464 1264,482 1317,464 1264,446 "/>
<polygon  style="fill:none;stroke:#87d0ff" points="1264,446 1211,464 1264,482 1317,464 1264,446 "/>
<text x="1237" y="468" style="font-family:Times;font-size:14.00" >Character</text>
<g  style="fill:none;stroke:green;stroke-width:3"><path d="M965 482C1022 478 1140 472 1210 468"/></g>
<polygon  style="fill:green" points="1209,471 1219,467 1209,466 1209,471 "/>
<g  style="fill:none;stroke:purple"><path d="M1564 835C1605 827 1664 817 1699 810 1722 805 1756 798 1785 792"/></g>
<polygon  style="fill:purple" points="1565,832 1556,837 1566,837 1565,832 "/>
<g  style="fill:none;stroke:purple"><path d="M1905 788C1953 786 2018 781 2062 776"/></g>
<polygon  style="fill:purple" points="2061,779 2071,775 2061,774 2061,779 "/>
<g  style="fill:none;stroke:#7ec3ee"><path d="M2327 521C2348 520 2376 520 2398 521"/></g>
<polygon  style="fill:#7ec3ee" points="2328,518 2318,522 2328,523 2328,518 "/>
<g  style="fill:none;stroke:#7ec3ee"><path d="M2449 543C2468 561 2500 591 2521 611"/></g>
<polygon  style="fill:#7ec3ee" points="2519,612 2528,617 2522,609 2519,612 "/>
<g  style="fill:none;stroke:purple"><path d="M2318 532C2337 534 2365 534 2388 533"/></g>
<polygon  style="fill:purple" points="2388,535 2398,533 2388,530 2388,535 "/>
<g  style="fill:none;stroke:purple"><path d="M2121 745C2156 695 2242 583 2276 542"/></g>
<polygon  style="fill:purple" points="2120,742 2116,751 2124,745 2120,742 "/>
<g  style="fill:none;stroke:blue"><path d="M696 556C710 559 723 561 723 561 819 571 915 582 1011 586 1141 591 1369 592 1470 592"/></g>
<polygon  style="fill:blue" points="699,554 689,555 699,559 699,554 "/>
<text x="1036" y="582" style="font-family:Times;font-size:14.00" >owner element</text>
<g  style="fill:none;stroke:blue"><path d="M1523 609C1531 644 1553 723 1589 745 1633 772 1716 781 1775 785"/></g>
<polygon  style="fill:blue" points="1773,787 1783,785 1773,782 1773,787 "/>
<text x="1597" y="741" style="font-family:Times;font-size:14.00" >namespace name</text>
<g  style="fill:none;stroke:blue"><path d="M1532 578C1547 563 1571 540 1589 536 1747 501 1908 488 2067 472 2117 466 2168 467 2217 472 2268 476 2319 484 2367 501 2374 503 2385 507 2394 511"/></g>
<polygon  style="fill:blue" points="2394,514 2404,515 2396,509 2394,514 "/>
<text x="2075" y="464" style="font-family:Times;font-size:14.00" >local name</text>
<g  style="fill:none;stroke:blue"><path d="M1540 581C1555 573 1575 563 1589 560 1631 550 1675 548 1717 546 1873 538 2155 530 2254 528"/></g>
<polygon  style="fill:blue" points="2253,530 2263,528 2253,525 2253,530 "/>
<text x="2002" y="530" style="font-family:Times;font-size:14.00" >prefix</text>
<g  style="fill:none;stroke:blue"><path d="M1541 603C1561 613 1589 627 1589 627 1728 674 1873 714 2019 714 2019 714 2019 714 2544 714 2558 714 2581 714 2599 714"/></g>
<polygon  style="fill:blue" points="2599,716 2609,714 2599,711 2599,716 "/>
<text x="2243" y="710" style="font-family:Times;font-size:14.00" >normalized value</text>
<ellipse  cx="1844" cy="630" rx="33" ry="18" style="fill:#87d0ff" />
<ellipse  cx="1844" cy="630" rx="33" ry="18" style="fill:none;stroke:#87d0ff" />
<text x="1821" y="634" style="font-family:Times;font-size:14.00" >Boolean</text>
<g  style="fill:none;stroke:blue"><path d="M1547 601C1561 605 1578 610 1589 611 1648 618 1748 624 1804 628"/></g>
<polygon  style="fill:blue" points="1801,630 1811,628 1801,625 1801,630 "/>
<text x="1619" y="607" style="font-family:Times;font-size:14.00" >specified</text>
<ellipse  cx="1844" cy="576" rx="51" ry="18" style="fill:none;stroke:black" />
<text x="1803" y="580" style="font-family:Times;font-size:14.00" >Attribute Type</text>
<g  style="fill:none;stroke:blue"><path d="M1564 590C1621 587 1721 582 1784 578"/></g>
<polygon  style="fill:blue" points="1783,580 1793,578 1783,575 1783,580 "/>
<text x="1607" y="579" style="font-family:Times;font-size:14.00" >attribute type</text>
<g  style="fill:none;stroke:#7ec3ee"><path d="M2561 647C2575 660 2597 679 2613 693"/></g>
<polygon  style="fill:#7ec3ee" points="2611,694 2620,699 2614,691 2611,694 "/>
<g  style="fill:none;stroke:#7ec3ee"><path d="M2141 773C2172 775 2217 775 2250 774"/></g>
<polygon  style="fill:#7ec3ee" points="2250,776 2260,773 2250,772 2250,776 "/>
<g  style="fill:none;stroke:#7ec3ee"><path d="M1903 777C1954 772 2025 767 2068 766"/></g>
<polygon  style="fill:#7ec3ee" points="1906,774 1896,778 1906,779 1906,774 "/>
<g  style="fill:none;stroke:#7ec3ee"><path d="M2121 751C2156 709 2242 598 2277 550"/></g>
<polygon  style="fill:#7ec3ee" points="2278,554 2281,544 2273,551 2278,554 "/>
<g  style="fill:none;stroke:#7ec3ee"><path d="M2328 762C2346 761 2369 761 2388 762"/></g>
<polygon  style="fill:#7ec3ee" points="2332,759 2322,762 2332,764 2332,759 "/>
<g  style="fill:none;stroke:#7ec3ee"><path d="M2472 759C2508 751 2560 739 2591 731 2595 730 2601 728 2606 726"/></g>
<polygon  style="fill:#7ec3ee" points="2605,729 2613,723 2603,725 2605,729 "/>
<g  style="fill:none;stroke:#7ec3ee"><path d="M2648 730C2665 755 2697 802 2716 830"/></g>
<polygon  style="fill:#7ec3ee" points="2712,829 2720,836 2717,826 2712,829 "/>
<g  style="fill:none;stroke:#7ec3ee"><path d="M1862 646C1902 681 2002 765 2067 798 2136 832 2215 853 2291 853 2291 853 2291 853 2637 853 2652 853 2674 853 2693 853"/></g>
<polygon  style="fill:#7ec3ee" points="2693,855 2703,853 2693,850 2693,855 "/>
<text x="2094" y="580" style="font-family:Times;font-size:14.00" >true</text>
<g  style="fill:none;stroke:green"><path d="M1875 623C1925 613 2020 594 2071 583"/></g>
<polygon  style="fill:green" points="2068,586 2078,582 2068,581 2068,586 "/>
<text x="1996" y="583" style="font-family:Times;font-size:14.00" >one of...</text>
<text x="2092" y="634" style="font-family:Times;font-size:14.00" >false</text>
<g  style="fill:none;stroke:green"><path d="M1878 630C1927 630 2017 630 2068 630"/></g>
<polygon  style="fill:green" points="2068,632 2078,630 2068,627 2068,632 "/>
<text x="1996" y="626" style="font-family:Times;font-size:14.00" >one of...</text>
<polygon  style="fill:#87d0ff" points="81,60 49,78 81,96 113,78 81,60 "/>
<polygon  style="fill:none;stroke:#87d0ff" points="81,60 49,78 81,96 113,78 81,60 "/>
<text x="68" y="82" style="font-family:Times;font-size:14.00" >Item</text>
<ellipse  cx="418" cy="78" rx="43" ry="18" style="fill:none;stroke:black" />
<text x="385" y="82" style="font-family:Times;font-size:14.00" >Some Class</text>
<g  style="fill:none;stroke:blue"><path d="M114 78C172 78 294 78 365 78"/></g>
<polygon  style="fill:blue" points="365,80 375,78 365,75 365,80 "/>
<text x="229" y="74" style="font-family:Times;font-size:14.00" >1-1</text>
<ellipse  cx="657" cy="78" rx="40" ry="18" style="fill:none;stroke:black" />
<text x="627" y="82" style="font-family:Times;font-size:14.00" >Superclass</text>
<g  style="fill:none;stroke:#7ec3ee"><path d="M461 78C502 78 565 78 608 78"/></g>
<polygon  style="fill:#7ec3ee" points="607,80 617,78 607,75 607,80 "/>
</svg>
