<?xml version="1.0" standalone="yes"?>
<!-- Generated by dotneato version 1.6 (Sat Aug  5 11:20:22 CDT 2000)
     For: (connolly) 
     Title: N628
     Pages: 1
-->
<svg width="1538pt" height="1479pt" >
<text x="646" y="1511" style="font-family:Times;font-size:14.00" >XML Infoset $Date$</text>
<ellipse  cx="746" cy="790" rx="34" ry="18" style="fill:none;stroke:#87d0ff" />
<text x="722" y="794" style="font-family:Times;font-size:14.00" >InfoItem</text>
<g  style="fill:none;stroke:red"><path d="M768 776C777 765 769 754 746 754 728 754 719 761 721 770"/></g>
<polygon  style="fill:red" points="717,768 724,776 722,766 717,768 "/>
<text x="729" y="750" style="font-family:Times;font-size:14.00" >parent</text>
<ellipse  cx="1386" cy="887" rx="29" ry="18" style="fill:none;stroke:#87d0ff" />
<text x="1367" y="891" style="font-family:Times;font-size:14.00" >Literal</text>
<g  style="fill:none;stroke:red"><path d="M778 797C814 806 873 819 908 824 1034 843 1261 872 1349 883"/></g>
<polygon  style="fill:red" points="1347,885 1357,884 1347,880 1347,885 "/>
<text x="1028" y="820" style="font-family:Times;font-size:14.00" >baseURI</text>
<g  style="fill:none;stroke:red"><path d="M765 805C796 831 862 880 908 887 1033 906 1261 895 1349 889"/></g>
<polygon  style="fill:red" points="1347,891 1357,889 1347,886 1347,891 "/>
<text x="1007" y="883" style="font-family:Times;font-size:14.00" >systemIdentifier</text>
<g  style="fill:none;stroke:red"><path d="M754 808C767 834 792 884 816 904 841 925 877 927 908 928 1004 935 1101 937 1196 928 1239 924 1309 907 1351 896"/></g>
<polygon  style="fill:red" points="1350,899 1359,894 1349,894 1350,899 "/>
<text x="995" y="924" style="font-family:Times;font-size:14.00" >declarationBaseURI</text>
<g  style="fill:none;stroke:red"><path d="M752 808C763 840 788 906 816 934 839 957 877 956 908 957 1004 963 1102 971 1196 957 1242 950 1314 920 1355 902"/></g>
<polygon  style="fill:red" points="1355,905 1363,898 1353,900 1355,905 "/>
<text x="1005" y="953" style="font-family:Times;font-size:14.00" >namespaceName</text>
<g  style="fill:none;stroke:red"><path d="M774 779C788 774 804 768 816 766 941 743 1070 758 1196 760 1262 762 1303 830 1356 870"/></g>
<polygon  style="fill:red" points="1354,872 1364,875 1357,868 1354,872 "/>
<text x="1035" y="750" style="font-family:Times;font-size:14.00" >prefix</text>
<g  style="fill:none;stroke:red"><path d="M780 789C864 787 1078 784 1196 801 1221 806 1307 847 1354 870"/></g>
<polygon  style="fill:red" points="1353,872 1363,875 1355,868 1353,872 "/>
<text x="1009" y="784" style="font-family:Times;font-size:14.00" >publicIdentifier</text>
<ellipse  cx="1052" cy="1307" rx="45" ry="18" style="fill:none;stroke:#87d0ff" />
<text x="1017" y="1311" style="font-family:Times;font-size:14.00" >InfoItemSeq</text>
<g  style="fill:none;stroke:red"><path d="M749 808C758 853 783 968 816 1024 865 1106 980 1231 1030 1283"/></g>
<polygon  style="fill:red" points="1028,1284 1036,1290 1031,1281 1028,1284 "/>
<text x="830" y="1020" style="font-family:Times;font-size:14.00" >children</text>
<ellipse  cx="1052" cy="566" rx="144" ry="18" style="fill:none;stroke:black" />
<text x="918" y="570" style="font-family:Times;font-size:14.00" >http://www.w3.org/2000/01/rdf-schema#Literal</text>
<g  style="fill:none;stroke:red"><path d="M753 772C765 743 789 689 816 669 860 637 940 606 995 586"/></g>
<polygon  style="fill:red" points="994,589 1002,583 992,585 994,589 "/>
<text x="832" y="626" style="font-family:Times;font-size:14.00" >content</text>
<g  style="fill:none;stroke:red"><path d="M761 773C776 757 799 733 816 721 838 707 868 707 890 692 929 667 988 619 1024 590"/></g>
<polygon  style="fill:red" points="1025,592 1031,584 1022,589 1025,592 "/>
<text x="823" y="688" style="font-family:Times;font-size:14.00" >localName</text>
<g  style="fill:none;stroke:red"><path d="M749 772C756 732 775 637 816 607 839 590 875 580 912 574"/></g>
<polygon  style="fill:red" points="910,577 920,573 910,572 910,577 "/>
<text x="838" y="575" style="font-family:Times;font-size:14.00" >name</text>
<ellipse  cx="1386" cy="1394" rx="41" ry="18" style="fill:none;stroke:#87d0ff" />
<text x="1355" y="1398" style="font-family:Times;font-size:14.00" >References</text>
<g  style="fill:none;stroke:#7ec3ee"><path d="M1090 1317C1152 1333 1275 1365 1341 1383"/></g>
<polygon  style="fill:#7ec3ee" points="1340,1385 1350,1385 1341,1380 1340,1385 "/>
<ellipse  cx="1386" cy="1299" rx="151" ry="18" style="fill:none;stroke:black" />
<text x="1245" y="1303" style="font-family:Times;font-size:14.00" >http://www.w3.org/1999/02/22-rdf-syntax-ns#Seq</text>
<g  style="fill:none;stroke:#7ec3ee"><path d="M1097 1306C1131 1305 1180 1304 1228 1303"/></g>
<polygon  style="fill:#7ec3ee" points="1228,1305 1238,1303 1228,1300 1228,1305 "/>
<g  style="fill:none;stroke:#7ec3ee"><path d="M1072 584C1107 614 1177 677 1216 714 1259 755 1329 827 1364 864"/></g>
<polygon  style="fill:#7ec3ee" points="1362,866 1371,871 1366,862 1362,866 "/>
<ellipse  cx="54" cy="341" rx="39" ry="18" style="fill:none;stroke:#87d0ff" />
<text x="25" y="345" style="font-family:Times;font-size:14.00" >Document</text>
<g  style="fill:none;stroke:#7ec3ee"><path d="M62 359C74 385 100 433 126 447 176 475 248 443 294 475 322 494 284 556 312 574 364 608 437 585 494 606 560 631 620 671 676 712 693 724 713 748 728 766"/></g>
<polygon  style="fill:#7ec3ee" points="725,766 733,773 729,763 725,766 "/>
<g  style="fill:none;stroke:red"><path d="M92 336C163 328 316 311 403 310 403 310 403 310 1052 310 1245 311 1354 745 1380 859"/></g>
<polygon  style="fill:red" points="1378,860 1382,869 1382,859 1378,860 "/>
<text x="725" y="306" style="font-family:Times;font-size:14.00" >version</text>
<g  style="fill:none;stroke:red"><path d="M94 342C228 348 670 371 890 459 930 475 988 516 1023 543"/></g>
<polygon  style="fill:red" points="1020,544 1030,548 1023,540 1020,544 "/>
<text x="520" y="373" style="font-family:Times;font-size:14.00" >characterEncodingScheme</text>
<ellipse  cx="403" cy="928" rx="33" ry="18" style="fill:none;stroke:#87d0ff" />
<text x="380" y="932" style="font-family:Times;font-size:14.00" >Boolean</text>
<g  style="fill:none;stroke:red"><path d="M56 359C63 412 85 566 126 638 161 698 251 706 294 759 317 788 293 836 312 866 312 866 349 891 375 909"/></g>
<polygon  style="fill:red" points="372,910 382,914 375,906 372,910 "/>
<text x="140" y="634" style="font-family:Times;font-size:14.00" >allDeclarationsProcessed</text>
<ellipse  cx="403" cy="264" rx="33" ry="18" style="fill:none;stroke:#87d0ff" />
<text x="380" y="268" style="font-family:Times;font-size:14.00" >Element</text>
<g  style="fill:none;stroke:red"><path d="M73 325C88 313 110 297 126 293 190 279 302 271 361 267"/></g>
<polygon  style="fill:red" points="359,270 369,266 359,265 359,270 "/>
<text x="159" y="268" style="font-family:Times;font-size:14.00" >documentElement</text>
<ellipse  cx="594" cy="108" rx="63" ry="18" style="fill:none;stroke:#87d0ff" />
<text x="541" y="112" style="font-family:Times;font-size:14.00" >UnparsedEntitySet</text>
<g  style="fill:none;stroke:red"><path d="M63 323C77 300 102 260 126 249 237 201 440 147 537 122"/></g>
<polygon  style="fill:red" points="537,125 546,120 536,120 537,125 "/>
<text x="163" y="191" style="font-family:Times;font-size:14.00" >unparsedEntities</text>
<ellipse  cx="594" cy="54" rx="44" ry="18" style="fill:none;stroke:#87d0ff" />
<text x="561" y="58" style="font-family:Times;font-size:14.00" >NotationSet</text>
<g  style="fill:none;stroke:red"><path d="M57 323C64 284 84 195 126 172 235 115 447 76 543 61"/></g>
<polygon  style="fill:red" points="542,64 552,60 542,59 542,64 "/>
<text x="184" y="109" style="font-family:Times;font-size:14.00" >notations</text>
<ellipse  cx="403" cy="636" rx="41" ry="18" style="fill:none;stroke:#87d0ff" />
<text x="372" y="640" style="font-family:Times;font-size:14.00" >Standalone</text>
<g  style="fill:none;stroke:red"><path d="M57 359C65 400 88 500 126 539 174 589 289 616 355 628"/></g>
<polygon  style="fill:red" points="354,630 364,630 355,625 354,630 "/>
<text x="180" y="535" style="font-family:Times;font-size:14.00" >standalone</text>
<g  style="fill:none;stroke:#7ec3ee"><path d="M435 270C495 283 625 316 676 369 700 394 689 536 694 569 705 635 737 697 744 763"/></g>
<polygon  style="fill:#7ec3ee" points="741,762 745,772 746,762 741,762 "/>
<ellipse  cx="746" cy="160" rx="44" ry="18" style="fill:none;stroke:#87d0ff" />
<text x="712" y="164" style="font-family:Times;font-size:14.00" >AttributeSet</text>
<g  style="fill:none;stroke:red"><path d="M421 249C443 229 483 198 512 189 560 175 641 167 695 163"/></g>
<polygon  style="fill:red" points="692,165 702,163 692,160 692,165 "/>
<text x="568" y="161" style="font-family:Times;font-size:14.00" >attributes</text>
<g  style="fill:none;stroke:red"><path d="M432 255C464 245 512 230 512 230 567 220 624 228 676 212 690 208 708 195 722 183"/></g>
<polygon  style="fill:red" points="723,185 729,177 720,182 723,185 "/>
<text x="535" y="208" style="font-family:Times;font-size:14.00" >namespaceAttributes</text>
<ellipse  cx="746" cy="236" rx="51" ry="18" style="fill:none;stroke:#87d0ff" />
<text x="705" y="240" style="font-family:Times;font-size:14.00" >NamespaceSet</text>
<g  style="fill:none;stroke:red"><path d="M437 263C494 262 610 259 676 253 682 253 691 251 700 249"/></g>
<polygon  style="fill:red" points="697,252 707,248 697,247 697,252 "/>
<text x="537" y="249" style="font-family:Times;font-size:14.00" >inScopeNamespaces</text>
<ellipse  cx="1052" cy="133" rx="43" ry="18" style="fill:none;stroke:#87d0ff" />
<text x="1019" y="137" style="font-family:Times;font-size:14.00" >InfoItemSet</text>
<g  style="fill:none;stroke:#7ec3ee"><path d="M656 111C747 116 917 125 1001 131"/></g>
<polygon  style="fill:#7ec3ee" points="999,133 1009,131 999,128 999,133 "/>
<g  style="fill:none;stroke:#7ec3ee"><path d="M635 61C719 76 913 109 1004 125"/></g>
<polygon  style="fill:#7ec3ee" points="1002,127 1012,126 1002,122 1002,127 "/>
<g  style="fill:none;stroke:#7ec3ee"><path d="M790 156C845 151 942 143 1001 138"/></g>
<polygon  style="fill:#7ec3ee" points="999,141 1009,137 999,136 999,141 "/>
<g  style="fill:none;stroke:#7ec3ee"><path d="M783 223C840 204 950 167 1010 147"/></g>
<polygon  style="fill:#7ec3ee" points="1010,150 1018,144 1008,145 1010,150 "/>
<ellipse  cx="1386" cy="133" rx="152" ry="18" style="fill:none;stroke:black" />
<text x="1245" y="137" style="font-family:Times;font-size:14.00" >http://www.w3.org/1999/02/22-rdf-syntax-ns#Bag</text>
<g  style="fill:none;stroke:#7ec3ee"><path d="M1096 133C1129 133 1176 133 1224 133"/></g>
<polygon  style="fill:#7ec3ee" points="1224,135 1234,133 1224,130 1224,135 "/>
<ellipse  cx="54" cy="779" rx="35" ry="18" style="fill:none;stroke:#87d0ff" />
<text x="29" y="783" style="font-family:Times;font-size:14.00" >Attribute</text>
<g  style="fill:none;stroke:#7ec3ee"><path d="M78 765C94 746 103 712 126 704 180 688 252 668 294 704 335 740 270 832 312 866 360 905 434 872 494 866 556 861 617 851 676 833 688 830 705 820 719 811"/></g>
<polygon  style="fill:#7ec3ee" points="721,813 727,805 718,809 721,813 "/>
<g  style="fill:none;stroke:red"><path d="M70 763C88 742 100 716 108 689 122 645 91 581 126 551 170 515 239 545 294 534 303 533 304 515 312 514 474 498 637 518 798 528 810 529 886 541 952 551"/></g>
<polygon  style="fill:red" points="951,553 961,552 951,548 951,553 "/>
<text x="546" y="508" style="font-family:Times;font-size:14.00" >normalizedValue</text>
<g  style="fill:none;stroke:red"><path d="M71 795C87 809 109 827 126 834 180 856 240 856 294 874 304 878 303 895 312 899 325 906 345 912 362 917"/></g>
<polygon  style="fill:red" points="362,920 372,920 363,915 362,920 "/>
<text x="185" y="830" style="font-family:Times;font-size:14.00" >specified</text>
<g  style="fill:none;stroke:red"><path d="M67 762C81 743 103 712 108 689 117 655 106 505 126 475 177 402 311 318 372 282"/></g>
<polygon  style="fill:red" points="373,284 380,277 370,280 373,284 "/>
<text x="169" y="327" style="font-family:Times;font-size:14.00" >ownerElement</text>
<ellipse  cx="403" cy="1329" rx="50" ry="18" style="fill:none;stroke:#87d0ff" />
<text x="363" y="1333" style="font-family:Times;font-size:14.00" >AttributeType</text>
<g  style="fill:none;stroke:red"><path d="M58 797C68 845 95 978 108 1051 116 1092 96 1146 126 1174 181 1227 300 1284 363 1311"/></g>
<polygon  style="fill:red" points="361,1313 371,1315 363,1308 361,1313 "/>
<text x="172" y="1170" style="font-family:Times;font-size:14.00" >attributeType</text>
<g  style="fill:none;stroke:red"><path d="M64 796C78 820 105 862 126 881 284 1023 491 1098 676 1199 755 1243 822 1313 908 1337 1025 1369 1240 1385 1336 1391"/></g>
<polygon  style="fill:red" points="1335,1393 1345,1392 1335,1388 1335,1393 "/>
<text x="717" y="1206" style="font-family:Times;font-size:14.00" >references</text>
<ellipse  cx="54" cy="659" rx="37" ry="18" style="fill:none;stroke:#87d0ff" />
<text x="27" y="663" style="font-family:Times;font-size:14.00" >Character</text>
<g  style="fill:none;stroke:#7ec3ee"><path d="M91 657C145 655 243 654 294 677 325 691 281 767 312 774 421 801 618 796 704 792"/></g>
<polygon  style="fill:#7ec3ee" points="702,794 712,792 702,789 702,794 "/>
<g  style="fill:none;stroke:red"><path d="M65 677C77 697 97 729 108 749 115 760 115 779 126 782 180 800 243 788 294 811 312 819 299 852 312 866 326 881 352 898 372 910"/></g>
<polygon  style="fill:red" points="370,912 380,915 373,908 370,912 "/>
<text x="133" y="778" style="font-family:Times;font-size:14.00" >elementContentWhitespace</text>
<ellipse  cx="594" cy="446" rx="30" ry="18" style="fill:none;stroke:#87d0ff" />
<text x="574" y="450" style="font-family:Times;font-size:14.00" >Integer</text>
<g  style="fill:none;stroke:red"><path d="M60 641C71 610 96 548 126 527 174 496 239 512 294 498 303 497 304 483 312 481 380 470 496 456 556 450"/></g>
<polygon  style="fill:red" points="554,453 564,449 554,448 554,453 "/>
<text x="170" y="494" style="font-family:Times;font-size:14.00" >characterCode</text>
<g  style="fill:none;stroke:#7ec3ee"><path d="M624 448C683 452 817 462 890 481 927 491 981 522 1017 544"/></g>
<polygon  style="fill:#7ec3ee" points="1014,545 1024,548 1017,541 1014,545 "/>
<ellipse  cx="54" cy="1081" rx="54" ry="18" style="fill:none;stroke:#87d0ff" />
<text x="10" y="1085" style="font-family:Times;font-size:14.00" >UnparsedEntity</text>
<g  style="fill:none;stroke:#7ec3ee"><path d="M97 1070C108 1068 118 1065 126 1064 249 1045 372 1034 494 1012 556 1002 630 1009 676 967 694 952 725 859 739 814"/></g>
<polygon  style="fill:#7ec3ee" points="740,818 741,808 735,817 740,818 "/>
<g  style="fill:none;stroke:red"><path d="M108 1081C184 1081 322 1082 403 1081 403 1081 403 1081 1052 1081 1154 1082 1305 960 1363 909"/></g>
<polygon  style="fill:red" points="1365,911 1370,902 1361,907 1365,911 "/>
<text x="706" y="1077" style="font-family:Times;font-size:14.00" >notationName</text>
<ellipse  cx="403" cy="1171" rx="35" ry="18" style="fill:none;stroke:#87d0ff" />
<text x="378" y="1175" style="font-family:Times;font-size:14.00" >Notation</text>
<g  style="fill:none;stroke:red"><path d="M83 1096C97 1104 114 1111 126 1114 191 1131 303 1152 362 1163"/></g>
<polygon  style="fill:red" points="360,1165 370,1165 361,1160 360,1165 "/>
<text x="187" y="1110" style="font-family:Times;font-size:14.00" >notation</text>
<g  style="fill:none;stroke:#7ec3ee"><path d="M436 1164C497 1151 627 1116 676 1060 725 1006 741 872 745 815"/></g>
<polygon  style="fill:#7ec3ee" points="748,818 745,808 743,818 748,818 "/>
<ellipse  cx="403" cy="544" rx="71" ry="18" style="fill:none;stroke:#87d0ff" />
<text x="342" y="548" style="font-family:Times;font-size:14.00" >ProcessingInstruction</text>
<g  style="fill:none;stroke:#7ec3ee"><path d="M464 553C537 565 651 585 676 603 716 632 735 718 743 763"/></g>
<polygon  style="fill:#7ec3ee" points="740,762 744,772 745,762 740,762 "/>
<g  style="fill:none;stroke:red"><path d="M474 546C579 548 775 552 890 556 897 556 905 556 913 557"/></g>
<polygon  style="fill:red" points="914,560 924,558 914,555 914,560 "/>
<text x="730" y="547" style="font-family:Times;font-size:14.00" >target</text>
<ellipse  cx="403" cy="690" rx="91" ry="18" style="fill:none;stroke:#87d0ff" />
<text x="322" y="694" style="font-family:Times;font-size:14.00" >UnexpandedEntityReference</text>
<g  style="fill:none;stroke:#7ec3ee"><path d="M471 702C533 714 622 731 676 747 683 749 702 761 719 772"/></g>
<polygon  style="fill:#7ec3ee" points="715,773 725,776 718,768 715,773 "/>
<ellipse  cx="403" cy="744" rx="38" ry="18" style="fill:none;stroke:#87d0ff" />
<text x="375" y="748" style="font-family:Times;font-size:14.00" >Comment</text>
<g  style="fill:none;stroke:#7ec3ee"><path d="M440 748C499 753 611 764 676 773 685 775 697 777 708 780"/></g>
<polygon  style="fill:#7ec3ee" points="705,782 715,782 706,777 705,782 "/>
<ellipse  cx="403" cy="836" rx="86" ry="18" style="fill:none;stroke:#87d0ff" />
<text x="327" y="840" style="font-family:Times;font-size:14.00" >DocumentTypeDeclaration</text>
<g  style="fill:none;stroke:#7ec3ee"><path d="M482 829C543 823 625 814 676 807 685 806 697 803 708 801"/></g>
<polygon  style="fill:#7ec3ee" points="706,804 715,799 705,799 706,804 "/>
<ellipse  cx="403" cy="982" rx="42" ry="18" style="fill:none;stroke:#87d0ff" />
<text x="371" y="986" style="font-family:Times;font-size:14.00" >Namespace</text>
<g  style="fill:none;stroke:#7ec3ee"><path d="M443 975C504 963 619 937 676 899 699 885 721 843 734 816"/></g>
<polygon  style="fill:#7ec3ee" points="736,818 738,808 731,816 736,818 "/>
<ellipse  cx="54" cy="1375" rx="38" ry="18" style="fill:none;stroke:#87d0ff" />
<text x="26" y="1379" style="font-family:Times;font-size:14.00" >Unknown</text>
<g  style="fill:none;stroke:#7ec3ee"><path d="M92 1376C144 1377 239 1378 294 1376 361 1372 429 1373 494 1359 731 1307 983 1291 1196 1178 1278 1135 1350 976 1376 913"/></g>
<polygon  style="fill:#7ec3ee" points="1378,915 1379,905 1373,913 1378,915 "/>
<g  style="fill:none;stroke:#7ec3ee"><path d="M63 1357C76 1330 100 1278 108 1246 121 1196 96 1133 126 1091 165 1040 243 1034 294 995 307 986 299 961 312 952 327 943 346 941 364 939"/></g>
<polygon  style="fill:#7ec3ee" points="365,941 374,937 364,937 365,941 "/>
<g  style="fill:none;stroke:#7ec3ee"><path d="M92 1372C144 1368 239 1361 294 1354 309 1352 332 1347 352 1342"/></g>
<polygon  style="fill:#7ec3ee" points="353,1344 362,1340 352,1340 353,1344 "/>
<g  style="fill:none;stroke:#7ec3ee"><path d="M63 1393C75 1417 100 1459 126 1468 215 1496 311 1489 403 1489 403 1489 403 1489 1052 1489 1137 1489 1279 1437 1347 1411"/></g>
<polygon  style="fill:#7ec3ee" points="1348,1413 1356,1407 1346,1409 1348,1413 "/>
<g  style="fill:none;stroke:#7ec3ee"><path d="M79 1361C127 1334 234 1275 294 1240 316 1227 350 1206 373 1191"/></g>
<polygon  style="fill:#7ec3ee" points="374,1193 381,1186 371,1189 374,1193 "/>
<ellipse  cx="54" cy="1216" rx="35" ry="18" style="fill:none;stroke:#87d0ff" />
<text x="29" y="1220" style="font-family:Times;font-size:14.00" >NoValue</text>
<g  style="fill:none;stroke:#7ec3ee"><path d="M76 1231C91 1240 112 1252 126 1254 182 1263 239 1263 294 1254 596 1210 907 1196 1196 1098 1266 1075 1341 961 1372 911"/></g>
<polygon  style="fill:#7ec3ee" points="1373,914 1376,904 1369,911 1373,914 "/>
<g  style="fill:none;stroke:#7ec3ee"><path d="M65 1199C78 1176 101 1137 108 1111 121 1072 91 1010 126 988 157 971 292 946 362 935"/></g>
<polygon  style="fill:#7ec3ee" points="362,938 371,933 361,933 362,938 "/>
<g  style="fill:none;stroke:#7ec3ee"><path d="M63 1198C79 1168 108 1111 108 1111 123 1060 93 993 126 951 165 904 262 933 294 881 334 819 282 728 312 660 317 648 336 641 354 639"/></g>
<polygon  style="fill:#7ec3ee" points="351,642 361,638 351,637 351,642 "/>
<g  style="fill:none;stroke:#7ec3ee"><path d="M68 1233C83 1249 107 1272 126 1278 185 1296 286 1312 348 1322"/></g>
<polygon  style="fill:#7ec3ee" points="346,1324 356,1323 346,1319 346,1324 "/>
<g  style="fill:none;stroke:#7ec3ee"><path d="M62 1234C75 1259 101 1305 126 1320 211 1367 306 1413 403 1413 403 1413 403 1413 1052 1413 1130 1413 1263 1404 1335 1398"/></g>
<polygon  style="fill:#7ec3ee" points="1335,1400 1345,1397 1335,1396 1335,1400 "/>
<g  style="fill:none;stroke:#7ec3ee"><path d="M82 1205C97 1200 114 1194 126 1192 190 1184 300 1177 360 1173"/></g>
<polygon  style="fill:#7ec3ee" points="358,1175 368,1173 358,1170 358,1175 "/>
</svg>
