<?xml version="1.0" encoding="UTF-8" standalone="no"?>
<!DOCTYPE svg PUBLIC "-//W3C//DTD SVG 1.0//EN"
 "http://www.w3.org/TR/2001/REC-SVG-20010904/DTD/svg10.dtd" [
 <!ATTLIST svg xmlns:xlink CDATA #FIXED "http://www.w3.org/1999/xlink">
]>
<!-- Generated by dot version 2.8 (Mon Sep 25 13:19:10 UTC 2006)
     For user: (connolly)  -->
<!-- Title: N871 Pages: 1 -->
<svg width="1828pt" height="1297pt"
 viewBox = "0 0 1828 1297"
 xmlns="http://www.w3.org/2000/svg" xmlns:xlink="http://www.w3.org/1999/xlink">
<g id="graph0" class="graph" style="font-family:Times-Roman;font-size:14.00;">
<title>N871</title>
<polygon style="fill:white;stroke:white;" points="-2,1299 -2,-2 1830,-2 1830,1299 -2,1299"/>
<text text-anchor="middle" x="914" y="1286">XML Infoset $Date$</text>
<g id="graph2" class="cluster"><title>clusterN756</title>
<polygon style="fill:none;stroke:black;" points="20,250 653,250 653,12 20,12 20,250"/>
<text text-anchor="middle" x="337" y="29">Items and Properties</text>
</g>
<!-- http://www.w3.org/2001/05id/infoset#Document -->
<g id="node1" class="node"><title>http://www.w3.org/2001/05id/infoset#Document</title>
<polygon style="fill:#87d0ff;stroke:#87d0ff;" points="65,949 5,973 65,997 125,973 65,949"/>
<text text-anchor="middle" x="65" y="978">Document</text>
</g>
<!-- http://www.w3.org/2001/05id/infoset#_DocChildren -->
<g id="node3" class="node"><title>http://www.w3.org/2001/05id/infoset#_DocChildren</title>
<ellipse style="fill:#87d0ff;stroke:#87d0ff;" cx="398" cy="873" rx="43" ry="18"/>
<text text-anchor="middle" x="398" y="878">(E|P|C|D)*</text>
</g>
<!-- http://www.w3.org/2001/05id/infoset#Document&#45;&gt;http://www.w3.org/2001/05id/infoset#_DocChildren -->
<g id="edge2" class="edge"><title>http://www.w3.org/2001/05id/infoset#Document&#45;&gt;http://www.w3.org/2001/05id/infoset#_DocChildren</title>
<path style="fill:none;stroke:blue;" d="M84,956C99,944 122,927 144,918 210,891 292,880 345,876"/>
<polygon style="fill:blue;stroke:blue;" points="345,873 355,875 345,879 345,873"/>
<text text-anchor="middle" x="220" y="877">children</text>
</g>
<!-- http://www.w3.org/2001/05id/infoset#Element -->
<g id="node5" class="node"><title>http://www.w3.org/2001/05id/infoset#Element</title>
<polygon style="fill:#87d0ff;stroke:#87d0ff;" points="618,605 567,629 618,653 669,629 618,605"/>
<text text-anchor="middle" x="618" y="634">Element</text>
</g>
<!-- http://www.w3.org/2001/05id/infoset#Document&#45;&gt;http://www.w3.org/2001/05id/infoset#Element -->
<g id="edge4" class="edge"><title>http://www.w3.org/2001/05id/infoset#Document&#45;&gt;http://www.w3.org/2001/05id/infoset#Element</title>
<path style="fill:none;stroke:blue;" d="M69,950C80,895 111,756 144,726 265,618 470,618 566,624"/>
<polygon style="fill:blue;stroke:blue;" points="566,621 576,625 566,627 566,621"/>
<text text-anchor="middle" x="398" y="617">document element</text>
</g>
<!-- file:/home/connolly/w3ccvs/WWW/2000/10/swap/infoset/infosetUtil#AbsoluteURI -->
<g id="node7" class="node"><title>file:/home/connolly/w3ccvs/WWW/2000/10/swap/infoset/infosetUtil#AbsoluteURI</title>
<polygon style="fill:#87d0ff;stroke:#87d0ff;" points="1472,1057 1376,1057 1376,1093 1472,1093 1472,1057"/>
<text text-anchor="middle" x="1424" y="1080">Absolute URI</text>
</g>
<!-- http://www.w3.org/2001/05id/infoset#Document&#45;&gt;file:/home/connolly/w3ccvs/WWW/2000/10/swap/infoset/infosetUtil#AbsoluteURI -->
<g id="edge6" class="edge"><title>http://www.w3.org/2001/05id/infoset#Document&#45;&gt;file:/home/connolly/w3ccvs/WWW/2000/10/swap/infoset/infosetUtil#AbsoluteURI</title>
<path style="fill:none;stroke:blue;" d="M70,995C81,1046 112,1170 144,1197 233,1269 284,1235 398,1235 398,1235 398,1235 1175,1235 1273,1235 1363,1146 1403,1101"/>
<polygon style="fill:blue;stroke:blue;" points="1401,1098 1410,1093 1406,1103 1401,1098"/>
<text text-anchor="middle" x="748" y="1232">base URI</text>
</g>
<!-- http://www.w3.org/2001/05id/infoset#Document&#45;&gt;file:/home/connolly/w3ccvs/WWW/2000/10/swap/infoset/infosetUtil#AbsoluteURI -->
<g id="edge8" class="edge"><title>http://www.w3.org/2001/05id/infoset#Document&#45;&gt;file:/home/connolly/w3ccvs/WWW/2000/10/swap/infoset/infosetUtil#AbsoluteURI</title>
<path style="fill:none;stroke:blue;" d="M111,979C190,989 358,1010 500,1025 752,1050 816,1056 1068,1068 1174,1073 1295,1074 1366,1075"/>
<polygon style="fill:blue;stroke:blue;" points="1366,1071 1376,1075 1366,1078 1366,1071"/>
<text text-anchor="middle" x="748" y="1038">system identifier</text>
</g>
<!-- file:/home/connolly/w3ccvs/WWW/2000/10/swap/infoset/infosetUtil#EncName -->
<g id="node10" class="node"><title>file:/home/connolly/w3ccvs/WWW/2000/10/swap/infoset/infosetUtil#EncName</title>
<polygon style="fill:#87d0ff;stroke:#87d0ff;" points="434,909 362,909 362,945 434,945 434,909"/>
<text text-anchor="middle" x="398" y="932">EncName</text>
</g>
<!-- http://www.w3.org/2001/05id/infoset#Document&#45;&gt;file:/home/connolly/w3ccvs/WWW/2000/10/swap/infoset/infosetUtil#EncName -->
<g id="edge10" class="edge"><title>http://www.w3.org/2001/05id/infoset#Document&#45;&gt;file:/home/connolly/w3ccvs/WWW/2000/10/swap/infoset/infosetUtil#EncName</title>
<path style="fill:none;stroke:blue;" d="M106,965C118,963 132,961 144,959 217,948 301,937 352,932"/>
<polygon style="fill:blue;stroke:blue;" points="352,929 362,931 352,935 352,929"/>
<text text-anchor="middle" x="220" y="935">character encoding scheme</text>
</g>
<!-- file:/home/connolly/w3ccvs/WWW/2000/10/swap/infoset/infosetUtil#StandAloneType -->
<g id="node12" class="node"><title>file:/home/connolly/w3ccvs/WWW/2000/10/swap/infoset/infosetUtil#StandAloneType</title>
<ellipse style="fill:#87d0ff;stroke:#87d0ff;" cx="398" cy="1189" rx="60" ry="18"/>
<text text-anchor="middle" x="398" y="1194">Standalone Type</text>
</g>
<!-- http://www.w3.org/2001/05id/infoset#Document&#45;&gt;file:/home/connolly/w3ccvs/WWW/2000/10/swap/infoset/infosetUtil#StandAloneType -->
<g id="edge12" class="edge"><title>http://www.w3.org/2001/05id/infoset#Document&#45;&gt;file:/home/connolly/w3ccvs/WWW/2000/10/swap/infoset/infosetUtil#StandAloneType</title>
<path style="fill:none;stroke:blue;" d="M68,996C75,1034 95,1110 144,1148 197,1188 274,1195 330,1194"/>
<polygon style="fill:blue;stroke:blue;" points="330,1190 340,1194 330,1197 330,1190"/>
<text text-anchor="middle" x="220" y="1145">standalone</text>
</g>
<!-- http://www.w3.org/2001/05id/infoset#Version -->
<g id="node14" class="node"><title>http://www.w3.org/2001/05id/infoset#Version</title>
<ellipse style="fill:none;stroke:black;" cx="398" cy="735" rx="36" ry="18"/>
<text text-anchor="middle" x="398" y="740">Version</text>
</g>
<!-- http://www.w3.org/2001/05id/infoset#Document&#45;&gt;http://www.w3.org/2001/05id/infoset#Version -->
<g id="edge14" class="edge"><title>http://www.w3.org/2001/05id/infoset#Document&#45;&gt;http://www.w3.org/2001/05id/infoset#Version</title>
<path style="fill:none;stroke:blue;" d="M70,951C79,916 101,850 144,813 204,761 297,744 352,738"/>
<polygon style="fill:blue;stroke:blue;" points="352,735 362,737 352,741 352,735"/>
<text text-anchor="middle" x="220" y="743">version</text>
</g>
<!-- http://www.w3.org/2001/05id/infoset#Notation -->
<g id="node16" class="node"><title>http://www.w3.org/2001/05id/infoset#Notation</title>
<polygon style="fill:#87d0ff;stroke:#87d0ff;" points="398,1039 345,1063 398,1087 451,1063 398,1039"/>
<text text-anchor="middle" x="398" y="1068">Notation</text>
</g>
<!-- http://www.w3.org/2001/05id/infoset#Document&#45;&gt;http://www.w3.org/2001/05id/infoset#Notation -->
<g id="edge16" class="edge"><title>http://www.w3.org/2001/05id/infoset#Document&#45;&gt;http://www.w3.org/2001/05id/infoset#Notation</title>
<path style="fill:none;stroke:orange;stroke-width:3;" d="M80,991C95,1007 119,1030 144,1041 209,1067 290,1070 343,1068"/>
<polygon style="fill:orange;stroke:orange;" points="343,1065 353,1067 343,1071 343,1065"/>
<text text-anchor="middle" x="220" y="1035">notations</text>
</g>
<!-- http://www.w3.org/2001/05id/infoset#UnparsedEntity -->
<g id="node18" class="node"><title>http://www.w3.org/2001/05id/infoset#UnparsedEntity</title>
<polygon style="fill:#87d0ff;stroke:#87d0ff;" points="398,1105 314,1129 398,1153 482,1129 398,1105"/>
<text text-anchor="middle" x="398" y="1134">Unparsed Entity</text>
</g>
<!-- http://www.w3.org/2001/05id/infoset#Document&#45;&gt;http://www.w3.org/2001/05id/infoset#UnparsedEntity -->
<g id="edge18" class="edge"><title>http://www.w3.org/2001/05id/infoset#Document&#45;&gt;http://www.w3.org/2001/05id/infoset#UnparsedEntity</title>
<path style="fill:none;stroke:orange;stroke-width:3;" d="M74,994C86,1020 110,1064 144,1086 194,1117 259,1128 311,1131"/>
<polygon style="fill:orange;stroke:orange;" points="311,1127 321,1131 311,1134 311,1127"/>
<text text-anchor="middle" x="220" y="1083">unparsed entities</text>
</g>
<!-- http://www.w3.org/2001/05id/infoset#_DocChildren&#45;&gt;http://www.w3.org/2001/05id/infoset#Element -->
<g id="edge20" class="edge"><title>http://www.w3.org/2001/05id/infoset#_DocChildren&#45;&gt;http://www.w3.org/2001/05id/infoset#Element</title>
<path style="fill:none;stroke:purple;stroke-width:3;" d="M413,856C452,813 551,703 596,653"/>
<polygon style="fill:purple;stroke:purple;" points="593,651 603,646 598,656 593,651"/>
</g>
<!-- http://www.w3.org/2001/05id/infoset#ProcessingInstruction -->
<g id="node21" class="node"><title>http://www.w3.org/2001/05id/infoset#ProcessingInstruction</title>
<polygon style="fill:#87d0ff;stroke:#87d0ff;" points="1175,897 1069,921 1175,945 1281,921 1175,897"/>
<text text-anchor="middle" x="1175" y="926">Processing Instruction</text>
</g>
<!-- http://www.w3.org/2001/05id/infoset#_DocChildren&#45;&gt;http://www.w3.org/2001/05id/infoset#ProcessingInstruction -->
<g id="edge22" class="edge"><title>http://www.w3.org/2001/05id/infoset#_DocChildren&#45;&gt;http://www.w3.org/2001/05id/infoset#ProcessingInstruction</title>
<path style="fill:none;stroke:purple;stroke-width:3;" d="M441,876C563,884 912,905 1081,915"/>
<polygon style="fill:purple;stroke:purple;" points="1081,912 1091,916 1081,918 1081,912"/>
</g>
<!-- http://www.w3.org/2001/05id/infoset#Comment -->
<g id="node23" class="node"><title>http://www.w3.org/2001/05id/infoset#Comment</title>
<polygon style="fill:#87d0ff;stroke:#87d0ff;" points="1175,831 1118,855 1175,879 1232,855 1175,831"/>
<text text-anchor="middle" x="1175" y="860">Comment</text>
</g>
<!-- http://www.w3.org/2001/05id/infoset#_DocChildren&#45;&gt;http://www.w3.org/2001/05id/infoset#Comment -->
<g id="edge24" class="edge"><title>http://www.w3.org/2001/05id/infoset#_DocChildren&#45;&gt;http://www.w3.org/2001/05id/infoset#Comment</title>
<path style="fill:none;stroke:purple;stroke-width:3;" d="M441,872C571,869 955,860 1110,856"/>
<polygon style="fill:purple;stroke:purple;" points="1110,852 1120,856 1110,859 1110,852"/>
</g>
<!-- http://www.w3.org/2001/05id/infoset#DocumentTypeDeclaration -->
<g id="node25" class="node"><title>http://www.w3.org/2001/05id/infoset#DocumentTypeDeclaration</title>
<polygon style="fill:#87d0ff;stroke:#87d0ff;" points="1692,961 1560,985 1692,1009 1824,985 1692,961"/>
<text text-anchor="middle" x="1692" y="990">Document Type Declaration</text>
</g>
<!-- http://www.w3.org/2001/05id/infoset#_DocChildren&#45;&gt;http://www.w3.org/2001/05id/infoset#DocumentTypeDeclaration -->
<g id="edge26" class="edge"><title>http://www.w3.org/2001/05id/infoset#_DocChildren&#45;&gt;http://www.w3.org/2001/05id/infoset#DocumentTypeDeclaration</title>
<path style="fill:none;stroke:purple;stroke-width:3;" d="M436,882C451,886 468,892 482,900 551,937 540,1011 618,1011 618,1011 618,1011 1012,1011 1214,1011 1449,1000 1583,992"/>
<polygon style="fill:purple;stroke:purple;" points="1583,989 1593,991 1583,995 1583,989"/>
</g>
<!-- http://www.w3.org/2001/05id/infoset#Element&#45;&gt;file:/home/connolly/w3ccvs/WWW/2000/10/swap/infoset/infosetUtil#AbsoluteURI -->
<g id="edge30" class="edge"><title>http://www.w3.org/2001/05id/infoset#Element&#45;&gt;file:/home/connolly/w3ccvs/WWW/2000/10/swap/infoset/infosetUtil#AbsoluteURI</title>
<path style="fill:none;stroke:blue;" d="M633,646C645,661 661,685 670,708 687,750 659,773 688,809 865,1021 1224,1064 1366,1072"/>
<polygon style="fill:blue;stroke:blue;" points="1366,1069 1376,1073 1366,1075 1366,1069"/>
<text text-anchor="middle" x="1012" y="991">base URI</text>
</g>
<!-- file:/home/connolly/w3ccvs/WWW/2000/10/swap/infoset/infosetUtil#Content -->
<g id="node27" class="node"><title>file:/home/connolly/w3ccvs/WWW/2000/10/swap/infoset/infosetUtil#Content</title>
<ellipse style="fill:#87d0ff;stroke:#87d0ff;" cx="891" cy="703" rx="35" ry="18"/>
<text text-anchor="middle" x="891" y="708">Content</text>
</g>
<!-- http://www.w3.org/2001/05id/infoset#Element&#45;&gt;file:/home/connolly/w3ccvs/WWW/2000/10/swap/infoset/infosetUtil#Content -->
<g id="edge28" class="edge"><title>http://www.w3.org/2001/05id/infoset#Element&#45;&gt;file:/home/connolly/w3ccvs/WWW/2000/10/swap/infoset/infosetUtil#Content</title>
<path style="fill:none;stroke:blue;" d="M644,641C657,647 673,654 688,659 742,677 805,689 847,696"/>
<polygon style="fill:blue;stroke:blue;" points="848,693 857,698 847,699 848,693"/>
<text text-anchor="middle" x="748" y="653">children</text>
</g>
<!-- http://www.w3.org/2001/05id/infoset#NamespaceName -->
<g id="node30" class="node"><title>http://www.w3.org/2001/05id/infoset#NamespaceName</title>
<ellipse style="fill:none;stroke:black;" cx="891" cy="347" rx="64" ry="18"/>
<text text-anchor="middle" x="891" y="352">Namespace Name</text>
</g>
<!-- http://www.w3.org/2001/05id/infoset#Element&#45;&gt;http://www.w3.org/2001/05id/infoset#NamespaceName -->
<g id="edge32" class="edge"><title>http://www.w3.org/2001/05id/infoset#Element&#45;&gt;http://www.w3.org/2001/05id/infoset#NamespaceName</title>
<path style="fill:none;stroke:blue;" d="M622,606C630,552 655,415 688,386 723,355 776,344 818,343"/>
<polygon style="fill:blue;stroke:blue;" points="818,339 828,343 818,346 818,339"/>
<text text-anchor="middle" x="748" y="339">namespace name</text>
</g>
<!-- file:/home/connolly/w3ccvs/WWW/2000/10/swap/infoset/infosetUtil#NCName -->
<g id="node32" class="node"><title>file:/home/connolly/w3ccvs/WWW/2000/10/swap/infoset/infosetUtil#NCName</title>
<polygon style="fill:#87d0ff;stroke:#87d0ff;" points="1459,469 1389,469 1389,505 1459,505 1459,469"/>
<text text-anchor="middle" x="1424" y="492">NCName</text>
</g>
<!-- http://www.w3.org/2001/05id/infoset#Element&#45;&gt;file:/home/connolly/w3ccvs/WWW/2000/10/swap/infoset/infosetUtil#NCName -->
<g id="edge34" class="edge"><title>http://www.w3.org/2001/05id/infoset#Element&#45;&gt;file:/home/connolly/w3ccvs/WWW/2000/10/swap/infoset/infosetUtil#NCName</title>
<path style="fill:none;stroke:blue;" d="M628,609C639,589 660,558 688,543 808,477 1237,482 1379,486"/>
<polygon style="fill:blue;stroke:blue;" points="1379,482 1389,486 1379,489 1379,482"/>
<text text-anchor="middle" x="1012" y="483">local name</text>
</g>
<!-- file:/home/connolly/w3ccvs/WWW/2000/10/swap/infoset/infosetUtil#Prefix -->
<g id="node34" class="node"><title>file:/home/connolly/w3ccvs/WWW/2000/10/swap/infoset/infosetUtil#Prefix</title>
<ellipse style="fill:none;stroke:black;" cx="1175" cy="441" rx="30" ry="18"/>
<text text-anchor="middle" x="1175" y="446">Prefix</text>
</g>
<!-- http://www.w3.org/2001/05id/infoset#Element&#45;&gt;file:/home/connolly/w3ccvs/WWW/2000/10/swap/infoset/infosetUtil#Prefix -->
<g id="edge36" class="edge"><title>http://www.w3.org/2001/05id/infoset#Element&#45;&gt;file:/home/connolly/w3ccvs/WWW/2000/10/swap/infoset/infosetUtil#Prefix</title>
<path style="fill:none;stroke:blue;" d="M623,607C631,577 650,523 688,497 725,472 1025,450 1135,444"/>
<polygon style="fill:blue;stroke:blue;" points="1135,441 1145,443 1135,447 1135,441"/>
<text text-anchor="middle" x="891" y="454">prefix</text>
</g>
<!-- file:/home/connolly/w3ccvs/WWW/2000/10/swap/infoset/infoset&#45;daml.n3#_g31 -->
<g id="node36" class="node"><title>file:/home/connolly/w3ccvs/WWW/2000/10/swap/infoset/infoset&#45;daml.n3#_g31</title>
<ellipse style="fill:none;stroke:black;" cx="891" cy="757" rx="35" ry="18"/>
<text text-anchor="middle" x="891" y="762">Elt/Doc</text>
</g>
<!-- http://www.w3.org/2001/05id/infoset#Element&#45;&gt;file:/home/connolly/w3ccvs/WWW/2000/10/swap/infoset/infoset&#45;daml.n3#_g31 -->
<g id="edge38" class="edge"><title>http://www.w3.org/2001/05id/infoset#Element&#45;&gt;file:/home/connolly/w3ccvs/WWW/2000/10/swap/infoset/infoset&#45;daml.n3#_g31</title>
<path style="fill:none;stroke:blue;" d="M632,647C643,662 659,686 670,708 681,728 670,742 688,756 736,789 808,780 851,769"/>
<polygon style="fill:blue;stroke:blue;" points="850,766 861,766 852,772 850,766"/>
<text text-anchor="middle" x="748" y="750">parent</text>
</g>
<!-- http://www.w3.org/2001/05id/infoset#Attribute -->
<g id="node38" class="node"><title>http://www.w3.org/2001/05id/infoset#Attribute</title>
<polygon style="fill:#87d0ff;stroke:#87d0ff;" points="891,566 836,590 891,614 946,590 891,566"/>
<text text-anchor="middle" x="891" y="595">Attribute</text>
</g>
<!-- http://www.w3.org/2001/05id/infoset#Element&#45;&gt;http://www.w3.org/2001/05id/infoset#Attribute -->
<g id="edge40" class="edge"><title>http://www.w3.org/2001/05id/infoset#Element&#45;&gt;http://www.w3.org/2001/05id/infoset#Attribute</title>
<path style="fill:none;stroke:orange;stroke-width:3;" d="M650,620C662,617 676,614 688,612 737,604 793,598 833,594"/>
<polygon style="fill:orange;stroke:orange;" points="833,591 843,593 833,597 833,591"/>
<text text-anchor="middle" x="748" y="592">attributes</text>
</g>
<!-- http://www.w3.org/2001/05id/infoset#Element&#45;&gt;http://www.w3.org/2001/05id/infoset#Attribute -->
<g id="edge42" class="edge"><title>http://www.w3.org/2001/05id/infoset#Element&#45;&gt;http://www.w3.org/2001/05id/infoset#Attribute</title>
<path style="fill:none;stroke:orange;stroke-width:3;" d="M657,635C696,640 757,644 808,632 826,628 845,618 860,610"/>
<polygon style="fill:orange;stroke:orange;" points="859,607 869,605 862,613 859,607"/>
<text text-anchor="middle" x="748" y="629">namespace attributes</text>
</g>
<!-- http://www.w3.org/2001/05id/infoset#Namespace -->
<g id="node41" class="node"><title>http://www.w3.org/2001/05id/infoset#Namespace</title>
<polygon style="fill:#87d0ff;stroke:#87d0ff;" points="891,383 826,407 891,431 956,407 891,383"/>
<text text-anchor="middle" x="891" y="412">Namespace</text>
</g>
<!-- http://www.w3.org/2001/05id/infoset#Element&#45;&gt;http://www.w3.org/2001/05id/infoset#Namespace -->
<g id="edge44" class="edge"><title>http://www.w3.org/2001/05id/infoset#Element&#45;&gt;http://www.w3.org/2001/05id/infoset#Namespace</title>
<path style="fill:none;stroke:orange;stroke-width:3;" d="M620,606C625,568 641,491 688,451 724,420 777,410 820,407"/>
<polygon style="fill:orange;stroke:orange;" points="820,404 830,406 820,410 820,404"/>
<text text-anchor="middle" x="748" y="403">in&#45;scope namespaces</text>
</g>
<!-- http://www.w3.org/2001/05id/infoset#yes -->
<g id="node43" class="node"><title>http://www.w3.org/2001/05id/infoset#yes</title>
<text text-anchor="middle" x="618" y="1194">yes</text>
</g>
<!-- file:/home/connolly/w3ccvs/WWW/2000/10/swap/infoset/infosetUtil#StandAloneType&#45;&gt;http://www.w3.org/2001/05id/infoset#yes -->
<g id="edge46" class="edge"><title>file:/home/connolly/w3ccvs/WWW/2000/10/swap/infoset/infosetUtil#StandAloneType&#45;&gt;http://www.w3.org/2001/05id/infoset#yes</title>
<path style="fill:none;stroke:green;" d="M459,1189C498,1189 547,1189 581,1189"/>
<polygon style="fill:green;stroke:green;" points="581,1185 591,1189 581,1192 581,1185"/>
<text text-anchor="middle" x="524" y="1186">one of...</text>
</g>
<!-- http://www.w3.org/2001/05id/infoset#no -->
<g id="node45" class="node"><title>http://www.w3.org/2001/05id/infoset#no</title>
<text text-anchor="middle" x="618" y="1140">no</text>
</g>
<!-- file:/home/connolly/w3ccvs/WWW/2000/10/swap/infoset/infosetUtil#StandAloneType&#45;&gt;http://www.w3.org/2001/05id/infoset#no -->
<g id="edge48" class="edge"><title>file:/home/connolly/w3ccvs/WWW/2000/10/swap/infoset/infosetUtil#StandAloneType&#45;&gt;http://www.w3.org/2001/05id/infoset#no</title>
<path style="fill:none;stroke:green;" d="M445,1177C486,1168 544,1154 581,1144"/>
<polygon style="fill:green;stroke:green;" points="581,1141 591,1142 582,1147 581,1141"/>
<text text-anchor="middle" x="524" y="1148">one of...</text>
</g>
<!-- file:/home/connolly/w3ccvs/WWW/2000/10/swap/infoset/infosetUtil#NoValue -->
<g id="node47" class="node"><title>file:/home/connolly/w3ccvs/WWW/2000/10/swap/infoset/infosetUtil#NoValue</title>
<ellipse style="fill:#87d0ff;stroke:#87d0ff;" cx="1424" cy="393" rx="41" ry="18"/>
<text text-anchor="middle" x="1424" y="398">No Value</text>
</g>
<!-- http://www.w3.org/2001/05id/infoset#Version&#45;&gt;file:/home/connolly/w3ccvs/WWW/2000/10/swap/infoset/infosetUtil#NoValue -->
<g id="edge50" class="edge"><title>http://www.w3.org/2001/05id/infoset#Version&#45;&gt;file:/home/connolly/w3ccvs/WWW/2000/10/swap/infoset/infosetUtil#NoValue</title>
<path style="fill:none;stroke:purple;" d="M416,719C435,702 464,673 482,644 570,505 455,301 618,301 618,301 618,301 1175,301 1224,301 1237,304 1282,320 1322,333 1364,356 1392,373"/>
<polygon style="fill:purple;stroke:purple;" points="1394,370 1401,378 1391,376 1394,370"/>
</g>
<!-- file:/home/connolly/w3ccvs/WWW/2000/10/swap/infoset/infosetUtil#VersionNum -->
<g id="node49" class="node"><title>file:/home/connolly/w3ccvs/WWW/2000/10/swap/infoset/infosetUtil#VersionNum</title>
<polygon style="fill:#87d0ff;stroke:#87d0ff;" points="663,717 573,717 573,753 663,753 663,717"/>
<text text-anchor="middle" x="618" y="740">VersionNum</text>
</g>
<!-- http://www.w3.org/2001/05id/infoset#Version&#45;&gt;file:/home/connolly/w3ccvs/WWW/2000/10/swap/infoset/infosetUtil#VersionNum -->
<g id="edge52" class="edge"><title>http://www.w3.org/2001/05id/infoset#Version&#45;&gt;file:/home/connolly/w3ccvs/WWW/2000/10/swap/infoset/infosetUtil#VersionNum</title>
<path style="fill:none;stroke:purple;" d="M434,735C469,735 523,735 563,735"/>
<polygon style="fill:purple;stroke:purple;" points="563,731 573,735 563,738 563,731"/>
</g>
<!-- http://www.w3.org/2001/05id/infoset#ProcessingInstruction&#45;&gt;file:/home/connolly/w3ccvs/WWW/2000/10/swap/infoset/infosetUtil#AbsoluteURI -->
<g id="edge54" class="edge"><title>http://www.w3.org/2001/05id/infoset#ProcessingInstruction&#45;&gt;file:/home/connolly/w3ccvs/WWW/2000/10/swap/infoset/infosetUtil#AbsoluteURI</title>
<path style="fill:none;stroke:blue;" d="M1204,939C1248,966 1335,1020 1386,1052"/>
<polygon style="fill:blue;stroke:blue;" points="1388,1049 1395,1057 1385,1055 1388,1049"/>
<text text-anchor="middle" x="1327" y="994">base URI</text>
</g>
<!-- file:/home/connolly/w3ccvs/WWW/2000/10/swap/infoset/infoset&#45;daml.n3#_g63 -->
<g id="node52" class="node"><title>file:/home/connolly/w3ccvs/WWW/2000/10/swap/infoset/infoset&#45;daml.n3#_g63</title>
<ellipse style="fill:none;stroke:black;" cx="1424" cy="952" rx="51" ry="18"/>
<text text-anchor="middle" x="1424" y="957">Elt/Doc/DTD</text>
</g>
<!-- http://www.w3.org/2001/05id/infoset#ProcessingInstruction&#45;&gt;file:/home/connolly/w3ccvs/WWW/2000/10/swap/infoset/infoset&#45;daml.n3#_g63 -->
<g id="edge56" class="edge"><title>http://www.w3.org/2001/05id/infoset#ProcessingInstruction&#45;&gt;file:/home/connolly/w3ccvs/WWW/2000/10/swap/infoset/infoset&#45;daml.n3#_g63</title>
<path style="fill:none;stroke:blue;" d="M1244,930C1281,935 1329,940 1365,945"/>
<polygon style="fill:blue;stroke:blue;" points="1365,942 1375,946 1365,948 1365,942"/>
<text text-anchor="middle" x="1327" y="933">parent</text>
</g>
<!-- file:/home/connolly/w3ccvs/WWW/2000/10/swap/infoset/infosetUtil#Name -->
<g id="node54" class="node"><title>file:/home/connolly/w3ccvs/WWW/2000/10/swap/infoset/infosetUtil#Name</title>
<polygon style="fill:#87d0ff;stroke:#87d0ff;" points="1451,880 1397,880 1397,916 1451,916 1451,880"/>
<text text-anchor="middle" x="1424" y="903">Name</text>
</g>
<!-- http://www.w3.org/2001/05id/infoset#ProcessingInstruction&#45;&gt;file:/home/connolly/w3ccvs/WWW/2000/10/swap/infoset/infosetUtil#Name -->
<g id="edge58" class="edge"><title>http://www.w3.org/2001/05id/infoset#ProcessingInstruction&#45;&gt;file:/home/connolly/w3ccvs/WWW/2000/10/swap/infoset/infosetUtil#Name</title>
<path style="fill:none;stroke:blue;" d="M1251,914C1296,909 1351,905 1387,901"/>
<polygon style="fill:blue;stroke:blue;" points="1387,898 1397,900 1387,904 1387,898"/>
<text text-anchor="middle" x="1327" y="900">target</text>
</g>
<!-- file:/home/connolly/w3ccvs/WWW/2000/10/swap/infoset/infosetUtil#String -->
<g id="node56" class="node"><title>file:/home/connolly/w3ccvs/WWW/2000/10/swap/infoset/infosetUtil#String</title>
<polygon style="fill:#87d0ff;stroke:#87d0ff;" points="1451,797 1397,797 1397,833 1451,833 1451,797"/>
<text text-anchor="middle" x="1424" y="820">String</text>
</g>
<!-- http://www.w3.org/2001/05id/infoset#ProcessingInstruction&#45;&gt;file:/home/connolly/w3ccvs/WWW/2000/10/swap/infoset/infosetUtil#String -->
<g id="edge60" class="edge"><title>http://www.w3.org/2001/05id/infoset#ProcessingInstruction&#45;&gt;file:/home/connolly/w3ccvs/WWW/2000/10/swap/infoset/infosetUtil#String</title>
<path style="fill:none;stroke:blue;" d="M1223,908C1242,902 1263,895 1282,888 1320,873 1360,852 1388,836"/>
<polygon style="fill:blue;stroke:blue;" points="1387,833 1397,831 1390,839 1387,833"/>
<text text-anchor="middle" x="1327" y="852">content</text>
</g>
<!-- file:/home/connolly/w3ccvs/WWW/2000/10/swap/infoset/infosetUtil#Content&#45;&gt;http://www.w3.org/2001/05id/infoset#Element -->
<g id="edge62" class="edge"><title>file:/home/connolly/w3ccvs/WWW/2000/10/swap/infoset/infosetUtil#Content&#45;&gt;http://www.w3.org/2001/05id/infoset#Element</title>
<path style="fill:none;stroke:purple;stroke-width:3;" d="M856,706C814,709 743,709 688,687 670,680 653,666 640,654"/>
<polygon style="fill:purple;stroke:purple;" points="637,656 633,646 642,651 637,656"/>
</g>
<!-- file:/home/connolly/w3ccvs/WWW/2000/10/swap/infoset/infosetUtil#Content&#45;&gt;http://www.w3.org/2001/05id/infoset#ProcessingInstruction -->
<g id="edge64" class="edge"><title>file:/home/connolly/w3ccvs/WWW/2000/10/swap/infoset/infosetUtil#Content&#45;&gt;http://www.w3.org/2001/05id/infoset#ProcessingInstruction</title>
<path style="fill:none;stroke:purple;stroke-width:3;" d="M924,710C935,714 947,721 956,730 973,747 962,760 974,781 1007,835 1015,853 1068,888 1080,896 1094,902 1108,907"/>
<polygon style="fill:purple;stroke:purple;" points="1109,904 1118,910 1107,910 1109,904"/>
</g>
<!-- file:/home/connolly/w3ccvs/WWW/2000/10/swap/infoset/infosetUtil#Content&#45;&gt;http://www.w3.org/2001/05id/infoset#Comment -->
<g id="edge68" class="edge"><title>file:/home/connolly/w3ccvs/WWW/2000/10/swap/infoset/infosetUtil#Content&#45;&gt;http://www.w3.org/2001/05id/infoset#Comment</title>
<path style="fill:none;stroke:purple;stroke-width:3;" d="M920,714C931,718 944,724 956,730 1025,764 1102,809 1143,835"/>
<polygon style="fill:purple;stroke:purple;" points="1145,832 1152,840 1142,838 1145,832"/>
</g>
<!-- http://www.w3.org/2001/05id/infoset#Character -->
<g id="node60" class="node"><title>http://www.w3.org/2001/05id/infoset#Character</title>
<polygon style="fill:#87d0ff;stroke:#87d0ff;" points="1175,727 1118,751 1175,775 1232,751 1175,727"/>
<text text-anchor="middle" x="1175" y="756">Character</text>
</g>
<!-- file:/home/connolly/w3ccvs/WWW/2000/10/swap/infoset/infosetUtil#Content&#45;&gt;http://www.w3.org/2001/05id/infoset#Character -->
<g id="edge66" class="edge"><title>file:/home/connolly/w3ccvs/WWW/2000/10/swap/infoset/infosetUtil#Content&#45;&gt;http://www.w3.org/2001/05id/infoset#Character</title>
<path style="fill:none;stroke:purple;stroke-width:3;" d="M925,709C974,717 1067,732 1124,742"/>
<polygon style="fill:purple;stroke:purple;" points="1125,739 1134,744 1124,745 1125,739"/>
</g>
<!-- http://www.w3.org/2001/05id/infoset#NamespaceName&#45;&gt;file:/home/connolly/w3ccvs/WWW/2000/10/swap/infoset/infosetUtil#NoValue -->
<g id="edge70" class="edge"><title>http://www.w3.org/2001/05id/infoset#NamespaceName&#45;&gt;file:/home/connolly/w3ccvs/WWW/2000/10/swap/infoset/infosetUtil#NoValue</title>
<path style="fill:none;stroke:purple;" d="M946,356C981,362 1027,369 1068,374 1176,385 1304,390 1373,392"/>
<polygon style="fill:purple;stroke:purple;" points="1373,388 1383,392 1373,395 1373,388"/>
</g>
<!-- file:/home/connolly/w3ccvs/WWW/2000/10/swap/infoset/infosetUtil#AbsoluteURIref -->
<g id="node64" class="node"><title>file:/home/connolly/w3ccvs/WWW/2000/10/swap/infoset/infosetUtil#AbsoluteURIref</title>
<polygon style="fill:#87d0ff;stroke:#87d0ff;" points="1218,329 1132,329 1132,365 1218,365 1218,329"/>
<text text-anchor="middle" x="1175" y="352">Abs. URIref</text>
</g>
<!-- http://www.w3.org/2001/05id/infoset#NamespaceName&#45;&gt;file:/home/connolly/w3ccvs/WWW/2000/10/swap/infoset/infosetUtil#AbsoluteURIref -->
<g id="edge72" class="edge"><title>http://www.w3.org/2001/05id/infoset#NamespaceName&#45;&gt;file:/home/connolly/w3ccvs/WWW/2000/10/swap/infoset/infosetUtil#AbsoluteURIref</title>
<path style="fill:none;stroke:purple;" d="M956,347C1006,347 1075,347 1121,347"/>
<polygon style="fill:purple;stroke:purple;" points="1121,343 1131,347 1121,350 1121,343"/>
</g>
<!-- file:/home/connolly/w3ccvs/WWW/2000/10/swap/infoset/infosetUtil#Prefix&#45;&gt;file:/home/connolly/w3ccvs/WWW/2000/10/swap/infoset/infosetUtil#NCName -->
<g id="edge76" class="edge"><title>file:/home/connolly/w3ccvs/WWW/2000/10/swap/infoset/infosetUtil#Prefix&#45;&gt;file:/home/connolly/w3ccvs/WWW/2000/10/swap/infoset/infosetUtil#NCName</title>
<path style="fill:none;stroke:purple;" d="M1204,446C1239,452 1301,462 1354,473 1362,474 1371,476 1379,477"/>
<polygon style="fill:purple;stroke:purple;" points="1380,474 1389,479 1379,480 1380,474"/>
</g>
<!-- file:/home/connolly/w3ccvs/WWW/2000/10/swap/infoset/infosetUtil#Prefix&#45;&gt;file:/home/connolly/w3ccvs/WWW/2000/10/swap/infoset/infosetUtil#NoValue -->
<g id="edge74" class="edge"><title>file:/home/connolly/w3ccvs/WWW/2000/10/swap/infoset/infosetUtil#Prefix&#45;&gt;file:/home/connolly/w3ccvs/WWW/2000/10/swap/infoset/infosetUtil#NoValue</title>
<path style="fill:none;stroke:purple;" d="M1204,436C1239,429 1301,417 1354,407 1361,406 1369,404 1376,402"/>
<polygon style="fill:purple;stroke:purple;" points="1376,399 1386,400 1377,405 1376,399"/>
</g>
<!-- file:/home/connolly/w3ccvs/WWW/2000/10/swap/infoset/infoset&#45;daml.n3#_g31&#45;&gt;http://www.w3.org/2001/05id/infoset#Document -->
<g id="edge80" class="edge"><title>file:/home/connolly/w3ccvs/WWW/2000/10/swap/infoset/infoset&#45;daml.n3#_g31&#45;&gt;http://www.w3.org/2001/05id/infoset#Document</title>
<path style="fill:none;stroke:purple;" d="M862,767C846,772 826,778 808,782 663,812 272,783 144,860 113,879 90,916 77,943"/>
<polygon style="fill:purple;stroke:purple;" points="80,944 73,952 74,941 80,944"/>
</g>
<!-- file:/home/connolly/w3ccvs/WWW/2000/10/swap/infoset/infoset&#45;daml.n3#_g31&#45;&gt;http://www.w3.org/2001/05id/infoset#Element -->
<g id="edge78" class="edge"><title>file:/home/connolly/w3ccvs/WWW/2000/10/swap/infoset/infoset&#45;daml.n3#_g31&#45;&gt;http://www.w3.org/2001/05id/infoset#Element</title>
<path style="fill:none;stroke:purple;" d="M859,750C803,738 695,714 688,710 667,696 648,674 636,656"/>
<polygon style="fill:purple;stroke:purple;" points="633,658 630,648 639,654 633,658"/>
</g>
<!-- http://www.w3.org/2001/05id/infoset#Attribute&#45;&gt;http://www.w3.org/2001/05id/infoset#Element -->
<g id="edge92" class="edge"><title>http://www.w3.org/2001/05id/infoset#Attribute&#45;&gt;http://www.w3.org/2001/05id/infoset#Element</title>
<path style="fill:none;stroke:blue;" d="M859,580C818,569 746,555 688,575 671,581 654,593 641,605"/>
<polygon style="fill:blue;stroke:blue;" points="643,608 633,612 638,603 643,608"/>
<text text-anchor="middle" x="748" y="560">owner element</text>
</g>
<!-- http://www.w3.org/2001/05id/infoset#Attribute&#45;&gt;file:/home/connolly/w3ccvs/WWW/2000/10/swap/infoset/infosetUtil#NCName -->
<g id="edge82" class="edge"><title>http://www.w3.org/2001/05id/infoset#Attribute&#45;&gt;file:/home/connolly/w3ccvs/WWW/2000/10/swap/infoset/infosetUtil#NCName</title>
<path style="fill:none;stroke:blue;" d="M929,582C943,579 959,576 974,573 1111,546 1146,543 1282,517 1315,511 1351,503 1379,497"/>
<polygon style="fill:blue;stroke:blue;" points="1379,494 1389,495 1380,500 1379,494"/>
<text text-anchor="middle" x="1175" y="514">local name</text>
</g>
<!-- http://www.w3.org/2001/05id/infoset#Attribute&#45;&gt;file:/home/connolly/w3ccvs/WWW/2000/10/swap/infoset/infosetUtil#Prefix -->
<g id="edge84" class="edge"><title>http://www.w3.org/2001/05id/infoset#Attribute&#45;&gt;file:/home/connolly/w3ccvs/WWW/2000/10/swap/infoset/infosetUtil#Prefix</title>
<path style="fill:none;stroke:blue;" d="M915,576C931,567 954,556 974,548 1007,534 1019,541 1050,525 1060,520 1060,516 1068,511 1094,493 1124,473 1145,459"/>
<polygon style="fill:blue;stroke:blue;" points="1144,456 1154,454 1147,462 1144,456"/>
<text text-anchor="middle" x="1012" y="522">prefix</text>
</g>
<!-- http://www.w3.org/2001/05id/infoset#Attribute&#45;&gt;file:/home/connolly/w3ccvs/WWW/2000/10/swap/infoset/infosetUtil#String -->
<g id="edge86" class="edge"><title>http://www.w3.org/2001/05id/infoset#Attribute&#45;&gt;file:/home/connolly/w3ccvs/WWW/2000/10/swap/infoset/infosetUtil#String</title>
<path style="fill:none;stroke:blue;" d="M927,598C963,607 1019,619 1068,628 1132,638 1308,617 1354,661 1387,691 1352,720 1372,760 1377,771 1386,781 1395,790"/>
<polygon style="fill:blue;stroke:blue;" points="1397,787 1402,797 1392,792 1397,787"/>
<text text-anchor="middle" x="1175" y="622">normalized value</text>
</g>
<!-- file:/home/connolly/w3ccvs/WWW/2000/10/swap/infoset/infosetUtil#Boolean -->
<g id="node73" class="node"><title>file:/home/connolly/w3ccvs/WWW/2000/10/swap/infoset/infosetUtil#Boolean</title>
<polygon style="fill:#87d0ff;stroke:#87d0ff;" points="1207,673 1143,673 1143,709 1207,709 1207,673"/>
<text text-anchor="middle" x="1175" y="696">Boolean</text>
</g>
<!-- http://www.w3.org/2001/05id/infoset#Attribute&#45;&gt;file:/home/connolly/w3ccvs/WWW/2000/10/swap/infoset/infosetUtil#Boolean -->
<g id="edge88" class="edge"><title>http://www.w3.org/2001/05id/infoset#Attribute&#45;&gt;file:/home/connolly/w3ccvs/WWW/2000/10/swap/infoset/infosetUtil#Boolean</title>
<path style="fill:none;stroke:blue;" d="M905,608C920,626 946,653 974,667 1025,690 1091,694 1133,693"/>
<polygon style="fill:blue;stroke:blue;" points="1133,689 1143,693 1133,696 1133,689"/>
<text text-anchor="middle" x="1012" y="661">specified</text>
</g>
<!-- file:/home/connolly/w3ccvs/WWW/2000/10/swap/infoset/infosetUtil#AttributeType -->
<g id="node75" class="node"><title>file:/home/connolly/w3ccvs/WWW/2000/10/swap/infoset/infosetUtil#AttributeType</title>
<ellipse style="fill:none;stroke:black;" cx="1175" cy="585" rx="55" ry="18"/>
<text text-anchor="middle" x="1175" y="590">Attribute Type</text>
</g>
<!-- http://www.w3.org/2001/05id/infoset#Attribute&#45;&gt;file:/home/connolly/w3ccvs/WWW/2000/10/swap/infoset/infosetUtil#AttributeType -->
<g id="edge90" class="edge"><title>http://www.w3.org/2001/05id/infoset#Attribute&#45;&gt;file:/home/connolly/w3ccvs/WWW/2000/10/swap/infoset/infosetUtil#AttributeType</title>
<path style="fill:none;stroke:blue;" d="M946,590C977,590 1016,589 1050,589 1069,588 1090,587 1110,587"/>
<polygon style="fill:blue;stroke:blue;" points="1110,583 1120,587 1110,590 1110,583"/>
<text text-anchor="middle" x="1012" y="586">attribute type</text>
</g>
<!-- http://www.w3.org/2001/05id/infoset#noValue -->
<g id="node78" class="node"><title>http://www.w3.org/2001/05id/infoset#noValue</title>
<text text-anchor="middle" x="1692" y="398">no value</text>
</g>
<!-- file:/home/connolly/w3ccvs/WWW/2000/10/swap/infoset/infosetUtil#NoValue&#45;&gt;http://www.w3.org/2001/05id/infoset#noValue -->
<g id="edge94" class="edge"><title>file:/home/connolly/w3ccvs/WWW/2000/10/swap/infoset/infosetUtil#NoValue&#45;&gt;http://www.w3.org/2001/05id/infoset#noValue</title>
<path style="fill:none;stroke:green;" d="M1465,393C1515,393 1599,393 1650,393"/>
<polygon style="fill:green;stroke:green;" points="1650,389 1660,393 1650,396 1650,389"/>
<text text-anchor="middle" x="1518" y="390">one of...</text>
</g>
<!-- file:/home/connolly/w3ccvs/WWW/2000/10/swap/infoset/infoset&#45;daml.n3#_g63&#45;&gt;http://www.w3.org/2001/05id/infoset#Document -->
<g id="edge98" class="edge"><title>file:/home/connolly/w3ccvs/WWW/2000/10/swap/infoset/infoset&#45;daml.n3#_g63&#45;&gt;http://www.w3.org/2001/05id/infoset#Document</title>
<path style="fill:none;stroke:purple;" d="M1376,959C1326,965 1245,973 1175,973 398,973 398,973 398,973 308,973 204,973 136,973"/>
<polygon style="fill:purple;stroke:purple;" points="136,976 126,973 136,969 136,976"/>
</g>
<!-- file:/home/connolly/w3ccvs/WWW/2000/10/swap/infoset/infoset&#45;daml.n3#_g63&#45;&gt;http://www.w3.org/2001/05id/infoset#Element -->
<g id="edge96" class="edge"><title>file:/home/connolly/w3ccvs/WWW/2000/10/swap/infoset/infoset&#45;daml.n3#_g63&#45;&gt;http://www.w3.org/2001/05id/infoset#Element</title>
<path style="fill:none;stroke:purple;" d="M1389,939C1382,935 1376,931 1372,925 1348,892 1384,863 1354,835 1331,812 1315,825 1282,822 1217,813 739,824 688,782 663,760 684,739 670,708 662,689 649,670 638,654"/>
<polygon style="fill:purple;stroke:purple;" points="635,656 632,646 641,652 635,656"/>
</g>
<!-- file:/home/connolly/w3ccvs/WWW/2000/10/swap/infoset/infoset&#45;daml.n3#_g63&#45;&gt;http://www.w3.org/2001/05id/infoset#DocumentTypeDeclaration -->
<g id="edge100" class="edge"><title>file:/home/connolly/w3ccvs/WWW/2000/10/swap/infoset/infoset&#45;daml.n3#_g63&#45;&gt;http://www.w3.org/2001/05id/infoset#DocumentTypeDeclaration</title>
<path style="fill:none;stroke:purple;" d="M1473,958C1509,963 1559,969 1602,974"/>
<polygon style="fill:purple;stroke:purple;" points="1602,971 1612,975 1602,977 1602,971"/>
</g>
<!-- file:/home/connolly/w3ccvs/WWW/2000/10/swap/infoset/infosetUtil#true -->
<g id="node83" class="node"><title>file:/home/connolly/w3ccvs/WWW/2000/10/swap/infoset/infosetUtil#true</title>
<text text-anchor="middle" x="1424" y="738">true</text>
</g>
<!-- file:/home/connolly/w3ccvs/WWW/2000/10/swap/infoset/infosetUtil#Boolean&#45;&gt;file:/home/connolly/w3ccvs/WWW/2000/10/swap/infoset/infosetUtil#true -->
<g id="edge102" class="edge"><title>file:/home/connolly/w3ccvs/WWW/2000/10/swap/infoset/infosetUtil#Boolean&#45;&gt;file:/home/connolly/w3ccvs/WWW/2000/10/swap/infoset/infosetUtil#true</title>
<path style="fill:none;stroke:green;" d="M1207,696C1253,704 1338,719 1387,726"/>
<polygon style="fill:green;stroke:green;" points="1388,723 1397,728 1387,729 1388,723"/>
<text text-anchor="middle" x="1327" y="708">one of...</text>
</g>
<!-- file:/home/connolly/w3ccvs/WWW/2000/10/swap/infoset/infosetUtil#false -->
<g id="node85" class="node"><title>file:/home/connolly/w3ccvs/WWW/2000/10/swap/infoset/infosetUtil#false</title>
<text text-anchor="middle" x="1424" y="684">false</text>
</g>
<!-- file:/home/connolly/w3ccvs/WWW/2000/10/swap/infoset/infosetUtil#Boolean&#45;&gt;file:/home/connolly/w3ccvs/WWW/2000/10/swap/infoset/infosetUtil#false -->
<g id="edge104" class="edge"><title>file:/home/connolly/w3ccvs/WWW/2000/10/swap/infoset/infosetUtil#Boolean&#45;&gt;file:/home/connolly/w3ccvs/WWW/2000/10/swap/infoset/infosetUtil#false</title>
<path style="fill:none;stroke:green;" d="M1207,689C1253,687 1338,683 1387,680"/>
<polygon style="fill:green;stroke:green;" points="1387,676 1397,680 1387,683 1387,676"/>
<text text-anchor="middle" x="1327" y="678">one of...</text>
</g>
<!-- mid:abcXX#anItem -->
<g id="node87" class="node"><title>mid:abcXX#anItem</title>
<polygon style="fill:#87d0ff;stroke:#87d0ff;" points="65,123 29,147 65,171 101,147 65,123"/>
<text text-anchor="middle" x="65" y="152">Item</text>
</g>
<!-- mid:abcXX#One -->
<g id="node89" class="node"><title>mid:abcXX#One</title>
<ellipse style="fill:#87d0ff;stroke:#87d0ff;" cx="398" cy="224" rx="36" ry="18"/>
<text text-anchor="middle" x="398" y="229">A Class</text>
</g>
<!-- mid:abcXX#anItem&#45;&gt;mid:abcXX#One -->
<g id="edge107" class="edge"><title>mid:abcXX#anItem&#45;&gt;mid:abcXX#One</title>
<path style="fill:none;stroke:blue;" d="M87,156C99,162 114,168 126,175 135,179 136,182 144,185 214,208 300,218 352,221"/>
<polygon style="fill:blue;stroke:blue;" points="352,218 362,222 352,224 352,218"/>
<text text-anchor="middle" x="220" y="179">many&#45;to&#45;one</text>
</g>
<!-- mid:abcXX#Parts -->
<g id="node91" class="node"><title>mid:abcXX#Parts</title>
<ellipse style="fill:#87d0ff;stroke:#87d0ff;" cx="398" cy="170" rx="31" ry="18"/>
<text text-anchor="middle" x="398" y="175">X|Y|Z</text>
</g>
<!-- mid:abcXX#anItem&#45;&gt;mid:abcXX#Parts -->
<g id="edge109" class="edge"><title>mid:abcXX#anItem&#45;&gt;mid:abcXX#Parts</title>
<path style="fill:none;stroke:blue;" d="M95,152C110,154 128,156 144,158 219,165 306,168 357,169"/>
<polygon style="fill:blue;stroke:blue;" points="357,165 367,169 357,172 357,165"/>
<text text-anchor="middle" x="220" y="152">many&#45;to&#45;1</text>
</g>
<!-- mid:abcXX#ABC -->
<g id="node93" class="node"><title>mid:abcXX#ABC</title>
<ellipse style="fill:#87d0ff;stroke:#87d0ff;" cx="398" cy="116" rx="28" ry="18"/>
<text text-anchor="middle" x="398" y="121">ABC</text>
</g>
<!-- mid:abcXX#anItem&#45;&gt;mid:abcXX#ABC -->
<g id="edge111" class="edge"><title>mid:abcXX#anItem&#45;&gt;mid:abcXX#ABC</title>
<path style="fill:none;stroke:orange;stroke-width:3;" d="M97,144C159,138 294,125 360,120"/>
<polygon style="fill:orange;stroke:orange;" points="360,117 370,119 360,123 360,117"/>
<text text-anchor="middle" x="220" y="122">many&#45;to&#45;many</text>
</g>
<!-- mid:abcXX#DEF -->
<g id="node95" class="node"><title>mid:abcXX#DEF</title>
<ellipse style="fill:#87d0ff;stroke:#87d0ff;" cx="398" cy="62" rx="27" ry="18"/>
<text text-anchor="middle" x="398" y="67">DEF</text>
</g>
<!-- mid:abcXX#anItem&#45;&gt;mid:abcXX#DEF -->
<g id="edge113" class="edge"><title>mid:abcXX#anItem&#45;&gt;mid:abcXX#DEF</title>
<path style="fill:none;stroke:green;stroke-width:3;" d="M84,135C99,125 122,112 144,105 219,80 311,69 361,65"/>
<polygon style="fill:green;stroke:green;" points="361,62 371,64 361,68 361,62"/>
<text text-anchor="middle" x="220" y="71">many&#45;to&#45;list</text>
</g>
<!-- mid:abcXX#Part1 -->
<g id="node97" class="node"><title>mid:abcXX#Part1</title>
<ellipse style="fill:#87d0ff;stroke:#87d0ff;" cx="618" cy="224" rx="27" ry="18"/>
<text text-anchor="middle" x="618" y="229">X</text>
</g>
<!-- mid:abcXX#Parts&#45;&gt;mid:abcXX#Part1 -->
<g id="edge115" class="edge"><title>mid:abcXX#Parts&#45;&gt;mid:abcXX#Part1</title>
<path style="fill:none;stroke:purple;" d="M427,176C458,183 506,194 548,205 559,207 572,211 583,214"/>
<polygon style="fill:purple;stroke:purple;" points="584,211 593,217 582,217 584,211"/>
</g>
<!-- mid:abcXX#Part2 -->
<g id="node99" class="node"><title>mid:abcXX#Part2</title>
<ellipse style="fill:#87d0ff;stroke:#87d0ff;" cx="618" cy="170" rx="27" ry="18"/>
<text text-anchor="middle" x="618" y="175">Y</text>
</g>
<!-- mid:abcXX#Parts&#45;&gt;mid:abcXX#Part2 -->
<g id="edge117" class="edge"><title>mid:abcXX#Parts&#45;&gt;mid:abcXX#Part2</title>
<path style="fill:none;stroke:purple;" d="M429,170C469,170 538,170 581,170"/>
<polygon style="fill:purple;stroke:purple;" points="581,166 591,170 581,173 581,166"/>
</g>
<!-- mid:abcXX#Part3 -->
<g id="node101" class="node"><title>mid:abcXX#Part3</title>
<ellipse style="fill:#87d0ff;stroke:#87d0ff;" cx="618" cy="116" rx="27" ry="18"/>
<text text-anchor="middle" x="618" y="121">Z</text>
</g>
<!-- mid:abcXX#Parts&#45;&gt;mid:abcXX#Part3 -->
<g id="edge119" class="edge"><title>mid:abcXX#Parts&#45;&gt;mid:abcXX#Part3</title>
<path style="fill:none;stroke:purple;" d="M427,163C467,153 539,135 583,124"/>
<polygon style="fill:purple;stroke:purple;" points="583,121 593,122 584,127 583,121"/>
</g>
</g>
</svg>
