<?xml version="1.0" standalone="yes"?>
<!-- Generated by dotneato version 1.6 (Sat Aug  5 11:20:22 CDT 2000)
     For: (connolly) 
     Title: N113
     Pages: 1
-->
<svg width="1102pt" height="1818pt" >
<text x="428" y="1850" style="font-family:Times;font-size:14.00" >XML Infoset $Date$</text>
<ellipse  cx="718" cy="1048" rx="34" ry="18" style="fill:none;stroke:#87d0ff" />
<text x="694" y="1052" style="font-family:Times;font-size:14.00" >InfoItem</text>
<ellipse  cx="487" cy="578" rx="39" ry="18" style="fill:none;stroke:#87d0ff" />
<text x="458" y="582" style="font-family:Times;font-size:14.00" >Document</text>
<g  style="fill:none;stroke:#7ec3ee"><path d="M526 574C566 571 624 573 638 602 693 715 712 947 717 1023"/></g>
<polygon  style="fill:#7ec3ee" points="715,1020 717,1030 720,1020 715,1020 "/>
<ellipse  cx="487" cy="162" rx="33" ry="18" style="fill:none;stroke:#87d0ff" />
<text x="464" y="166" style="font-family:Times;font-size:14.00" >Element</text>
<g  style="fill:none;stroke:#7ec3ee"><path d="M520 158C561 154 630 152 638 186 701 430 715 901 718 1020"/></g>
<polygon  style="fill:#7ec3ee" points="716,1020 718,1030 721,1020 716,1020 "/>
<ellipse  cx="487" cy="994" rx="35" ry="18" style="fill:none;stroke:#87d0ff" />
<text x="462" y="998" style="font-family:Times;font-size:14.00" >Attribute</text>
<g  style="fill:none;stroke:#7ec3ee"><path d="M522 998C556 1003 607 1010 638 1018 650 1020 667 1026 682 1032"/></g>
<polygon  style="fill:#7ec3ee" points="681,1034 691,1036 683,1030 681,1034 "/>
<ellipse  cx="487" cy="1740" rx="71" ry="18" style="fill:none;stroke:#87d0ff" />
<text x="426" y="1744" style="font-family:Times;font-size:14.00" >ProcessingInstruction</text>
<g  style="fill:none;stroke:#7ec3ee"><path d="M554 1746C590 1746 630 1741 638 1716 638 1716 700 1194 715 1073"/></g>
<polygon  style="fill:#7ec3ee" points="717,1076 716,1066 712,1076 717,1076 "/>
<ellipse  cx="487" cy="724" rx="37" ry="18" style="fill:none;stroke:#87d0ff" />
<text x="460" y="728" style="font-family:Times;font-size:14.00" >Character</text>
<g  style="fill:none;stroke:#7ec3ee"><path d="M524 721C563 719 619 722 638 748 686 815 708 962 715 1022"/></g>
<polygon  style="fill:#7ec3ee" points="712,1020 716,1030 717,1020 712,1020 "/>
<ellipse  cx="487" cy="632" rx="91" ry="18" style="fill:none;stroke:#87d0ff" />
<text x="406" y="636" style="font-family:Times;font-size:14.00" >UnexpandedEntityReference</text>
<g  style="fill:none;stroke:#7ec3ee"><path d="M578 632C605 636 629 644 638 661 690 755 710 949 716 1021"/></g>
<polygon  style="fill:#7ec3ee" points="713,1020 717,1030 718,1020 713,1020 "/>
<ellipse  cx="487" cy="378" rx="38" ry="18" style="fill:none;stroke:#87d0ff" />
<text x="459" y="382" style="font-family:Times;font-size:14.00" >Comment</text>
<g  style="fill:none;stroke:#7ec3ee"><path d="M525 375C566 373 627 375 638 407 698 581 714 925 718 1022"/></g>
<polygon  style="fill:#7ec3ee" points="716,1020 718,1030 721,1020 716,1020 "/>
<ellipse  cx="487" cy="470" rx="86" ry="18" style="fill:none;stroke:#87d0ff" />
<text x="411" y="474" style="font-family:Times;font-size:14.00" >DocumentTypeDeclaration</text>
<g  style="fill:none;stroke:#7ec3ee"><path d="M570 465C601 466 630 474 638 494 697 641 713 934 717 1022"/></g>
<polygon  style="fill:#7ec3ee" points="715,1020 717,1030 720,1020 715,1020 "/>
<ellipse  cx="487" cy="1102" rx="54" ry="18" style="fill:none;stroke:#87d0ff" />
<text x="443" y="1106" style="font-family:Times;font-size:14.00" >UnparsedEntity</text>
<g  style="fill:none;stroke:#7ec3ee"><path d="M537 1095C570 1090 612 1084 638 1078 650 1075 667 1069 682 1063"/></g>
<polygon  style="fill:#7ec3ee" points="683,1065 691,1059 681,1061 683,1065 "/>
<ellipse  cx="487" cy="1048" rx="35" ry="18" style="fill:none;stroke:#87d0ff" />
<text x="462" y="1052" style="font-family:Times;font-size:14.00" >Notation</text>
<g  style="fill:none;stroke:#7ec3ee"><path d="M522 1048C563 1048 630 1048 674 1048"/></g>
<polygon  style="fill:#7ec3ee" points="673,1050 683,1048 673,1045 673,1050 "/>
<ellipse  cx="487" cy="524" rx="42" ry="18" style="fill:none;stroke:#87d0ff" />
<text x="455" y="528" style="font-family:Times;font-size:14.00" >Namespace</text>
<g  style="fill:none;stroke:#7ec3ee"><path d="M528 520C569 517 625 519 638 548 695 678 713 940 717 1023"/></g>
<polygon  style="fill:#7ec3ee" points="715,1020 717,1030 720,1020 715,1020 "/>
<polygon  style="fill:#fff68f" points="518,1484 456,1484 456,1520 518,1520 518,1484 "/>
<text x="463" y="1506" style="font-family:Times;font-size:14.00" >baseURI</text>
<g  style="fill:none;stroke:red;stroke-width:3"><path d="M519 1495C564 1494 620 1514 638 1478 692 1372 711 1154 716 1076"/></g>
<polygon  style="fill:red" points="718,1076 717,1066 714,1076 718,1076 "/>
<ellipse  cx="718" cy="1448" rx="29" ry="18" style="fill:none;stroke:#87d0ff" />
<text x="699" y="1452" style="font-family:Times;font-size:14.00" >Literal</text>
<g  style="fill:none;stroke:#00ff00;stroke-width:3"><path d="M519 1498C553 1493 606 1485 638 1478 651 1475 669 1468 685 1462"/></g>
<polygon  style="fill:#00ff00" points="686,1464 694,1458 684,1460 686,1464 "/>
<polygon  style="fill:#fff68f" points="78,610 18,610 18,646 78,646 78,610 "/>
<text x="25" y="632" style="font-family:Times;font-size:14.00" >children</text>
<g  style="fill:none;stroke:red;stroke-width:3"><path d="M65 610C83 591 111 562 132 548 197 506 261 457 336 440 386 430 612 398 638 440 689 521 713 888 718 1022"/></g>
<polygon  style="fill:red" points="716,1020 718,1030 721,1020 716,1020 "/>
<ellipse  cx="216" cy="832" rx="45" ry="18" style="fill:none;stroke:#87d0ff" />
<text x="181" y="836" style="font-family:Times;font-size:14.00" >InfoItemSeq</text>
<g  style="fill:none;stroke:#00ff00;stroke-width:3"><path d="M54 646C67 683 100 769 132 808 139 817 152 822 166 826"/></g>
<polygon  style="fill:#00ff00" points="163,828 173,827 163,823 163,828 "/>
<ellipse  cx="487" cy="940" rx="41" ry="18" style="fill:none;stroke:#87d0ff" />
<text x="456" y="944" style="font-family:Times;font-size:14.00" >References</text>
<g  style="fill:none;stroke:#7ec3ee"><path d="M257 840C273 844 290 849 300 856 320 870 315 907 336 916 336 916 394 926 439 933"/></g>
<polygon  style="fill:#7ec3ee" points="438,935 448,934 438,930 438,935 "/>
<ellipse  cx="487" cy="832" rx="151" ry="18" style="fill:none;stroke:black" />
<text x="346" y="836" style="font-family:Times;font-size:14.00" >http://www.w3.org/1999/02/22-rdf-syntax-ns#Seq</text>
<g  style="fill:none;stroke:#7ec3ee"><path d="M261 832C280 832 303 832 329 832"/></g>
<polygon  style="fill:#7ec3ee" points="326,834 336,832 326,829 326,834 "/>
<polygon  style="fill:#fff68f" points="243,1741 189,1741 189,1777 243,1777 243,1741 "/>
<text x="195" y="1763" style="font-family:Times;font-size:14.00" >content</text>
<g  style="fill:none;stroke:red;stroke-width:3"><path d="M244 1763C331 1776 598 1812 638 1770 679 1727 668 1476 674 1418 687 1303 713 1191 718 1076"/></g>
<polygon  style="fill:red" points="721,1076 718,1066 716,1076 721,1076 "/>
<ellipse  cx="487" cy="1686" rx="144" ry="18" style="fill:none;stroke:black" />
<text x="353" y="1690" style="font-family:Times;font-size:14.00" >http://www.w3.org/2000/01/rdf-schema#Literal</text>
<g  style="fill:none;stroke:#00ff00;stroke-width:3"><path d="M244 1750C262 1745 285 1737 300 1731 313 1725 323 1713 336 1710 336 1710 361 1706 391 1701"/></g>
<polygon  style="fill:#00ff00" points="388,1704 398,1700 388,1699 388,1704 "/>
<g  style="fill:none;stroke:#7ec3ee"><path d="M604 1675C618 1671 630 1665 638 1657 676 1617 701 1522 712 1475"/></g>
<polygon  style="fill:#7ec3ee" points="714,1476 714,1466 709,1475 714,1476 "/>
<polygon  style="fill:#fff68f" points="550,1268 424,1268 424,1304 550,1304 550,1268 "/>
<text x="430" y="1290" style="font-family:Times;font-size:14.00" >declarationBaseURI</text>
<g  style="fill:none;stroke:red;stroke-width:3"><path d="M551 1281C584 1282 617 1284 638 1262 678 1221 703 1123 713 1075"/></g>
<polygon  style="fill:red" points="715,1076 715,1066 710,1075 715,1076 "/>
<g  style="fill:none;stroke:#00ff00;stroke-width:3"><path d="M551 1287C582 1289 618 1296 638 1310 669 1331 695 1390 709 1423"/></g>
<polygon  style="fill:#00ff00" points="706,1422 712,1430 710,1420 706,1422 "/>
<polygon  style="fill:#fff68f" points="253,1349 179,1349 179,1385 253,1385 253,1349 "/>
<text x="186" y="1371" style="font-family:Times;font-size:14.00" >localName</text>
<g  style="fill:none;stroke:red;stroke-width:3"><path d="M253 1351C272 1341 292 1329 300 1315 326 1272 292 1192 336 1169 426 1120 542 1162 638 1132 660 1125 686 1094 702 1072"/></g>
<polygon  style="fill:red" points="703,1075 707,1065 699,1072 703,1075 "/>
<g  style="fill:none;stroke:#00ff00;stroke-width:3"><path d="M243 1385C264 1401 292 1425 300 1446 328 1511 293 1600 336 1657 342 1665 350 1670 359 1673"/></g>
<polygon  style="fill:#00ff00" points="359,1676 369,1676 360,1671 359,1676 "/>
<polygon  style="fill:#fff68f" points="243,1458 189,1458 189,1494 243,1494 243,1458 "/>
<text x="201" y="1480" style="font-family:Times;font-size:14.00" >name</text>
<g  style="fill:none;stroke:red;stroke-width:3"><path d="M242 1458C263 1442 291 1418 300 1397 327 1336 281 1238 336 1202 421 1146 545 1213 638 1176 655 1169 688 1108 706 1073"/></g>
<polygon  style="fill:red" points="707,1076 709,1066 703,1074 707,1076 "/>
<g  style="fill:none;stroke:#00ff00;stroke-width:3"><path d="M227 1494C252 1536 314 1639 336 1657 348 1667 363 1671 379 1672"/></g>
<polygon  style="fill:#00ff00" points="376,1674 386,1673 376,1669 376,1674 "/>
<polygon  style="fill:#fff68f" points="541,1322 433,1322 433,1358 541,1358 541,1322 "/>
<text x="440" y="1344" style="font-family:Times;font-size:14.00" >namespaceName</text>
<g  style="fill:none;stroke:red;stroke-width:3"><path d="M542 1336C579 1338 617 1342 638 1316 683 1259 707 1128 715 1073"/></g>
<polygon  style="fill:red" points="717,1076 716,1066 712,1076 717,1076 "/>
<g  style="fill:none;stroke:#00ff00;stroke-width:3"><path d="M542 1343C574 1347 614 1353 638 1364 660 1374 685 1403 701 1424"/></g>
<polygon  style="fill:#00ff00" points="698,1424 706,1431 702,1421 698,1424 "/>
<polygon  style="fill:#fff68f" points="514,306 460,306 460,342 514,342 514,306 "/>
<text x="470" y="328" style="font-family:Times;font-size:14.00" >parent</text>
<g  style="fill:none;stroke:red;stroke-width:3"><path d="M514 326C555 325 627 323 638 357 638 357 699 899 715 1023"/></g>
<polygon  style="fill:red" points="712,1020 716,1030 717,1020 712,1020 "/>
<g  style="fill:none;stroke:#00ff00;stroke-width:3"><path d="M514 315C555 307 627 305 638 339 638 339 701 896 715 1023"/></g>
<polygon  style="fill:#00ff00" points="712,1020 716,1030 717,1020 712,1020 "/>
<polygon  style="fill:#fff68f" points="514,1376 460,1376 460,1412 514,1412 514,1376 "/>
<text x="470" y="1398" style="font-family:Times;font-size:14.00" >prefix</text>
<g  style="fill:none;stroke:red;stroke-width:3"><path d="M514 1391C561 1391 615 1405 638 1370 687 1297 709 1137 715 1074"/></g>
<polygon  style="fill:red" points="717,1076 716,1066 712,1076 717,1076 "/>
<g  style="fill:none;stroke:#00ff00;stroke-width:3"><path d="M514 1397C548 1402 605 1410 638 1418 651 1420 669 1427 685 1434"/></g>
<polygon  style="fill:#00ff00" points="684,1436 694,1438 686,1432 684,1436 "/>
<polygon  style="fill:#fff68f" points="537,1430 437,1430 437,1466 537,1466 537,1430 "/>
<text x="444" y="1452" style="font-family:Times;font-size:14.00" >publicIdentifier</text>
<g  style="fill:none;stroke:red;stroke-width:3"><path d="M538 1446C579 1443 631 1437 638 1424 691 1335 710 1146 716 1075"/></g>
<polygon  style="fill:red" points="718,1076 717,1066 713,1076 718,1076 "/>
<g  style="fill:none;stroke:#00ff00;stroke-width:3"><path d="M538 1448C581 1448 642 1448 681 1448"/></g>
<polygon  style="fill:#00ff00" points="679,1450 689,1448 679,1445 679,1450 "/>
<polygon  style="fill:#fff68f" points="539,1214 435,1214 435,1250 539,1250 539,1214 "/>
<text x="442" y="1236" style="font-family:Times;font-size:14.00" >systemIdentifier</text>
<g  style="fill:none;stroke:red;stroke-width:3"><path d="M540 1230C574 1227 616 1220 638 1203 671 1177 697 1110 710 1073"/></g>
<polygon  style="fill:red" points="712,1076 712,1066 707,1075 712,1076 "/>
<g  style="fill:none;stroke:#00ff00;stroke-width:3"><path d="M540 1236C579 1239 628 1246 638 1256 675 1291 700 1377 712 1421"/></g>
<polygon  style="fill:#00ff00" points="709,1421 714,1430 714,1420 709,1421 "/>
<polygon  style="fill:#fff68f" points="293,668 139,668 139,704 293,704 293,668 "/>
<text x="146" y="690" style="font-family:Times;font-size:14.00" >allDeclarationsProcessed</text>
<g  style="fill:none;stroke:red;stroke-width:3"><path d="M290 668C294 666 297 664 300 662 320 649 315 612 336 602 370 587 410 594 447 589"/></g>
<polygon  style="fill:red" points="445,592 455,588 445,587 445,592 "/>
<ellipse  cx="487" cy="886" rx="33" ry="18" style="fill:none;stroke:#87d0ff" />
<text x="464" y="890" style="font-family:Times;font-size:14.00" >Boolean</text>
<g  style="fill:none;stroke:#00ff00;stroke-width:3"><path d="M247 704C266 716 290 733 300 748 323 781 304 839 336 862 336 862 400 872 446 880"/></g>
<polygon  style="fill:#00ff00" points="445,882 455,881 445,877 445,882 "/>
<polygon  style="fill:#fff68f" points="297,1084 135,1084 135,1120 297,1120 297,1084 "/>
<text x="142" y="1106" style="font-family:Times;font-size:14.00" >characterEncodingScheme</text>
<g  style="fill:none;stroke:red;stroke-width:3"><path d="M297 1084C299 1082 300 1080 300 1078 338 924 281 752 336 602 349 567 400 586 444 587"/></g>
<polygon  style="fill:red" points="443,589 453,587 443,584 443,589 "/>
<g  style="fill:none;stroke:#00ff00;stroke-width:3"><path d="M295 1120C298 1122 300 1124 300 1126 338 1299 280 1488 336 1657 339 1665 343 1670 349 1674"/></g>
<polygon  style="fill:#00ff00" points="348,1676 358,1678 350,1672 348,1676 "/>
<polygon  style="fill:#fff68f" points="274,198 158,198 158,234 274,234 274,198 "/>
<text x="165" y="220" style="font-family:Times;font-size:14.00" >documentElement</text>
<g  style="fill:none;stroke:red;stroke-width:3"><path d="M274 222C287 225 297 231 300 240 336 340 285 462 336 554 336 554 396 564 441 571"/></g>
<polygon  style="fill:red" points="440,573 450,572 440,568 440,573 "/>
<g  style="fill:none;stroke:#00ff00;stroke-width:3"><path d="M274 201C296 196 319 190 336 186 366 180 414 173 448 168"/></g>
<polygon  style="fill:#00ff00" points="445,171 455,167 445,166 445,171 "/>
<polygon  style="fill:#fff68f" points="269,252 163,252 163,288 269,288 269,252 "/>
<text x="169" y="274" style="font-family:Times;font-size:14.00" >unparsedEntities</text>
<g  style="fill:none;stroke:red;stroke-width:3"><path d="M270 275C284 279 296 285 300 294 335 375 288 481 336 554 336 554 396 564 441 571"/></g>
<polygon  style="fill:red" points="440,573 450,572 440,568 440,573 "/>
<ellipse  cx="487" cy="216" rx="63" ry="18" style="fill:none;stroke:#87d0ff" />
<text x="434" y="220" style="font-family:Times;font-size:14.00" >UnparsedEntitySet</text>
<g  style="fill:none;stroke:#00ff00;stroke-width:3"><path d="M270 256C293 250 318 244 336 240 358 236 392 230 421 226"/></g>
<polygon  style="fill:#00ff00" points="422,228 431,224 421,224 422,228 "/>
<ellipse  cx="718" cy="162" rx="43" ry="18" style="fill:none;stroke:#87d0ff" />
<text x="685" y="166" style="font-family:Times;font-size:14.00" >InfoItemSet</text>
<g  style="fill:none;stroke:#7ec3ee"><path d="M544 208C576 204 614 198 638 192 649 190 664 185 678 179"/></g>
<polygon  style="fill:#7ec3ee" points="680,181 688,175 678,176 680,181 "/>
<polygon  style="fill:#fff68f" points="248,306 184,306 184,342 248,342 248,306 "/>
<text x="190" y="328" style="font-family:Times;font-size:14.00" >notations</text>
<g  style="fill:none;stroke:red;stroke-width:3"><path d="M249 326C269 329 293 335 300 348 333 410 293 500 336 554 336 554 396 564 441 571"/></g>
<polygon  style="fill:red" points="440,573 450,572 440,568 440,573 "/>
<ellipse  cx="487" cy="270" rx="44" ry="18" style="fill:none;stroke:#87d0ff" />
<text x="454" y="274" style="font-family:Times;font-size:14.00" >NotationSet</text>
<g  style="fill:none;stroke:#00ff00;stroke-width:3"><path d="M249 316C275 309 313 299 336 294 363 289 406 282 439 277"/></g>
<polygon  style="fill:#00ff00" points="436,280 446,276 436,275 436,280 "/>
<g  style="fill:none;stroke:#7ec3ee"><path d="M531 268C565 265 611 259 638 246 660 236 684 208 701 186"/></g>
<polygon  style="fill:#7ec3ee" points="702,189 706,179 698,186 702,189 "/>
<polygon  style="fill:#fff68f" points="253,614 179,614 179,650 253,650 253,614 "/>
<text x="186" y="636" style="font-family:Times;font-size:14.00" >standalone</text>
<g  style="fill:none;stroke:red;stroke-width:3"><path d="M253 622C280 616 314 607 336 602 364 597 409 590 442 585"/></g>
<polygon  style="fill:red" points="439,588 449,584 439,583 439,588 "/>
<ellipse  cx="487" cy="778" rx="41" ry="18" style="fill:none;stroke:#87d0ff" />
<text x="456" y="782" style="font-family:Times;font-size:14.00" >Standalone</text>
<g  style="fill:none;stroke:#00ff00;stroke-width:3"><path d="M253 637C271 641 290 646 300 656 325 681 307 735 336 754 359 769 401 775 434 777"/></g>
<polygon  style="fill:#00ff00" points="435,780 445,778 435,775 435,780 "/>
<polygon  style="fill:#fff68f" points="243,560 189,560 189,596 243,596 243,560 "/>
<text x="195" y="582" style="font-family:Times;font-size:14.00" >version</text>
<g  style="fill:none;stroke:red;stroke-width:3"><path d="M244 578C290 578 383 578 439 578"/></g>
<polygon  style="fill:red" points="437,580 447,578 437,575 437,580 "/>
<g  style="fill:none;stroke:#00ff00;stroke-width:3"><path d="M244 583C263 587 287 593 300 602 320 616 314 656 336 662 385 676 607 655 638 694 679 744 668 1014 674 1078 685 1176 707 1353 715 1421"/></g>
<polygon  style="fill:#00ff00" points="712,1420 716,1430 717,1420 712,1420 "/>
<polygon  style="fill:#fff68f" points="249,90 183,90 183,126 249,126 249,90 "/>
<text x="190" y="112" style="font-family:Times;font-size:14.00" >attributes</text>
<g  style="fill:none;stroke:red;stroke-width:3"><path d="M249 117C276 124 313 133 336 138 336 138 400 148 446 156"/></g>
<polygon  style="fill:red" points="445,158 455,157 445,153 445,158 "/>
<ellipse  cx="487" cy="54" rx="44" ry="18" style="fill:none;stroke:#87d0ff" />
<text x="453" y="58" style="font-family:Times;font-size:14.00" >AttributeSet</text>
<g  style="fill:none;stroke:#00ff00;stroke-width:3"><path d="M249 99C276 93 313 83 336 78 363 73 405 66 438 61"/></g>
<polygon  style="fill:#00ff00" points="435,64 445,60 435,59 435,64 "/>
<g  style="fill:none;stroke:#7ec3ee"><path d="M531 57C565 60 611 66 638 78 660 88 684 116 701 137"/></g>
<polygon  style="fill:#7ec3ee" points="698,137 706,144 702,134 698,137 "/>
<polygon  style="fill:#fff68f" points="281,36 151,36 151,72 281,72 281,36 "/>
<text x="157" y="58" style="font-family:Times;font-size:14.00" >namespaceAttributes</text>
<g  style="fill:none;stroke:red;stroke-width:3"><path d="M282 69C289 72 295 75 300 78 320 92 315 129 336 138 336 138 400 148 446 156"/></g>
<polygon  style="fill:red" points="445,158 455,157 445,153 445,158 "/>
<g  style="fill:none;stroke:#00ff00;stroke-width:3"><path d="M282 54C329 54 390 54 433 54"/></g>
<polygon  style="fill:#00ff00" points="432,56 442,54 432,51 432,56 "/>
<polygon  style="fill:#fff68f" points="280,144 152,144 152,180 280,180 280,144 "/>
<text x="159" y="166" style="font-family:Times;font-size:14.00" >inScopeNamespaces</text>
<g  style="fill:none;stroke:red;stroke-width:3"><path d="M281 162C331 162 401 162 444 162"/></g>
<polygon  style="fill:red" points="443,164 453,162 443,159 443,164 "/>
<ellipse  cx="487" cy="108" rx="51" ry="18" style="fill:none;stroke:#87d0ff" />
<text x="446" y="112" style="font-family:Times;font-size:14.00" >NamespaceSet</text>
<g  style="fill:none;stroke:#00ff00;stroke-width:3"><path d="M281 146C309 139 336 132 336 132 362 127 401 121 433 116"/></g>
<polygon  style="fill:#00ff00" points="430,119 440,115 430,114 430,119 "/>
<g  style="fill:none;stroke:#7ec3ee"><path d="M535 115C568 119 611 126 638 132 649 134 664 140 677 145"/></g>
<polygon  style="fill:#7ec3ee" points="677,148 687,149 679,143 677,148 "/>
<polygon  style="fill:#fff68f" points="263,360 169,360 169,396 263,396 263,360 "/>
<text x="175" y="382" style="font-family:Times;font-size:14.00" >ownerElement</text>
<g  style="fill:none;stroke:#00ff00;stroke-width:3"><path d="M264 373C279 370 294 364 300 354 331 306 297 228 336 186 363 159 408 172 449 171"/></g>
<polygon  style="fill:#00ff00" points="447,174 457,170 447,169 447,174 "/>
<g  style="fill:none;stroke:red;stroke-width:3"><path d="M228 396C248 430 291 502 300 548 329 687 282 840 336 970 351 1005 404 985 447 985"/></g>
<polygon  style="fill:red" points="446,987 456,985 446,982 446,987 "/>
<polygon  style="fill:#fff68f" points="260,1199 172,1199 172,1235 260,1235 260,1199 "/>
<text x="178" y="1221" style="font-family:Times;font-size:14.00" >attributeType</text>
<g  style="fill:none;stroke:red;stroke-width:3"><path d="M261 1209C277 1204 294 1197 300 1186 330 1136 297 1059 336 1018 347 1006 403 1000 443 997"/></g>
<polygon  style="fill:red" points="441,1000 451,996 441,995 441,1000 "/>
<ellipse  cx="487" cy="1594" rx="50" ry="18" style="fill:none;stroke:#87d0ff" />
<text x="447" y="1598" style="font-family:Times;font-size:14.00" >AttributeType</text>
<g  style="fill:none;stroke:#00ff00;stroke-width:3"><path d="M261 1227C278 1233 296 1242 300 1255 334 1353 286 1473 336 1565 350 1589 393 1595 429 1596"/></g>
<polygon  style="fill:#00ff00" points="427,1598 437,1596 427,1593 427,1598 "/>
<polygon  style="fill:#fff68f" points="271,1267 161,1267 161,1303 271,1303 271,1267 "/>
<text x="168" y="1289" style="font-family:Times;font-size:14.00" >normalizedValue</text>
<g  style="fill:none;stroke:red;stroke-width:3"><path d="M271 1270C284 1264 296 1257 300 1247 332 1176 291 1080 336 1018 336 1018 400 1008 444 1000"/></g>
<polygon  style="fill:red" points="443,1003 453,999 443,998 443,1003 "/>
<g  style="fill:none;stroke:#00ff00;stroke-width:3"><path d="M263 1303C280 1312 296 1323 300 1337 333 1439 286 1562 336 1657 340 1665 346 1670 353 1674"/></g>
<polygon  style="fill:#00ff00" points="352,1676 362,1677 353,1671 352,1676 "/>
<polygon  style="fill:#fff68f" points="251,922 181,922 181,958 251,958 251,922 "/>
<text x="187" y="944" style="font-family:Times;font-size:14.00" >references</text>
<g  style="fill:none;stroke:red;stroke-width:3"><path d="M252 949C278 956 313 965 336 970 365 976 412 983 446 988"/></g>
<polygon  style="fill:red" points="443,990 453,989 443,985 443,990 "/>
<g  style="fill:none;stroke:#00ff00;stroke-width:3"><path d="M252 940C300 940 384 940 438 940"/></g>
<polygon  style="fill:#00ff00" points="435,942 445,940 435,937 435,942 "/>
<polygon  style="fill:#fff68f" points="248,868 184,868 184,904 248,904 248,868 "/>
<text x="191" y="890" style="font-family:Times;font-size:14.00" >specified</text>
<g  style="fill:none;stroke:red;stroke-width:3"><path d="M248 892C267 896 288 902 300 910 320 924 315 960 336 970 371 985 412 978 449 983"/></g>
<polygon  style="fill:red" points="447,985 457,984 447,980 447,985 "/>
<g  style="fill:none;stroke:#00ff00;stroke-width:3"><path d="M248 886C298 886 392 886 446 886"/></g>
<polygon  style="fill:#00ff00" points="443,888 453,886 443,883 443,888 "/>
<polygon  style="fill:#fff68f" points="243,1683 189,1683 189,1719 243,1719 243,1683 "/>
<text x="200" y="1705" style="font-family:Times;font-size:14.00" >target</text>
<g  style="fill:none;stroke:red;stroke-width:3"><path d="M243 1705C283 1711 361 1722 417 1730"/></g>
<polygon  style="fill:red" points="415,1732 425,1731 415,1727 415,1732 "/>
<g  style="fill:none;stroke:#00ff00;stroke-width:3"><path d="M243 1699C268 1698 307 1696 347 1694"/></g>
<polygon  style="fill:#00ff00" points="345,1697 355,1693 345,1692 345,1697 "/>
<polygon  style="fill:#fff68f" points="95,1041 1,1041 1,1077 95,1077 95,1041 "/>
<text x="8" y="1063" style="font-family:Times;font-size:14.00" >characterCode</text>
<g  style="fill:none;stroke:red;stroke-width:3"><path d="M51 1041C61 978 97 776 132 748 169 722 355 721 441 723"/></g>
<polygon  style="fill:red" points="439,725 449,723 439,720 439,725 "/>
<ellipse  cx="216" cy="1640" rx="30" ry="18" style="fill:none;stroke:#87d0ff" />
<text x="196" y="1644" style="font-family:Times;font-size:14.00" >Integer</text>
<g  style="fill:none;stroke:#00ff00;stroke-width:3"><path d="M51 1077C60 1145 96 1382 132 1506 142 1540 177 1590 199 1618"/></g>
<polygon  style="fill:#00ff00" points="195,1617 203,1624 200,1614 195,1617 "/>
<g  style="fill:none;stroke:#7ec3ee"><path d="M245 1645C280 1651 342 1661 394 1671"/></g>
<polygon  style="fill:#7ec3ee" points="391,1673 401,1672 391,1668 391,1673 "/>
<polygon  style="fill:#fff68f" points="300,760 132,760 132,796 300,796 300,760 "/>
<text x="139" y="782" style="font-family:Times;font-size:14.00" >elementContentWhitespace</text>
<g  style="fill:none;stroke:red;stroke-width:3"><path d="M286 760C304 755 322 751 336 748 365 742 410 736 444 730"/></g>
<polygon  style="fill:red" points="441,733 451,729 441,728 441,733 "/>
<g  style="fill:none;stroke:#00ff00;stroke-width:3"><path d="M289 796C293 798 297 800 300 802 320 816 315 853 336 862 336 862 400 872 446 880"/></g>
<polygon  style="fill:#00ff00" points="445,882 455,881 445,877 445,882 "/>
<polygon  style="fill:#fff68f" points="246,1138 186,1138 186,1174 246,1174 246,1138 "/>
<text x="193" y="1160" style="font-family:Times;font-size:14.00" >notation</text>
<g  style="fill:none;stroke:red;stroke-width:3"><path d="M246 1150C291 1141 377 1124 433 1113"/></g>
<polygon  style="fill:red" points="432,1116 441,1111 431,1111 432,1116 "/>
<g  style="fill:none;stroke:#00ff00;stroke-width:3"><path d="M246 1146C265 1143 285 1142 300 1132 320 1118 315 1081 336 1072 362 1060 407 1054 441 1051"/></g>
<polygon  style="fill:#00ff00" points="442,1053 452,1050 442,1048 442,1053 "/>
<polygon  style="fill:#fff68f" points="262,1802 170,1802 170,1838 262,1838 262,1802 "/>
<text x="176" y="1824" style="font-family:Times;font-size:14.00" >notationName</text>
<g  style="fill:none;stroke:red;stroke-width:3"><path d="M263 1814C281 1809 298 1802 300 1789 338 1596 285 1391 336 1202 346 1166 401 1136 442 1119"/></g>
<polygon  style="fill:red" points="442,1122 450,1115 440,1117 442,1122 "/>
<g  style="fill:none;stroke:#00ff00;stroke-width:3"><path d="M263 1823C363 1827 594 1835 638 1803 679 1772 707 1548 715 1472"/></g>
<polygon  style="fill:#00ff00" points="717,1476 716,1466 712,1475 717,1476 "/>
<ellipse  cx="216" cy="1048" rx="38" ry="18" style="fill:none;stroke:#87d0ff" />
<text x="188" y="1052" style="font-family:Times;font-size:14.00" >Unknown</text>
<g  style="fill:none;stroke:#7ec3ee"><path d="M254 1048C303 1048 389 1048 441 1048"/></g>
<polygon  style="fill:#7ec3ee" points="442,1050 452,1048 442,1045 442,1050 "/>
<g  style="fill:none;stroke:#7ec3ee"><path d="M249 1057C272 1064 300 1072 300 1072 319 1162 288 1545 336 1624 363 1666 593 1645 638 1624 660 1614 693 1522 709 1475"/></g>
<polygon  style="fill:#7ec3ee" points="711,1476 712,1466 706,1475 711,1476 "/>
<g  style="fill:none;stroke:#7ec3ee"><path d="M250 1040C269 1038 288 1037 300 1024 327 993 304 934 336 910 367 888 409 897 448 894"/></g>
<polygon  style="fill:#7ec3ee" points="446,897 456,893 446,892 446,897 "/>
<g  style="fill:none;stroke:#7ec3ee"><path d="M253 1054C274 1058 298 1064 300 1072 338 1232 281 1409 336 1565 348 1597 389 1593 429 1590"/></g>
<polygon  style="fill:#7ec3ee" points="428,1592 438,1590 428,1587 428,1592 "/>
<g  style="fill:none;stroke:#7ec3ee"><path d="M252 1042C269 1038 289 1032 300 1024 320 1010 315 973 336 964 336 964 394 954 439 947"/></g>
<polygon  style="fill:#7ec3ee" points="438,950 448,946 438,945 438,950 "/>
<ellipse  cx="216" cy="994" rx="35" ry="18" style="fill:none;stroke:#87d0ff" />
<text x="191" y="998" style="font-family:Times;font-size:14.00" >NoValue</text>
<g  style="fill:none;stroke:#7ec3ee"><path d="M248 1002C275 1009 312 1019 336 1024 366 1030 412 1037 446 1042"/></g>
<polygon  style="fill:#7ec3ee" points="443,1044 453,1043 443,1039 443,1044 "/>
<g  style="fill:none;stroke:#7ec3ee"><path d="M247 1003C271 1010 300 1018 300 1018 319 1101 289 1460 336 1532 364 1574 589 1542 638 1532 661 1527 687 1495 703 1472"/></g>
<polygon  style="fill:#7ec3ee" points="704,1475 708,1465 700,1472 704,1475 "/>
<g  style="fill:none;stroke:#7ec3ee"><path d="M246 984C265 981 285 980 300 970 320 956 315 920 336 910 364 898 412 892 447 889"/></g>
<polygon  style="fill:#7ec3ee" points="444,892 454,888 444,887 444,892 "/>
<g  style="fill:none;stroke:#7ec3ee"><path d="M247 985C268 983 290 986 300 970 331 922 297 844 336 802 361 777 401 783 439 783"/></g>
<polygon  style="fill:#7ec3ee" points="437,785 447,783 437,780 437,785 "/>
<g  style="fill:none;stroke:#7ec3ee"><path d="M247 1003C271 1010 300 1018 300 1018 338 1196 280 1391 336 1565 346 1597 390 1590 431 1588"/></g>
<polygon  style="fill:#7ec3ee" points="430,1590 440,1588 430,1585 430,1590 "/>
<g  style="fill:none;stroke:#7ec3ee"><path d="M248 986C274 978 312 969 336 964 364 958 408 952 441 947"/></g>
<polygon  style="fill:#7ec3ee" points="438,950 448,946 438,945 438,950 "/>
<ellipse  cx="950" cy="162" rx="152" ry="18" style="fill:none;stroke:black" />
<text x="809" y="166" style="font-family:Times;font-size:14.00" >http://www.w3.org/1999/02/22-rdf-syntax-ns#Bag</text>
<g  style="fill:none;stroke:#7ec3ee"><path d="M762 162C770 162 778 162 787 162"/></g>
<polygon  style="fill:#7ec3ee" points="788,164 798,162 788,159 788,164 "/>
</svg>
