<!-- Generated by dot version 1.7.5 (Mon Jun 25 21:31:03 MDT 2001)
     For: (connolly) Dan Connolly,,+1-913-491-0501,
     Title: id2595511
     Pages: 1
-->
<svg width="1193pt" height="707pt" >
<text x="-114" y="394" style="font-family:Times;font-size:14.00" >XML Infoset $Date$</text>
<polygon  style="fill:none;stroke:black" points="24,357 659,357 659,52 24,52 24,357 "/>
<text x="31" y="48" style="font-family:Times;font-size:14.00" >Items and Properties</text>
<polygon  style="fill:#87d0ff" points="977,337 895,337 895,373 977,373 977,337 "/>
<polygon  style="fill:none;stroke:#87d0ff" points="977,337 895,337 895,373 977,373 977,337 "/>
<text x="901" y="359" style="font-family:Times;font-size:14.00" >Abs. URIref</text>
<polygon  style="fill:#87d0ff" points="657,523 591,523 591,559 657,559 657,523 "/>
<polygon  style="fill:none;stroke:#87d0ff" points="657,523 591,523 591,559 657,559 657,523 "/>
<text x="598" y="545" style="font-family:Times;font-size:14.00" >NCName</text>
<polygon  style="fill:#87d0ff" points="1185,631 1131,631 1131,667 1185,667 1185,631 "/>
<polygon  style="fill:none;stroke:#87d0ff" points="1185,631 1131,631 1131,667 1185,667 1185,631 "/>
<text x="1141" y="653" style="font-family:Times;font-size:14.00" >Name</text>
<ellipse  cx="936" cy="411" rx="37" ry="18" style="fill:#87d0ff" />
<ellipse  cx="936" cy="411" rx="37" ry="18" style="fill:none;stroke:#87d0ff" />
<text x="909" y="415" style="font-family:Times;font-size:14.00" >No Value</text>
<polygon  style="fill:#87d0ff" points="1185,538 1131,538 1131,574 1185,574 1185,538 "/>
<polygon  style="fill:none;stroke:#87d0ff" points="1185,538 1131,538 1131,574 1185,574 1185,538 "/>
<text x="1141" y="560" style="font-family:Times;font-size:14.00" >String</text>
<ellipse  cx="357" cy="617" rx="32" ry="18" style="fill:#87d0ff" />
<ellipse  cx="357" cy="617" rx="32" ry="18" style="fill:none;stroke:#87d0ff" />
<text x="335" y="621" style="font-family:Times;font-size:14.00" >Content</text>
<ellipse  cx="624" cy="617" rx="27" ry="18" style="fill:none;stroke:black" />
<text x="611" y="621" style="font-family:Times;font-size:14.00" >Item</text>
<g  style="fill:none;stroke:green"><path d="M390 617C439 617 533 617 586 617"/></g>
<polygon  style="fill:green" points="587,619 597,617 587,614 587,619 "/>
<polygon  style="fill:#87d0ff" points="81,570 34,588 81,606 128,588 81,570 "/>
<polygon  style="fill:none;stroke:#87d0ff" points="81,570 34,588 81,606 128,588 81,570 "/>
<text x="58" y="592" style="font-family:Times;font-size:14.00" >Element</text>
<g  style="fill:none;stroke:purple;stroke-width:3"><path d="M112 601C129 608 147 615 147 615 197 628 247 640 297 647 383 656 536 632 598 622"/></g>
<polygon  style="fill:purple" points="114,599 104,597 112,604 114,599 "/>
<polygon  style="fill:#87d0ff" points="936,631 833,649 936,667 1039,649 936,631 "/>
<polygon  style="fill:none;stroke:#87d0ff" points="936,631 833,649 936,667 1039,649 936,631 "/>
<text x="874" y="653" style="font-family:Times;font-size:14.00" >Processing Instruction</text>
<g  style="fill:none;stroke:purple;stroke-width:3"><path d="M651 620C698 625 794 635 862 641"/></g>
<polygon  style="fill:purple" points="861,643 871,642 861,638 861,643 "/>
<polygon  style="fill:#87d0ff" points="936,577 883,595 936,613 989,595 936,577 "/>
<polygon  style="fill:none;stroke:#87d0ff" points="936,577 883,595 936,613 989,595 936,577 "/>
<text x="909" y="599" style="font-family:Times;font-size:14.00" >Character</text>
<g  style="fill:none;stroke:purple;stroke-width:3"><path d="M651 615C703 611 816 604 883 599"/></g>
<polygon  style="fill:purple" points="882,602 892,598 882,597 882,602 "/>
<polygon  style="fill:#87d0ff" points="936,523 883,541 936,559 989,541 936,523 "/>
<polygon  style="fill:none;stroke:#87d0ff" points="936,523 883,541 936,559 989,541 936,523 "/>
<text x="908" y="545" style="font-family:Times;font-size:14.00" >Comment</text>
<g  style="fill:none;stroke:purple;stroke-width:3"><path d="M647 608C665 601 688 593 703 590 756 578 844 560 895 549"/></g>
<polygon  style="fill:purple" points="892,552 902,548 892,547 892,552 "/>
<g  style="fill:none;stroke:blue"><path d="M107 580C120 576 136 571 147 571 270 560 490 548 582 543"/></g>
<polygon  style="fill:blue" points="580,545 590,543 580,540 580,545 "/>
<text x="327" y="548" style="font-family:Times;font-size:14.00" >local name</text>
<g  style="fill:none;stroke:blue"><path d="M118 592C171 598 264 607 318 613"/></g>
<polygon  style="fill:blue" points="315,615 325,614 315,610 315,615 "/>
<text x="190" y="590" style="font-family:Times;font-size:14.00" >children</text>
<polygon  style="fill:#87d0ff" points="357,474 307,492 357,510 407,492 357,474 "/>
<polygon  style="fill:none;stroke:#87d0ff" points="357,474 307,492 357,510 407,492 357,474 "/>
<text x="332" y="496" style="font-family:Times;font-size:14.00" >Attribute</text>
<g  style="fill:none;stroke:#ffa200;stroke-width:3"><path d="M97 576C111 565 132 551 147 546 193 530 269 512 316 501"/></g>
<polygon  style="fill:#ffa200" points="317,503 326,499 316,499 317,503 "/>
<text x="187" y="505" style="font-family:Times;font-size:14.00" >attributes</text>
<ellipse  cx="624" cy="393" rx="61" ry="18" style="fill:none;stroke:black" />
<text x="573" y="397" style="font-family:Times;font-size:14.00" >Namespace Name</text>
<g  style="fill:none;stroke:blue"><path d="M87 572C98 547 122 500 147 486 236 437 337 414 435 395 467 388 516 388 556 389"/></g>
<polygon  style="fill:blue" points="554,391 564,389 554,386 554,391 "/>
<text x="310" y="395" style="font-family:Times;font-size:14.00" >namespace name</text>
<polygon  style="fill:#87d0ff" points="357,691 297,709 357,727 417,709 357,691 "/>
<polygon  style="fill:none;stroke:#87d0ff" points="357,691 297,709 357,727 417,709 357,691 "/>
<text x="325" y="713" style="font-family:Times;font-size:14.00" >Namespace</text>
<g  style="fill:none;stroke:#ffa200;stroke-width:3"><path d="M87 604C97 631 119 684 147 696 185 713 250 714 298 712"/></g>
<polygon  style="fill:#ffa200" points="298,714 308,712 298,709 298,714 "/>
<text x="154" y="692" style="font-family:Times;font-size:14.00" >in-scope namespaces</text>
<g  style="fill:none;stroke:blue"><path d="M1039 649C1069 649 1100 649 1123 649"/></g>
<polygon  style="fill:blue" points="1121,651 1131,649 1121,646 1121,651 "/>
<text x="1069" y="645" style="font-family:Times;font-size:14.00" >target</text>
<g  style="fill:none;stroke:blue"><path d="M986 640C1005 636 1025 630 1039 625 1063 615 1097 595 1123 579"/></g>
<polygon  style="fill:blue" points="1124,581 1131,574 1121,577 1124,581 "/>
<text x="1064" y="580" style="font-family:Times;font-size:14.00" >content</text>
<g  style="fill:none;stroke:blue"><path d="M391 498C440 507 530 523 583 534"/></g>
<polygon  style="fill:blue" points="580,536 590,535 580,531 580,536 "/>
<text x="460" y="502" style="font-family:Times;font-size:14.00" >local name</text>
<g  style="fill:none;stroke:blue"><path d="M394 487C408 485 424 483 435 483 472 481 509 481 545 483 710 490 876 491 1039 511 1063 514 1097 528 1123 539"/></g>
<polygon  style="fill:blue" points="1121,541 1131,543 1123,536 1121,541 "/>
<text x="711" y="485" style="font-family:Times;font-size:14.00" >normalized value</text>
<g  style="fill:none;stroke:blue"><path d="M378 481C396 473 420 461 435 456 472 442 531 423 573 409"/></g>
<polygon  style="fill:blue" points="573,412 582,406 572,407 573,412 "/>
<text x="443" y="414" style="font-family:Times;font-size:14.00" >namespace name</text>
<g  style="fill:none;stroke:purple"><path d="M681 387C689 385 697 384 703 383 753 376 835 371 887 365"/></g>
<polygon  style="fill:purple" points="884,368 894,364 884,363 884,368 "/>
<g  style="fill:none;stroke:purple;stroke-width:3"><path d="M653 377C670 371 690 367 703 365 752 358 831 353 883 351"/></g>
<polygon  style="fill:purple" points="884,353 894,351 884,348 884,353 "/>
<g  style="fill:none;stroke:purple"><path d="M678 401C738 407 835 412 891 414"/></g>
<polygon  style="fill:purple" points="888,416 898,414 888,411 888,416 "/>
<g  style="fill:none;stroke:purple;stroke-width:3"><path d="M685 391C746 392 839 398 894 404"/></g>
<polygon  style="fill:purple" points="891,406 901,405 891,401 891,406 "/>
<ellipse  cx="357" cy="331" rx="27" ry="18" style="fill:#87d0ff" />
<ellipse  cx="357" cy="331" rx="27" ry="18" style="fill:none;stroke:#87d0ff" />
<text x="343" y="335" style="font-family:Times;font-size:14.00" >ABC</text>
<ellipse  cx="81" cy="130" rx="27" ry="18" style="fill:#87d0ff" />
<ellipse  cx="81" cy="130" rx="27" ry="18" style="fill:none;stroke:#87d0ff" />
<text x="68" y="134" style="font-family:Times;font-size:14.00" >DEF</text>
<ellipse  cx="357" cy="235" rx="32" ry="18" style="fill:#87d0ff" />
<ellipse  cx="357" cy="235" rx="32" ry="18" style="fill:none;stroke:#87d0ff" />
<text x="335" y="239" style="font-family:Times;font-size:14.00" >A Class</text>
<ellipse  cx="624" cy="186" rx="27" ry="18" style="fill:#87d0ff" />
<ellipse  cx="624" cy="186" rx="27" ry="18" style="fill:none;stroke:#87d0ff" />
<text x="619" y="190" style="font-family:Times;font-size:14.00" >X</text>
<ellipse  cx="624" cy="132" rx="27" ry="18" style="fill:#87d0ff" />
<ellipse  cx="624" cy="132" rx="27" ry="18" style="fill:none;stroke:#87d0ff" />
<text x="619" y="136" style="font-family:Times;font-size:14.00" >Y</text>
<ellipse  cx="624" cy="78" rx="27" ry="18" style="fill:#87d0ff" />
<ellipse  cx="624" cy="78" rx="27" ry="18" style="fill:none;stroke:#87d0ff" />
<text x="620" y="82" style="font-family:Times;font-size:14.00" >Z</text>
<ellipse  cx="357" cy="132" rx="27" ry="18" style="fill:#87d0ff" />
<ellipse  cx="357" cy="132" rx="27" ry="18" style="fill:none;stroke:#87d0ff" />
<text x="340" y="136" style="font-family:Times;font-size:14.00" >X|Y|Z</text>
<g  style="fill:none;stroke:purple;stroke-width:3"><path d="M380 142C420 153 500 167 545 176 556 178 572 182 587 185"/></g>
<polygon  style="fill:purple" points="587,187 597,187 588,183 587,187 "/>
<g  style="fill:none;stroke:purple"><path d="M385 131C425 136 501 150 545 158 558 161 578 166 595 171"/></g>
<polygon  style="fill:purple" points="594,173 604,174 595,168 594,173 "/>
<g  style="fill:none;stroke:purple;stroke-width:3"><path d="M384 136C434 140 537 140 591 137"/></g>
<polygon  style="fill:purple" points="588,140 598,136 588,135 588,140 "/>
<g  style="fill:none;stroke:purple"><path d="M384 128C433 124 532 124 587 127"/></g>
<polygon  style="fill:purple" points="588,130 598,128 588,125 588,130 "/>
<g  style="fill:none;stroke:purple"><path d="M385 131C435 123 541 102 593 89"/></g>
<polygon  style="fill:purple" points="591,92 600,87 590,87 591,92 "/>
<g  style="fill:none;stroke:purple;stroke-width:3"><path d="M381 123C429 110 535 89 590 80"/></g>
<polygon  style="fill:purple" points="587,83 597,79 587,78 587,83 "/>
<polygon  style="fill:#87d0ff" points="81,217 49,235 81,253 113,235 81,217 "/>
<polygon  style="fill:none;stroke:#87d0ff" points="81,217 49,235 81,253 113,235 81,217 "/>
<text x="68" y="239" style="font-family:Times;font-size:14.00" >Item</text>
<g  style="fill:none;stroke:#ffa200;stroke-width:3"><path d="M108 238C117 240 125 244 129 250 146 275 122 322 147 338 169 350 269 341 323 335"/></g>
<polygon  style="fill:#ffa200" points="320,338 330,334 320,333 320,338 "/>
<text x="172" y="334" style="font-family:Times;font-size:14.00" >many-to-many</text>
<g  style="fill:none;stroke:blue"><path d="M114 235C165 235 262 235 317 235"/></g>
<polygon  style="fill:blue" points="314,237 324,235 314,232 314,237 "/>
<text x="177" y="231" style="font-family:Times;font-size:14.00" >many-to-one</text>
<g  style="fill:none;stroke:blue"><path d="M89 221C104 197 134 148 147 143 171 134 269 132 322 132"/></g>
<polygon  style="fill:blue" points="319,134 329,132 319,129 319,134 "/>
<text x="184" y="129" style="font-family:Times;font-size:14.00" >many-to-1</text>
</svg>
