<!-- Generated by dot version 1.7.5 (Mon Jun 25 21:31:03 MDT 2001)
     For: (connolly) Dan Connolly,,+1-913-491-0501,
     Title: id2592400
     Pages: 1
-->
<svg width="1474pt" height="425pt" >
<text x="-114" y="253" style="font-family:Times;font-size:14.00" >XML Infoset $Date$</text>
<ellipse  cx="66" cy="334" rx="42" ry="18" style="fill:#87d0ff" />
<ellipse  cx="66" cy="334" rx="42" ry="18" style="fill:none;stroke:#87d0ff" />
<text x="34" y="338" style="font-family:Times;font-size:14.00" >Annotation</text>
<ellipse  cx="1110" cy="88" rx="70" ry="18" style="fill:#87d0ff" />
<ellipse  cx="1110" cy="88" rx="70" ry="18" style="fill:none;stroke:#87d0ff" />
<text x="1050" y="92" style="font-family:Times;font-size:14.00" >Attribute Declaration</text>
<ellipse  cx="1389" cy="88" rx="77" ry="18" style="fill:#87d0ff" />
<ellipse  cx="1389" cy="88" rx="77" ry="18" style="fill:none;stroke:#87d0ff" />
<text x="1322" y="92" style="font-family:Times;font-size:14.00" >Simple Type Definition</text>
<g  style="fill:none;stroke:black"><path d="M1180 88C1217 88 1263 88 1303 88"/></g>
<polygon  style="fill:black" points="1302,90 1312,88 1302,85 1302,90 "/>
<text x="1205" y="84" style="font-family:Times;font-size:14.00" >type definition</text>
<g  style="fill:none;stroke:black"><path d="M1439 74C1458 63 1442 52 1389 52 1342 52 1324 61 1334 71"/></g>
<polygon  style="fill:black" points="1329,71 1339,74 1332,67 1329,71 "/>
<text x="1334" y="48" style="font-family:Times;font-size:14.00" >base type definition</text>
<ellipse  cx="390" cy="170" rx="85" ry="18" style="fill:#87d0ff" />
<ellipse  cx="390" cy="170" rx="85" ry="18" style="fill:none;stroke:#87d0ff" />
<text x="315" y="174" style="font-family:Times;font-size:14.00" >Attribute Group Definition</text>
<ellipse  cx="785" cy="118" rx="48" ry="18" style="fill:#87d0ff" />
<ellipse  cx="785" cy="118" rx="48" ry="18" style="fill:none;stroke:#87d0ff" />
<text x="747" y="122" style="font-family:Times;font-size:14.00" >Attribute Use</text>
<g  style="fill:none;stroke:black"><path d="M446 156C463 153 481 149 494 147 558 139 665 129 729 123"/></g>
<polygon  style="fill:black" points="728,126 738,122 728,121 728,126 "/>
<text x="547" y="124" style="font-family:Times;font-size:14.00" >attribute uses</text>
<ellipse  cx="785" cy="222" rx="36" ry="18" style="fill:#87d0ff" />
<ellipse  cx="785" cy="222" rx="36" ry="18" style="fill:none;stroke:#87d0ff" />
<text x="759" y="226" style="font-family:Times;font-size:14.00" >Wildcard</text>
<g  style="fill:none;stroke:black"><path d="M468 177C532 183 619 192 674 199 692 202 720 207 743 212"/></g>
<polygon  style="fill:black" points="742,214 752,214 743,209 742,214 "/>
<text x="535" y="176" style="font-family:Times;font-size:14.00" >attribute wildcard</text>
<g  style="fill:none;stroke:black"><path d="M832 114C886 108 973 101 1035 95"/></g>
<polygon  style="fill:black" points="1034,98 1044,94 1034,93 1034,98 "/>
<text x="903" y="93" style="font-family:Times;font-size:14.00" >attribute declaration</text>
<ellipse  cx="390" cy="231" rx="82" ry="18" style="fill:#87d0ff" />
<ellipse  cx="390" cy="231" rx="82" ry="18" style="fill:none;stroke:#87d0ff" />
<text x="318" y="235" style="font-family:Times;font-size:14.00" >Complex Type Definition</text>
<g  style="fill:none;stroke:black"><path d="M473 232C536 231 621 229 674 222 686 221 684 200 692 192 708 177 735 155 756 140"/></g>
<polygon  style="fill:black" points="757,142 763,134 754,139 757,142 "/>
<text x="547" y="218" style="font-family:Times;font-size:14.00" >attribute uses</text>
<g  style="fill:none;stroke:black"><path d="M441 245C454 249 467 252 476 255 483 257 488 263 494 263 554 266 615 272 674 263 695 260 726 248 750 238"/></g>
<polygon  style="fill:black" points="751,240 759,234 749,236 751,240 "/>
<text x="535" y="259" style="font-family:Times;font-size:14.00" >attribute wildcard</text>
<ellipse  cx="390" cy="319" rx="68" ry="18" style="fill:#87d0ff" />
<ellipse  cx="390" cy="319" rx="68" ry="18" style="fill:none;stroke:#87d0ff" />
<text x="332" y="323" style="font-family:Times;font-size:14.00" >Element Declaration</text>
<g  style="fill:none;stroke:black"><path d="M434 305C451 294 436 283 390 283 349 283 333 292 341 301"/></g>
<polygon  style="fill:black" points="337,301 346,305 340,297 337,301 "/>
<text x="310" y="279" style="font-family:Times;font-size:14.00" >substitution group affiliation</text>
<ellipse  cx="785" cy="326" rx="92" ry="18" style="fill:#87d0ff" />
<ellipse  cx="785" cy="326" rx="92" ry="18" style="fill:none;stroke:#87d0ff" />
<text x="703" y="330" style="font-family:Times;font-size:14.00" >Identity-constraint Definition</text>
<g  style="fill:none;stroke:black"><path d="M458 320C520 321 612 323 683 324"/></g>
<polygon  style="fill:black" points="683,326 693,324 683,321 683,326 "/>
<text x="501" y="317" style="font-family:Times;font-size:14.00" >identity-constraint definitions</text>
<ellipse  cx="785" cy="380" rx="48" ry="18" style="fill:#87d0ff" />
<ellipse  cx="785" cy="380" rx="48" ry="18" style="fill:none;stroke:#87d0ff" />
<text x="747" y="384" style="font-family:Times;font-size:14.00" >Model Group</text>
<ellipse  cx="1110" cy="380" rx="31" ry="18" style="fill:#87d0ff" />
<ellipse  cx="1110" cy="380" rx="31" ry="18" style="fill:none;stroke:#87d0ff" />
<text x="1089" y="384" style="font-family:Times;font-size:14.00" >Particle</text>
<g  style="fill:none;stroke:black"><path d="M833 380C898 380 1010 380 1070 380"/></g>
<polygon  style="fill:black" points="1068,382 1078,380 1068,377 1068,382 "/>
<text x="935" y="376" style="font-family:Times;font-size:14.00" >particles</text>
<ellipse  cx="390" cy="373" rx="78" ry="18" style="fill:#87d0ff" />
<ellipse  cx="390" cy="373" rx="78" ry="18" style="fill:none;stroke:#87d0ff" />
<text x="322" y="377" style="font-family:Times;font-size:14.00" >Model Group Definition</text>
<g  style="fill:none;stroke:black"><path d="M469 374C545 375 659 378 728 379"/></g>
<polygon  style="fill:black" points="727,381 737,379 727,376 727,381 "/>
<text x="548" y="371" style="font-family:Times;font-size:14.00" >model group</text>
<ellipse  cx="390" cy="427" rx="69" ry="18" style="fill:#87d0ff" />
<ellipse  cx="390" cy="427" rx="69" ry="18" style="fill:none;stroke:#87d0ff" />
<text x="331" y="431" style="font-family:Times;font-size:14.00" >Notation Declaration</text>
<ellipse  cx="66" cy="280" rx="32" ry="18" style="fill:#87d0ff" />
<ellipse  cx="66" cy="280" rx="32" ry="18" style="fill:none;stroke:#87d0ff" />
<text x="44" y="284" style="font-family:Times;font-size:14.00" >Schema</text>
<g  style="fill:none;stroke:black"><path d="M70 262C78 232 97 175 126 163 366 66 638 85 896 74 938 73 981 72 1022 74 1029 75 1037 76 1046 77"/></g>
<polygon  style="fill:black" points="1043,79 1053,78 1043,74 1043,79 "/>
<text x="525" y="76" style="font-family:Times;font-size:14.00" >attribute declarations</text>
<g  style="fill:none;stroke:black"><path d="M79 263C91 248 110 227 126 221 174 205 253 191 311 181"/></g>
<polygon  style="fill:black" points="309,184 319,180 309,179 309,184 "/>
<text x="133" y="182" style="font-family:Times;font-size:14.00" >attribute group definitions</text>
<g  style="fill:none;stroke:black"><path d="M95 272C106 269 118 267 126 265 175 257 252 248 310 241"/></g>
<polygon  style="fill:black" points="308,244 318,240 308,239 308,244 "/>
<text x="162" y="240" style="font-family:Times;font-size:14.00" >type definitions</text>
<g  style="fill:none;stroke:black"><path d="M98 284C149 291 250 302 319 311"/></g>
<polygon  style="fill:black" points="318,313 328,312 318,308 318,313 "/>
<text x="148" y="284" style="font-family:Times;font-size:14.00" >element declarations</text>
<g  style="fill:none;stroke:black"><path d="M90 292C97 296 104 300 108 304 117 311 116 328 126 330 176 342 255 355 313 363"/></g>
<polygon  style="fill:black" points="311,365 321,364 311,360 311,365 "/>
<text x="139" y="326" style="font-family:Times;font-size:14.00" >model group definitions</text>
<g  style="fill:none;stroke:black"><path d="M90 292C97 295 104 298 108 304 122 327 102 372 126 382 174 402 256 414 316 421"/></g>
<polygon  style="fill:black" points="314,423 324,422 314,418 314,423 "/>
<text x="148" y="378" style="font-family:Times;font-size:14.00" >notation declarations</text>
</svg>
